SplineFontDB: 3.2
FontName: hindi15m
FullName: hindi15m
FamilyName: hindi15m
Weight: Regular
Copyright: Copyright 2022 The Noto Project Authors (https://github.com/notofonts/devanagari)
Version: 2.006
ItalicAngle: 0
UnderlinePosition: -128
UnderlineWidth: 51
Ascent: 819
Descent: 205
InvalidEm: 0
sfntRevision: 0x00020189
LayerCount: 2
Layer: 0 1 "Back" 1
Layer: 1 1 "Fore" 0
XUID: [1021 242 -508030597 9470343]
StyleMap: 0x0040
FSType: 0
OS2Version: 4
OS2_WeightWidthSlopeOnly: 0
OS2_UseTypoMetrics: 1
CreationTime: 1432194851
ModificationTime: 1741115689
PfmFamily: 81
TTFWeight: 400
TTFWidth: 5
LineGap: 0
VLineGap: 0
Panose: 0 0 0 0 0 0 0 0 0 0
OS2TypoAscent: 918
OS2TypoAOffset: 0
OS2TypoDescent: -418
OS2TypoDOffset: 0
OS2TypoLinegap: 0
OS2WinAscent: 1380
OS2WinAOffset: 0
OS2WinDescent: 571
OS2WinDOffset: 0
HheadAscent: 918
HheadAOffset: 0
HheadDescent: -418
HheadDOffset: 0
OS2SubXSize: 666
OS2SubYSize: 614
OS2SubXOff: 0
OS2SubYOff: 77
OS2SupXSize: 666
OS2SupYSize: 614
OS2SupXOff: 0
OS2SupYOff: 358
OS2StrikeYSize: 51
OS2StrikeYPos: 330
OS2CapHeight: 637
OS2XHeight: 549
OS2Vendor: 'GOOG'
OS2CodePages: 00000013.00000000
OS2UnicodeRanges: 80008023.00002046.00000000.00000000

























































































































































































































































MarkAttachClasses: 1
MarkAttachSets: 10
"MarkSet-0" 68 uni0902 uni0901 uni0930094D uni0930094D0902 uni0930094D0901 NullMark
"MarkSet-1" 143 visargaUdattavedic reversedVisargaUdattavedic visargaAnudattavedic reversedVisargaAnudattavedic visargaUdattaTailvedic visargaAnudattaTailvedic
"MarkSet-2" 101 uni20F0 acutecomb uni0306 uni030C uni0302 uni0308 uni0307 gravecomb uni030B uni0304 uni030A tildecomb
"MarkSet-3" 49 uni0306 uni030C uni0302 uni0308 uni0304 tildecomb

StartChar: exclam
Encoding: 33 33 2
Width: 729
GlyphClass: 1
Flags: W
LayerCount: 2
Fore
SplineSet
359.5 115 m 0,0,1
 343.5 115 343.5 115 334 126 c 128,-1,2
 324.5 137 324.5 137 320 165 c 128,-1,3
 315.5 193 315.5 193 314.5 239.5 c 128,-1,4
 313.5 286 313.5 286 313.5 356 c 0,5,6
 313.5 455 313.5 455 314.5 510.5 c 128,-1,7
 315.5 566 315.5 566 321.5 593 c 128,-1,8
 327.5 620 327.5 620 340.5 625.5 c 128,-1,9
 353.5 631 353.5 631 376.5 631 c 0,10,11
 388.5 631 388.5 631 396 623.5 c 128,-1,12
 403.5 616 403.5 616 408 592.5 c 128,-1,13
 412.5 569 412.5 569 414 523 c 128,-1,14
 415.5 477 415.5 477 415.5 398 c 0,15,16
 415.5 255 415.5 255 405.5 185 c 128,-1,17
 395.5 115 395.5 115 359.5 115 c 0,0,1
346.5 607 m 0,18,19
 342.5 607 342.5 607 336 595 c 128,-1,20
 329.5 583 329.5 583 329.5 557 c 0,21,22
 329.5 544 329.5 544 331 531 c 128,-1,23
 332.5 518 332.5 518 339.5 518 c 0,24,25
 345.5 518 345.5 518 348 522 c 128,-1,26
 350.5 526 350.5 526 350.5 532 c 128,-1,27
 350.5 538 350.5 538 350 545 c 128,-1,28
 349.5 552 349.5 552 349.5 558 c 0,29,30
 350.5 575 350.5 575 352.5 591 c 128,-1,31
 354.5 607 354.5 607 346.5 607 c 0,18,19
360.5 -8 m 0,32,33
 341.5 -8 341.5 -8 329.5 4.5 c 128,-1,34
 317.5 17 317.5 17 317.5 39 c 0,35,36
 317.5 58 317.5 58 327.5 75 c 128,-1,37
 337.5 92 337.5 92 360.5 92 c 0,38,39
 384.5 92 384.5 92 396.5 76 c 128,-1,40
 408.5 60 408.5 60 408.5 39 c 0,41,42
 408.5 15 408.5 15 394.5 3.5 c 128,-1,43
 380.5 -8 380.5 -8 360.5 -8 c 0,32,33
342.5 45 m 0,44,45
 343.5 56 343.5 56 347.5 65.5 c 128,-1,46
 351.5 75 351.5 75 346.5 75 c 0,47,48
 339.5 75 339.5 75 334.5 60 c 128,-1,49
 329.5 45 329.5 45 329.5 34 c 0,50,51
 329.5 24 329.5 24 334.5 24 c 0,52,53
 338.5 24 338.5 24 340 31.5 c 128,-1,54
 341.5 39 341.5 39 342.5 45 c 0,44,45
EndSplineSet
EndChar

StartChar: quotedbl
Encoding: 34 34 3
Width: 729
GlyphClass: 1
Flags: W
LayerCount: 2
Fore
SplineSet
319.5 731 m 1,0,-1
 298.5 467 l 1,1,-1
 242.5 467 l 1,2,-1
 222.5 731 l 1,3,-1
 319.5 731 l 1,0,-1
506.5 731 m 1,4,-1
 486.5 467 l 1,5,-1
 429.5 467 l 1,6,-1
 409.5 731 l 1,7,-1
 506.5 731 l 1,4,-1
EndSplineSet
EndChar

StartChar: numbersign
Encoding: 35 35 4
Width: 729
GlyphClass: 1
Flags: W
LayerCount: 2
Fore
SplineSet
379.454101562 111 m 0,0,1
 361.454101562 111 361.454101562 111 354.454101562 123 c 128,-1,2
 347.454101562 135 347.454101562 135 346.454101562 151 c 0,3,4
 345.454101562 168 345.454101562 168 351.954101562 185.5 c 128,-1,5
 358.454101562 203 358.454101562 203 357.454101562 216 c 0,6,7
 357.454101562 219 357.454101562 219 349.954101562 220 c 128,-1,8
 342.454101562 221 342.454101562 221 340.454101562 221 c 2,9,-1
 308.454101562 221 l 1,10,11
 305.454101562 212 305.454101562 212 299.454101562 196.5 c 128,-1,12
 293.454101562 181 293.454101562 181 284.954101562 166 c 128,-1,13
 276.454101562 151 276.454101562 151 265.954101562 140 c 128,-1,14
 255.454101562 129 255.454101562 129 242.454101562 129 c 0,15,16
 226.454101562 129 226.454101562 129 219.454101562 139.5 c 128,-1,17
 212.454101562 150 212.454101562 150 211.454101562 164 c 0,18,19
 210.454101562 181 210.454101562 181 214.954101562 192 c 128,-1,20
 219.454101562 203 219.454101562 203 218.454101562 219 c 0,21,22
 218.454101562 227 218.454101562 227 208.954101562 227.5 c 128,-1,23
 199.454101562 228 199.454101562 228 186.954101562 230 c 128,-1,24
 174.454101562 232 174.454101562 232 163.954101562 240 c 128,-1,25
 153.454101562 248 153.454101562 248 152.454101562 270 c 0,26,27
 152.454101562 282 152.454101562 282 158.954101562 290 c 128,-1,28
 165.454101562 298 165.454101562 298 174.454101562 302 c 128,-1,29
 183.454101562 306 183.454101562 306 194.954101562 307.5 c 128,-1,30
 206.454101562 309 206.454101562 309 216.454101562 309 c 0,31,32
 228.454101562 309 228.454101562 309 236.454101562 317 c 128,-1,33
 244.454101562 325 244.454101562 325 248.454101562 336 c 128,-1,34
 252.454101562 347 252.454101562 347 254.954101562 359.5 c 128,-1,35
 257.454101562 372 257.454101562 372 259.454101562 381 c 1,36,37
 251.454101562 381 251.454101562 381 238.954101562 382.5 c 128,-1,38
 226.454101562 384 226.454101562 384 214.954101562 387.5 c 128,-1,39
 203.454101562 391 203.454101562 391 194.954101562 399 c 128,-1,40
 186.454101562 407 186.454101562 407 186.454101562 419 c 0,41,42
 185.454101562 446 185.454101562 446 200.454101562 453 c 128,-1,43
 215.454101562 460 215.454101562 460 254.454101562 460 c 0,44,45
 270.454101562 460 270.454101562 460 276.954101562 463.5 c 128,-1,46
 283.454101562 467 283.454101562 467 288.454101562 483 c 0,47,48
 291.454101562 490 291.454101562 490 294.454101562 501 c 128,-1,49
 297.454101562 512 297.454101562 512 302.954101562 522 c 128,-1,50
 308.454101562 532 308.454101562 532 317.954101562 539.5 c 128,-1,51
 327.454101562 547 327.454101562 547 342.454101562 547 c 0,52,53
 362.454101562 547 362.454101562 547 370.454101562 534.5 c 128,-1,54
 378.454101562 522 378.454101562 522 379.454101562 511 c 0,55,56
 379.454101562 501 379.454101562 501 375.954101562 492 c 128,-1,57
 372.454101562 483 372.454101562 483 373.454101562 473 c 0,58,59
 373.454101562 468 373.454101562 468 377.954101562 465.5 c 128,-1,60
 382.454101562 463 382.454101562 463 387.954101562 461.5 c 128,-1,61
 393.454101562 460 393.454101562 460 399.454101562 460 c 128,-1,62
 405.454101562 460 405.454101562 460 408.454101562 460 c 0,63,64
 418.454101562 460 418.454101562 460 424.954101562 472 c 128,-1,65
 431.454101562 484 431.454101562 484 437.454101562 499.5 c 128,-1,66
 443.454101562 515 443.454101562 515 451.954101562 527.5 c 128,-1,67
 460.454101562 540 460.454101562 540 475.454101562 540 c 0,68,69
 495.454101562 540 495.454101562 540 504.954101562 523.5 c 128,-1,70
 514.454101562 507 514.454101562 507 515.454101562 495 c 0,71,72
 515.454101562 487 515.454101562 487 512.454101562 479 c 128,-1,73
 509.454101562 471 509.454101562 471 509.454101562 462 c 0,74,75
 509.454101562 455 509.454101562 455 519.954101562 454.5 c 128,-1,76
 530.454101562 454 530.454101562 454 542.954101562 452.5 c 128,-1,77
 555.454101562 451 555.454101562 451 565.454101562 445 c 128,-1,78
 575.454101562 439 575.454101562 439 576.454101562 422 c 0,79,80
 577.454101562 408 577.454101562 408 567.454101562 399.5 c 128,-1,81
 557.454101562 391 557.454101562 391 543.454101562 386.5 c 128,-1,82
 529.454101562 382 529.454101562 382 514.454101562 380.5 c 128,-1,83
 499.454101562 379 499.454101562 379 489.454101562 379 c 1,84,85
 482.454101562 360 482.454101562 360 477.954101562 343.5 c 128,-1,86
 473.454101562 327 473.454101562 327 466.454101562 306 c 1,87,88
 477.454101562 306 477.454101562 306 489.954101562 306.5 c 128,-1,89
 502.454101562 307 502.454101562 307 512.454101562 304.5 c 128,-1,90
 522.454101562 302 522.454101562 302 528.954101562 295 c 128,-1,91
 535.454101562 288 535.454101562 288 536.454101562 271 c 0,92,93
 537.454101562 257 537.454101562 257 531.454101562 247.5 c 128,-1,94
 525.454101562 238 525.454101562 238 515.454101562 231.5 c 128,-1,95
 505.454101562 225 505.454101562 225 493.454101562 222.5 c 128,-1,96
 481.454101562 220 481.454101562 220 470.454101562 220 c 2,97,-1
 465.454101562 220 l 1,98,-1
 454.454101562 221 l 1,99,-1
 448.454101562 221 l 1,100,101
 445.454101562 209 445.454101562 209 441.954101562 190.5 c 128,-1,102
 438.454101562 172 438.454101562 172 431.954101562 154 c 128,-1,103
 425.454101562 136 425.454101562 136 413.454101562 123.5 c 128,-1,104
 401.454101562 111 401.454101562 111 379.454101562 111 c 0,0,1
309.454101562 468 m 0,105,106
 312.454101562 468 312.454101562 468 316.454101562 474 c 128,-1,107
 320.454101562 480 320.454101562 480 324.454101562 488 c 128,-1,108
 328.454101562 496 328.454101562 496 331.454101562 504 c 128,-1,109
 334.454101562 512 334.454101562 512 334.454101562 515 c 0,110,111
 334.454101562 520 334.454101562 520 329.454101562 520 c 0,112,113
 325.454101562 521 325.454101562 521 320.454101562 516 c 128,-1,114
 315.454101562 511 315.454101562 511 311.954101562 504 c 128,-1,115
 308.454101562 497 308.454101562 497 305.954101562 489 c 128,-1,116
 303.454101562 481 303.454101562 481 303.454101562 477 c 0,117,118
 303.454101562 474 303.454101562 474 305.454101562 471 c 128,-1,119
 307.454101562 468 307.454101562 468 309.454101562 468 c 0,105,106
205.454101562 414 m 0,120,121
 210.454101562 414 210.454101562 414 213.454101562 425 c 128,-1,122
 216.454101562 436 216.454101562 436 215.454101562 440 c 0,123,124
 215.454101562 444 215.454101562 444 212.454101562 444 c 0,125,126
 207.454101562 446 207.454101562 446 202.954101562 439 c 128,-1,127
 198.454101562 432 198.454101562 432 199.454101562 426 c 0,128,129
 199.454101562 414 199.454101562 414 205.454101562 414 c 0,120,121
355.454101562 305 m 0,130,131
 366.454101562 305 366.454101562 305 374.954101562 313 c 128,-1,132
 383.454101562 321 383.454101562 321 388.454101562 331.5 c 128,-1,133
 393.454101562 342 393.454101562 342 395.454101562 354 c 128,-1,134
 397.454101562 366 397.454101562 366 397.454101562 375 c 0,135,136
 397.454101562 378 397.454101562 378 396.454101562 381 c 128,-1,137
 395.454101562 384 395.454101562 384 391.454101562 384 c 0,138,139
 367.454101562 384 367.454101562 384 358.454101562 378 c 128,-1,140
 349.454101562 372 349.454101562 372 341.454101562 350 c 0,141,142
 339.454101562 344 339.454101562 344 334.954101562 330.5 c 128,-1,143
 330.454101562 317 330.454101562 317 331.454101562 311 c 2,144,-1
 331.454101562 310 l 1,145,146
 336.454101562 307 336.454101562 307 342.954101562 306 c 128,-1,147
 349.454101562 305 349.454101562 305 355.454101562 305 c 0,130,131
186.454101562 286 m 0,148,149
 186.454101562 292 186.454101562 292 179.454101562 292 c 0,150,151
 170.454101562 292 170.454101562 292 167.454101562 279.5 c 128,-1,152
 164.454101562 267 164.454101562 267 166.454101562 262 c 256,153,154
 168.454101562 257 168.454101562 257 170.454101562 256 c 0,155,156
 172.454101562 256 172.454101562 256 175.454101562 259.5 c 128,-1,157
 178.454101562 263 178.454101562 263 180.954101562 268 c 128,-1,158
 183.454101562 273 183.454101562 273 184.954101562 278.5 c 128,-1,159
 186.454101562 284 186.454101562 284 186.454101562 286 c 0,148,149
EndSplineSet
EndChar

StartChar: percent
Encoding: 37 37 5
Width: 729
GlyphClass: 1
Flags: W
LayerCount: 2
Fore
SplineSet
224.5 -6 m 0,0,1
 220.5 -6 220.5 -6 212.5 -4 c 128,-1,2
 204.5 -2 204.5 -2 197.5 2 c 128,-1,3
 190.5 6 190.5 6 185 11.5 c 128,-1,4
 179.5 17 179.5 17 179.5 24 c 0,5,6
 179.5 31 179.5 31 184 48 c 128,-1,7
 188.5 65 188.5 65 200.5 95.5 c 128,-1,8
 212.5 126 212.5 126 234.5 172.5 c 128,-1,9
 256.5 219 256.5 219 292.5 287 c 0,10,11
 347.5 392 347.5 392 382 460.5 c 128,-1,12
 416.5 529 416.5 529 438.5 569 c 0,13,14
 460.5 610 460.5 610 478 622 c 128,-1,15
 495.5 634 495.5 634 508.5 634 c 0,16,17
 525.5 634 525.5 634 532.5 621.5 c 128,-1,18
 539.5 609 539.5 609 538.5 591 c 128,-1,19
 537.5 573 537.5 573 532 554.5 c 128,-1,20
 526.5 536 526.5 536 519.5 522 c 0,21,22
 505.5 492 505.5 492 482 444.5 c 128,-1,23
 458.5 397 458.5 397 431.5 343.5 c 128,-1,24
 404.5 290 404.5 290 376 234.5 c 128,-1,25
 347.5 179 347.5 179 324 133.5 c 128,-1,26
 300.5 88 300.5 88 285 57.5 c 128,-1,27
 269.5 27 269.5 27 266.5 23 c 0,28,29
 255.5 6 255.5 6 244.5 0 c 128,-1,30
 233.5 -6 233.5 -6 224.5 -6 c 0,0,1
230.5 402 m 0,31,32
 206.5 402 206.5 402 188.5 412 c 128,-1,33
 170.5 422 170.5 422 158.5 438.5 c 128,-1,34
 146.5 455 146.5 455 140 476.5 c 128,-1,35
 133.5 498 133.5 498 133.5 522 c 0,36,37
 133.5 541 133.5 541 140.5 561 c 128,-1,38
 147.5 581 147.5 581 159.5 596.5 c 128,-1,39
 171.5 612 171.5 612 189 622.5 c 128,-1,40
 206.5 633 206.5 633 228.5 633 c 0,41,42
 271.5 633 271.5 633 296 609 c 128,-1,43
 320.5 585 320.5 585 320.5 529 c 0,44,45
 320.5 501 320.5 501 313 478.5 c 128,-1,46
 305.5 456 305.5 456 293.5 439 c 128,-1,47
 281.5 422 281.5 422 265 412 c 128,-1,48
 248.5 402 248.5 402 230.5 402 c 0,31,32
230.5 471 m 0,49,50
 237.5 471 237.5 471 242.5 476.5 c 128,-1,51
 247.5 482 247.5 482 250.5 491 c 128,-1,52
 253.5 500 253.5 500 255 510 c 128,-1,53
 256.5 520 256.5 520 256.5 529 c 0,54,55
 256.5 546 256.5 546 249.5 558.5 c 128,-1,56
 242.5 571 242.5 571 230.5 571 c 0,57,58
 219.5 571 219.5 571 211 556.5 c 128,-1,59
 202.5 542 202.5 542 202.5 524 c 256,60,61
 202.5 507 202.5 507 210 489 c 128,-1,62
 217.5 471 217.5 471 230.5 471 c 0,49,50
160.5 524 m 256,63,64
 160.5 540 160.5 540 160.5 548 c 128,-1,65
 160.5 556 160.5 556 157.5 556 c 0,66,67
 151.5 556 151.5 556 149.5 543 c 128,-1,68
 147.5 530 147.5 530 147.5 526 c 0,69,70
 147.5 523 147.5 523 147.5 517.5 c 128,-1,71
 147.5 512 147.5 512 149 506.5 c 128,-1,72
 150.5 501 150.5 501 153 496.5 c 128,-1,73
 155.5 492 155.5 492 160.5 492 c 0,74,75
 164.5 492 164.5 492 162.5 500 c 128,-1,76
 160.5 508 160.5 508 160.5 524 c 256,63,64
186.5 464 m 0,77,78
 186.5 475 186.5 475 176.5 475 c 0,79,80
 170.5 475 170.5 475 170.5 467 c 0,81,82
 170.5 465 170.5 465 173 461 c 128,-1,83
 175.5 457 175.5 457 178.5 457 c 0,84,85
 186.5 457 186.5 457 186.5 464 c 0,77,78
505.5 -6 m 0,86,87
 481.5 -6 481.5 -6 464 3.5 c 128,-1,88
 446.5 13 446.5 13 434 29.5 c 128,-1,89
 421.5 46 421.5 46 415.5 67.5 c 128,-1,90
 409.5 89 409.5 89 409.5 114 c 0,91,92
 409.5 133 409.5 133 416 152.5 c 128,-1,93
 422.5 172 422.5 172 435 188 c 128,-1,94
 447.5 204 447.5 204 465 214 c 128,-1,95
 482.5 224 482.5 224 503.5 224 c 0,96,97
 546.5 224 546.5 224 571 200 c 128,-1,98
 595.5 176 595.5 176 595.5 121 c 0,99,100
 595.5 93 595.5 93 588.5 70 c 128,-1,101
 581.5 47 581.5 47 569 30 c 128,-1,102
 556.5 13 556.5 13 540 3.5 c 128,-1,103
 523.5 -6 523.5 -6 505.5 -6 c 0,86,87
505.5 62 m 0,104,105
 512.5 62 512.5 62 518 68 c 128,-1,106
 523.5 74 523.5 74 526.5 82.5 c 128,-1,107
 529.5 91 529.5 91 531 101.5 c 128,-1,108
 532.5 112 532.5 112 532.5 121 c 0,109,110
 532.5 138 532.5 138 525 150.5 c 128,-1,111
 517.5 163 517.5 163 505.5 163 c 0,112,113
 494.5 163 494.5 163 486 148 c 128,-1,114
 477.5 133 477.5 133 477.5 116 c 256,115,116
 477.5 99 477.5 99 485 80.5 c 128,-1,117
 492.5 62 492.5 62 505.5 62 c 0,104,105
435.5 116 m 256,118,119
 435.5 132 435.5 132 435.5 139.5 c 128,-1,120
 435.5 147 435.5 147 432.5 147 c 0,121,122
 426.5 147 426.5 147 424.5 134.5 c 128,-1,123
 422.5 122 422.5 122 422.5 118 c 0,124,125
 422.5 115 422.5 115 422.5 109 c 128,-1,126
 422.5 103 422.5 103 424 97.5 c 128,-1,127
 425.5 92 425.5 92 428 87.5 c 128,-1,128
 430.5 83 430.5 83 435.5 83 c 0,129,130
 439.5 83 439.5 83 437.5 91.5 c 128,-1,131
 435.5 100 435.5 100 435.5 116 c 256,118,119
221.5 84 m 0,132,133
 216.5 89 216.5 89 211 84 c 128,-1,134
 205.5 79 205.5 79 202.5 71 c 256,135,136
 199.5 63 199.5 63 196.5 51.5 c 128,-1,137
 193.5 40 193.5 40 193.5 35 c 0,138,139
 194.5 24 194.5 24 198 24 c 128,-1,140
 201.5 24 201.5 24 208.5 41 c 0,141,142
 213.5 53 213.5 53 218.5 67.5 c 128,-1,143
 223.5 82 223.5 82 221.5 84 c 0,132,133
461.5 55 m 0,144,145
 461.5 66 461.5 66 452.5 67 c 0,146,147
 446.5 67 446.5 67 446.5 58 c 0,148,149
 446.5 56 446.5 56 449 52 c 128,-1,150
 451.5 48 451.5 48 454.5 48 c 0,151,152
 461.5 48 461.5 48 461.5 55 c 0,144,145
EndSplineSet
EndChar

StartChar: quotesingle
Encoding: 39 39 6
Width: 729
GlyphClass: 1
Flags: W
LayerCount: 2
Fore
SplineSet
413 731 m 1,0,-1
 392 467 l 1,1,-1
 336 467 l 1,2,-1
 316 731 l 1,3,-1
 413 731 l 1,0,-1
EndSplineSet
EndChar

StartChar: parenleft
Encoding: 40 40 7
Width: 729
GlyphClass: 1
Flags: W
LayerCount: 2
Fore
SplineSet
431 -74 m 0,0,1
 376 -52 376 -52 338.5 -13 c 128,-1,2
 301 26 301 26 278 73.5 c 128,-1,3
 255 121 255 121 244.5 173.5 c 128,-1,4
 234 226 234 226 234 275 c 0,5,6
 234 322 234 322 243 371.5 c 128,-1,7
 252 421 252 421 267.5 467 c 128,-1,8
 283 513 283 513 307 553.5 c 128,-1,9
 331 594 331 594 359 624 c 0,10,11
 387 652 387 652 412.5 670 c 128,-1,12
 438 688 438 688 459 688 c 0,13,14
 474 688 474 688 483 676 c 128,-1,15
 492 664 492 664 492 651 c 0,16,17
 492 643 492 643 479.5 632 c 128,-1,18
 467 621 467 621 443 596 c 0,19,20
 412 563 412 563 392 524 c 128,-1,21
 372 485 372 485 359.5 443.5 c 128,-1,22
 347 402 347 402 342.5 359.5 c 128,-1,23
 338 317 338 317 338 279 c 256,24,25
 338 240 338 240 344 197.5 c 128,-1,26
 350 155 350 155 364.5 116 c 128,-1,27
 379 77 379 77 402.5 44.5 c 128,-1,28
 426 12 426 12 461 -7 c 0,29,30
 478 -16 478 -16 486.5 -23 c 128,-1,31
 495 -30 495 -30 495 -44 c 0,32,33
 495 -57 495 -57 482 -67.5 c 128,-1,34
 469 -78 469 -78 451 -78 c 0,35,36
 440 -78 440 -78 431 -74 c 0,0,1
417 635 m 0,37,38
 422 640 422 640 428 645.5 c 128,-1,39
 434 651 434 651 427 651 c 0,40,41
 419 651 419 651 408 643.5 c 128,-1,42
 397 636 397 636 387 625.5 c 128,-1,43
 377 615 377 615 370 604.5 c 128,-1,44
 363 594 363 594 363 588 c 0,45,46
 363 583 363 583 367 583 c 0,47,48
 372 583 372 583 377 589.5 c 128,-1,49
 382 596 382 596 385 601 c 0,50,51
 389 608 389 608 396.5 616 c 128,-1,52
 404 624 404 624 417 635 c 0,37,38
357 560 m 0,53,54
 357 568 357 568 351 568 c 0,55,56
 339 568 339 568 339 560 c 0,57,58
 339 554 339 554 342 552.5 c 128,-1,59
 345 551 345 551 347 551 c 256,60,61
 349 551 349 551 353 552.5 c 128,-1,62
 357 554 357 554 357 560 c 0,53,54
EndSplineSet

EndChar

StartChar: parenright
Encoding: 41 41 8
Width: 729
GlyphClass: 1
Flags: W
LayerCount: 2
Fore
SplineSet
291.5 -95 m 0,0,1
 277.5 -95 277.5 -95 264.5 -86.5 c 128,-1,2
 251.5 -78 251.5 -78 251.5 -68 c 0,3,4
 251.5 -59 251.5 -59 261.5 -44.5 c 128,-1,5
 271.5 -30 271.5 -30 286.5 -9 c 128,-1,6
 301.5 12 301.5 12 319.5 42 c 128,-1,7
 337.5 72 337.5 72 352.5 111 c 128,-1,8
 367.5 150 367.5 150 377.5 200 c 128,-1,9
 387.5 250 387.5 250 387.5 312 c 0,10,11
 387.5 360 387.5 360 380 408 c 128,-1,12
 372.5 456 372.5 456 358 496 c 128,-1,13
 343.5 536 343.5 536 323.5 565.5 c 128,-1,14
 303.5 595 303.5 595 279.5 608 c 0,15,16
 267.5 615 267.5 615 253 625 c 128,-1,17
 238.5 635 238.5 635 238.5 653 c 0,18,19
 238.5 668 238.5 668 251.5 678 c 128,-1,20
 264.5 688 264.5 688 286.5 688 c 0,21,22
 324.5 688 324.5 688 361 661.5 c 128,-1,23
 397.5 635 397.5 635 426.5 586 c 128,-1,24
 455.5 537 455.5 537 473 466.5 c 128,-1,25
 490.5 396 490.5 396 490.5 309 c 0,26,27
 490.5 232 490.5 232 481.5 179 c 128,-1,28
 472.5 126 472.5 126 456.5 87 c 128,-1,29
 440.5 48 440.5 48 419 17.5 c 128,-1,30
 397.5 -13 397.5 -13 372.5 -45 c 0,31,32
 348.5 -75 348.5 -75 328.5 -85 c 128,-1,33
 308.5 -95 308.5 -95 291.5 -95 c 0,0,1
258.5 636 m 0,34,35
 262.5 636 262.5 636 266 643.5 c 128,-1,36
 269.5 651 269.5 651 269.5 659 c 0,37,38
 269.5 672 269.5 672 262.5 673 c 0,39,40
 258.5 673 258.5 673 255 665 c 128,-1,41
 251.5 657 251.5 657 251.5 649 c 0,42,43
 251.5 636 251.5 636 258.5 636 c 0,34,35
286.5 -61 m 256,44,45
 291.5 -51 291.5 -51 292 -41 c 128,-1,46
 292.5 -31 292.5 -31 288.5 -30 c 0,47,48
 286.5 -30 286.5 -30 283 -34 c 128,-1,49
 279.5 -38 279.5 -38 275.5 -44 c 128,-1,50
 271.5 -50 271.5 -50 269 -56 c 128,-1,51
 266.5 -62 266.5 -62 266.5 -66 c 0,52,53
 266.5 -74 266.5 -74 270.5 -75 c 0,54,55
 273.5 -76 273.5 -76 277.5 -73.5 c 128,-1,56
 281.5 -71 281.5 -71 286.5 -61 c 256,44,45
EndSplineSet
EndChar

StartChar: asterisk
Encoding: 42 42 9
Width: 729
GlyphClass: 1
Flags: W
LayerCount: 2
Fore
SplineSet
413.5 778 m 1,0,-1
 392.5 582 l 1,1,-1
 589.5 637 l 1,2,-1
 603.5 543 l 1,3,-1
 415.5 527 l 1,4,-1
 537.5 366 l 1,5,-1
 449.5 317 l 1,6,-1
 362.5 497 l 1,7,-1
 283.5 317 l 1,8,-1
 192.5 366 l 1,9,-1
 311.5 527 l 1,10,-1
 125.5 543 l 1,11,-1
 139.5 637 l 1,12,-1
 334.5 582 l 1,13,-1
 312.5 778 l 1,14,-1
 413.5 778 l 1,0,-1
EndSplineSet
EndChar

StartChar: plus
Encoding: 43 43 10
Width: 729
GlyphClass: 1
Flags: W
LayerCount: 2
Fore
SplineSet
402 397 m 1,0,-1
 605 397 l 1,1,-1
 605 325 l 1,2,-1
 402 325 l 1,3,-1
 402 114 l 1,4,-1
 328 114 l 1,5,-1
 328 325 l 1,6,-1
 124 325 l 1,7,-1
 124 397 l 1,8,-1
 328 397 l 1,9,-1
 328 609 l 1,10,-1
 402 609 l 1,11,-1
 402 397 l 1,0,-1
EndSplineSet
EndChar

StartChar: comma
Encoding: 44 44 11
Width: 729
GlyphClass: 1
Flags: W
LayerCount: 2
Fore
SplineSet
442 108 m 1,0,1
 433 72 433 72 418.5 30 c 128,-1,2
 404 -12 404 -12 387 -53.5 c 128,-1,3
 370 -95 370 -95 354 -132 c 1,4,-1
 287 -132 l 1,5,6
 297 -93 297 -93 307 -48.5 c 128,-1,7
 317 -4 317 -4 325 39.5 c 128,-1,8
 333 83 333 83 338 119 c 1,9,-1
 434 119 l 1,10,-1
 442 108 l 1,0,1
EndSplineSet
EndChar

StartChar: hyphen
Encoding: 45 45 12
Width: 729
GlyphClass: 1
Flags: W
LayerCount: 2
Fore
SplineSet
240.5 234 m 1,0,-1
 240.5 314 l 1,1,-1
 488.5 314 l 1,2,-1
 488.5 234 l 1,3,-1
 240.5 234 l 1,0,-1
EndSplineSet
EndChar

StartChar: period
Encoding: 46 46 13
Width: 729
GlyphClass: 1
Flags: W
LayerCount: 2
Fore
SplineSet
358.5 -8 m 0,0,1
 317.5 -8 317.5 -8 288.5 20.5 c 128,-1,2
 259.5 49 259.5 49 259.5 94 c 0,3,4
 259.5 119 259.5 119 268 141 c 128,-1,5
 276.5 163 276.5 163 292 179 c 128,-1,6
 307.5 195 307.5 195 329 204.5 c 128,-1,7
 350.5 214 350.5 214 375.5 214 c 0,8,9
 395.5 214 395.5 214 413.5 205.5 c 128,-1,10
 431.5 197 431.5 197 443.5 181.5 c 128,-1,11
 455.5 166 455.5 166 462.5 146.5 c 128,-1,12
 469.5 127 469.5 127 469.5 105 c 0,13,14
 469.5 77 469.5 77 460.5 56.5 c 128,-1,15
 451.5 36 451.5 36 436 21.5 c 128,-1,16
 420.5 7 420.5 7 401 -0.5 c 128,-1,17
 381.5 -8 381.5 -8 358.5 -8 c 0,0,1
320.5 169 m 0,18,19
 327.5 176 327.5 176 329 181 c 128,-1,20
 330.5 186 330.5 186 328.5 186 c 0,21,22
 320.5 186 320.5 186 311.5 178.5 c 128,-1,23
 302.5 171 302.5 171 294.5 160.5 c 128,-1,24
 286.5 150 286.5 150 281.5 137.5 c 128,-1,25
 276.5 125 276.5 125 276.5 115 c 0,26,27
 276.5 113 276.5 113 278 106.5 c 128,-1,28
 279.5 100 279.5 100 282.5 100 c 0,29,30
 286.5 100 286.5 100 292.5 123 c 0,31,32
 295.5 137 295.5 137 304 149 c 128,-1,33
 312.5 161 312.5 161 320.5 169 c 0,18,19
362.5 50 m 0,34,35
 374.5 50 374.5 50 391.5 64.5 c 128,-1,36
 408.5 79 408.5 79 408.5 105 c 0,37,38
 408.5 125 408.5 125 398 139.5 c 128,-1,39
 387.5 154 387.5 154 369.5 154 c 256,40,41
 352.5 154 352.5 154 338 140 c 128,-1,42
 323.5 126 323.5 126 323.5 101 c 256,43,44
 323.5 76 323.5 76 335 63 c 128,-1,45
 346.5 50 346.5 50 362.5 50 c 0,34,35
EndSplineSet
EndChar

StartChar: slash
Encoding: 47 47 14
Width: 729
GlyphClass: 1
Flags: W
LayerCount: 2
Fore
SplineSet
248.5 -79 m 0,0,1
 244.5 -79 244.5 -79 232.5 -77 c 128,-1,2
 220.5 -75 220.5 -75 208.5 -70.5 c 128,-1,3
 196.5 -66 196.5 -66 187 -58.5 c 128,-1,4
 177.5 -51 177.5 -51 177.5 -42 c 0,5,6
 177.5 -39 177.5 -39 188.5 -10 c 128,-1,7
 199.5 19 199.5 19 217 65.5 c 128,-1,8
 234.5 112 234.5 112 257.5 170 c 128,-1,9
 280.5 228 280.5 228 305 289.5 c 128,-1,10
 329.5 351 329.5 351 354 411.5 c 128,-1,11
 378.5 472 378.5 472 399 521.5 c 128,-1,12
 419.5 571 419.5 571 435 606 c 128,-1,13
 450.5 641 450.5 641 456.5 651 c 0,14,15
 463.5 662 463.5 662 475.5 672 c 128,-1,16
 487.5 682 487.5 682 501.5 682 c 0,17,18
 508.5 682 508.5 682 517 679.5 c 128,-1,19
 525.5 677 525.5 677 533.5 672.5 c 128,-1,20
 541.5 668 541.5 668 546.5 661.5 c 128,-1,21
 551.5 655 551.5 655 551.5 648 c 0,22,23
 551.5 640 551.5 640 543 614 c 128,-1,24
 534.5 588 534.5 588 522.5 557.5 c 128,-1,25
 510.5 527 510.5 527 499 499 c 128,-1,26
 487.5 471 487.5 471 480.5 458 c 0,27,28
 476.5 449 476.5 449 465.5 420.5 c 128,-1,29
 454.5 392 454.5 392 439 352.5 c 128,-1,30
 423.5 313 423.5 313 405 265.5 c 128,-1,31
 386.5 218 386.5 218 367 170.5 c 128,-1,32
 347.5 123 347.5 123 328.5 78 c 128,-1,33
 309.5 33 309.5 33 294 -2 c 128,-1,34
 278.5 -37 278.5 -37 266 -58 c 128,-1,35
 253.5 -79 253.5 -79 248.5 -79 c 0,0,1
222.5 -38 m 0,36,37
 226.5 -26 226.5 -26 235 -7.5 c 128,-1,38
 243.5 11 243.5 11 250.5 28 c 128,-1,39
 257.5 45 257.5 45 261 58 c 128,-1,40
 264.5 71 264.5 71 259.5 72 c 0,41,42
 257.5 73 257.5 73 252.5 73 c 128,-1,43
 247.5 73 247.5 73 244.5 68 c 0,44,45
 242.5 64 242.5 64 236 50 c 128,-1,46
 229.5 36 229.5 36 222.5 20 c 128,-1,47
 215.5 4 215.5 4 210.5 -11 c 128,-1,48
 205.5 -26 205.5 -26 205.5 -32 c 0,49,50
 205.5 -39 205.5 -39 213 -41 c 128,-1,51
 220.5 -43 220.5 -43 222.5 -38 c 0,36,37
EndSplineSet
EndChar

StartChar: zero
Encoding: 48 48 15
Width: 729
GlyphClass: 1
Flags: W
LayerCount: 2
Fore
SplineSet
369.5 -17 m 0,0,1
 316.5 -17 316.5 -17 281 12 c 128,-1,2
 245.5 41 245.5 41 224 88 c 128,-1,3
 202.5 135 202.5 135 194 194.5 c 128,-1,4
 185.5 254 185.5 254 185.5 314 c 256,5,6
 185.5 374 185.5 374 195.5 432 c 128,-1,7
 205.5 490 205.5 490 228.5 535.5 c 128,-1,8
 251.5 581 251.5 581 288.5 608.5 c 128,-1,9
 325.5 636 325.5 636 377.5 636 c 0,10,11
 412.5 636 412.5 636 438 618.5 c 128,-1,12
 463.5 601 463.5 601 482 573.5 c 128,-1,13
 500.5 546 500.5 546 513 511 c 128,-1,14
 525.5 476 525.5 476 532 440 c 128,-1,15
 538.5 404 538.5 404 541 371 c 128,-1,16
 543.5 338 543.5 338 543.5 314 c 0,17,18
 543.5 264 543.5 264 534.5 205.5 c 128,-1,19
 525.5 147 525.5 147 505 97.5 c 128,-1,20
 484.5 48 484.5 48 451 15.5 c 128,-1,21
 417.5 -17 417.5 -17 369.5 -17 c 0,0,1
259.5 524 m 0,22,23
 268.5 543 268.5 543 274 553 c 128,-1,24
 279.5 563 279.5 563 279.5 566 c 0,25,26
 279.5 568 279.5 568 275.5 568.5 c 128,-1,27
 271.5 569 271.5 569 265.5 562 c 0,28,29
 261.5 556 261.5 556 254.5 543 c 128,-1,30
 247.5 530 247.5 530 240.5 516 c 128,-1,31
 233.5 502 233.5 502 228.5 488 c 128,-1,32
 223.5 474 223.5 474 223.5 467 c 256,33,34
 223.5 460 223.5 460 229 462 c 128,-1,35
 234.5 464 234.5 464 237.5 471 c 0,36,37
 240.5 479 240.5 479 245.5 492.5 c 128,-1,38
 250.5 506 250.5 506 259.5 524 c 0,22,23
370.5 60 m 0,39,40
 402.5 60 402.5 60 421 87 c 128,-1,41
 439.5 114 439.5 114 449 154 c 128,-1,42
 458.5 194 458.5 194 461 240 c 128,-1,43
 463.5 286 463.5 286 463.5 324 c 0,44,45
 463.5 348 463.5 348 460.5 386.5 c 128,-1,46
 457.5 425 457.5 425 448.5 462.5 c 128,-1,47
 439.5 500 439.5 500 422.5 527 c 128,-1,48
 405.5 554 405.5 554 377.5 554 c 0,49,50
 354.5 554 354.5 554 338.5 526.5 c 128,-1,51
 322.5 499 322.5 499 311.5 460.5 c 128,-1,52
 300.5 422 300.5 422 295.5 380 c 128,-1,53
 290.5 338 290.5 338 290.5 308 c 0,54,55
 290.5 293 290.5 293 290.5 269 c 128,-1,56
 290.5 245 290.5 245 292.5 217 c 128,-1,57
 294.5 189 294.5 189 299 161.5 c 128,-1,58
 303.5 134 303.5 134 312.5 111.5 c 128,-1,59
 321.5 89 321.5 89 336 74.5 c 128,-1,60
 350.5 60 350.5 60 370.5 60 c 0,39,40
EndSplineSet
EndChar

StartChar: one
Encoding: 49 49 16
Width: 729
GlyphClass: 1
Flags: W
LayerCount: 2
Fore
SplineSet
415.5 0 m 0,0,1
 369.5 0 369.5 0 369.5 48 c 2,2,-1
 369.5 461 l 2,3,4
 369.5 470 369.5 470 369 477 c 128,-1,5
 368.5 484 368.5 484 366.5 484 c 0,6,7
 363.5 484 363.5 484 357 476.5 c 128,-1,8
 350.5 469 350.5 469 343 459.5 c 128,-1,9
 335.5 450 335.5 450 327 440 c 128,-1,10
 318.5 430 318.5 430 309.5 426 c 0,11,12
 300.5 421 300.5 421 290.5 421 c 0,13,14
 276.5 421 276.5 421 267 431 c 128,-1,15
 257.5 441 257.5 441 257.5 456 c 0,16,17
 257.5 461 257.5 461 267.5 474 c 128,-1,18
 277.5 487 277.5 487 284.5 498 c 0,19,20
 293.5 511 293.5 511 312 533.5 c 128,-1,21
 330.5 556 330.5 556 351.5 577.5 c 128,-1,22
 372.5 599 372.5 599 392 615 c 128,-1,23
 411.5 631 411.5 631 423.5 631 c 0,24,25
 429.5 631 429.5 631 438 630 c 128,-1,26
 446.5 629 446.5 629 454 626 c 128,-1,27
 461.5 623 461.5 623 466.5 617 c 128,-1,28
 471.5 611 471.5 611 471.5 601 c 2,29,-1
 471.5 49 l 2,30,31
 471.5 31 471.5 31 455 15.5 c 128,-1,32
 438.5 0 438.5 0 415.5 0 c 0,0,1
414.5 606 m 0,33,34
 419.5 614 419.5 614 422.5 617 c 128,-1,35
 425.5 620 425.5 620 422.5 621 c 0,36,37
 420.5 621 420.5 621 413.5 618 c 128,-1,38
 406.5 615 406.5 615 399.5 609 c 0,39,40
 394.5 604 394.5 604 386.5 597 c 128,-1,41
 378.5 590 378.5 590 378.5 586 c 0,42,43
 378.5 583 378.5 583 382.5 582 c 0,44,45
 389.5 581 389.5 581 400 591 c 128,-1,46
 410.5 601 410.5 601 414.5 606 c 0,33,34
403.5 46 m 0,47,48
 403.5 54 403.5 54 400.5 59.5 c 128,-1,49
 397.5 65 397.5 65 397.5 76 c 0,50,51
 397.5 81 397.5 81 397 85 c 128,-1,52
 396.5 89 396.5 89 391.5 89 c 0,53,54
 387.5 89 387.5 89 385.5 79.5 c 128,-1,55
 383.5 70 383.5 70 383.5 58.5 c 128,-1,56
 383.5 47 383.5 47 385.5 37.5 c 128,-1,57
 387.5 28 387.5 28 391.5 28 c 0,58,59
 403.5 28 403.5 28 403.5 46 c 0,47,48
EndSplineSet
EndChar

StartChar: two
Encoding: 50 50 17
Width: 729
GlyphClass: 1
Flags: W
LayerCount: 2
Fore
SplineSet
230.2109375 0 m 2,0,1
 221.2109375 0 221.2109375 0 213.7109375 13.5 c 128,-1,2
 206.2109375 27 206.2109375 27 208.2109375 39 c 256,3,4
 210.2109375 51 210.2109375 51 224.2109375 69.5 c 128,-1,5
 238.2109375 88 238.2109375 88 255.2109375 109 c 0,6,7
 292.2109375 155 292.2109375 155 321.7109375 203.5 c 128,-1,8
 351.2109375 252 351.2109375 252 372.2109375 299.5 c 128,-1,9
 393.2109375 347 393.2109375 347 404.2109375 392 c 128,-1,10
 415.2109375 437 415.2109375 437 415.2109375 476 c 0,11,12
 415.2109375 518 415.2109375 518 397.7109375 532.5 c 128,-1,13
 380.2109375 547 380.2109375 547 359.2109375 547 c 256,14,15
 339.2109375 547 339.2109375 547 323.7109375 530 c 128,-1,16
 308.2109375 513 308.2109375 513 308.2109375 475 c 0,17,18
 308.2109375 452 308.2109375 452 313.2109375 440.5 c 128,-1,19
 318.2109375 429 318.2109375 429 318.2109375 413 c 0,20,21
 318.2109375 399 318.2109375 399 302.2109375 392.5 c 128,-1,22
 286.2109375 386 286.2109375 386 275.2109375 386 c 0,23,24
 248.2109375 386 248.2109375 386 230.7109375 413 c 128,-1,25
 213.2109375 440 213.2109375 440 213.2109375 481 c 0,26,27
 213.2109375 514 213.2109375 514 223.7109375 542 c 128,-1,28
 234.2109375 570 234.2109375 570 254.2109375 591 c 128,-1,29
 274.2109375 612 274.2109375 612 301.2109375 624.5 c 128,-1,30
 328.2109375 637 328.2109375 637 360.2109375 637 c 0,31,32
 391.2109375 637 391.2109375 637 420.2109375 625 c 128,-1,33
 449.2109375 613 449.2109375 613 471.7109375 591 c 128,-1,34
 494.2109375 569 494.2109375 569 507.7109375 538 c 128,-1,35
 521.2109375 507 521.2109375 507 521.2109375 468 c 0,36,37
 521.2109375 420 521.2109375 420 508.7109375 373 c 128,-1,38
 496.2109375 326 496.2109375 326 477.2109375 284 c 128,-1,39
 458.2109375 242 458.2109375 242 436.7109375 206 c 128,-1,40
 415.2109375 170 415.2109375 170 396.7109375 143.5 c 128,-1,41
 378.2109375 117 378.2109375 117 365.7109375 100.5 c 128,-1,42
 353.2109375 84 353.2109375 84 353.2109375 81 c 1,43,44
 356.2109375 81 356.2109375 81 361.2109375 81 c 2,45,-1
 386.2109375 81 l 1,46,-1
 475.2109375 84 l 2,47,48
 493.2109375 85 493.2109375 85 502.7109375 81 c 128,-1,49
 512.2109375 77 512.2109375 77 516.2109375 69 c 128,-1,50
 520.2109375 61 520.2109375 61 520.2109375 51 c 128,-1,51
 520.2109375 41 520.2109375 41 520.2109375 30 c 0,52,53
 520.2109375 12 520.2109375 12 509.2109375 6 c 128,-1,54
 498.2109375 0 498.2109375 0 466.2109375 0 c 2,55,-1
 230.2109375 0 l 2,0,1
246.2109375 500 m 0,56,57
 247.2109375 512 247.2109375 512 245.2109375 519 c 128,-1,58
 243.2109375 526 243.2109375 526 240.2109375 525 c 0,59,60
 236.2109375 525 236.2109375 525 233.7109375 518.5 c 128,-1,61
 231.2109375 512 231.2109375 512 230.7109375 503.5 c 128,-1,62
 230.2109375 495 230.2109375 495 230.2109375 487 c 128,-1,63
 230.2109375 479 230.2109375 479 230.2109375 476 c 0,64,65
 232.2109375 463 232.2109375 463 235.2109375 461 c 0,66,67
 240.2109375 456 240.2109375 456 242.2109375 463 c 128,-1,68
 244.2109375 470 244.2109375 470 246.2109375 500 c 0,56,57
249.2109375 434 m 0,69,70
 249.2109375 441 249.2109375 441 241.2109375 441 c 256,71,72
 234.2109375 441 234.2109375 441 234.2109375 433 c 0,73,74
 234.2109375 431 234.2109375 431 236.2109375 428 c 128,-1,75
 238.2109375 425 238.2109375 425 240.2109375 425 c 0,76,77
 244.2109375 425 244.2109375 425 246.7109375 428 c 128,-1,78
 249.2109375 431 249.2109375 431 249.2109375 434 c 0,69,70
247.2109375 51 m 0,79,80
 255.2109375 70 255.2109375 70 253.2109375 71 c 0,81,82
 246.2109375 71 246.2109375 71 238.2109375 61.5 c 128,-1,83
 230.2109375 52 230.2109375 52 230.2109375 41 c 0,84,85
 230.2109375 33 230.2109375 33 234.2109375 33 c 0,86,87
 239.2109375 33 239.2109375 33 247.2109375 51 c 0,79,80
EndSplineSet
EndChar

StartChar: three
Encoding: 51 51 18
Width: 729
GlyphClass: 1
Flags: W
LayerCount: 2
Fore
SplineSet
417.5 498 m 0,0,1
 417.5 528 417.5 528 403.5 540.5 c 128,-1,2
 389.5 553 389.5 553 360.5 553 c 0,3,4
 326.5 553 326.5 553 310 527 c 128,-1,5
 293.5 501 293.5 501 293.5 440 c 0,6,7
 293.5 426 293.5 426 283 420 c 128,-1,8
 272.5 414 272.5 414 261.5 414 c 0,9,10
 199.5 414 199.5 414 198.5 505 c 0,11,12
 198.5 533 198.5 533 212.5 557 c 128,-1,13
 226.5 581 226.5 581 248.5 598.5 c 128,-1,14
 270.5 616 270.5 616 299 626.5 c 128,-1,15
 327.5 637 327.5 637 356.5 637 c 0,16,17
 401.5 637 401.5 637 433.5 625.5 c 128,-1,18
 465.5 614 465.5 614 486 594.5 c 128,-1,19
 506.5 575 506.5 575 517 550 c 128,-1,20
 527.5 525 527.5 525 527.5 499 c 0,21,22
 527.5 458 527.5 458 509.5 428 c 128,-1,23
 491.5 398 491.5 398 469.5 377 c 128,-1,24
 447.5 356 447.5 356 429.5 344 c 128,-1,25
 411.5 332 411.5 332 411.5 326 c 256,26,27
 411.5 320 411.5 320 430 313 c 128,-1,28
 448.5 306 448.5 306 471 290.5 c 128,-1,29
 493.5 275 493.5 275 512 247 c 128,-1,30
 530.5 219 530.5 219 530.5 171 c 0,31,32
 530.5 124 530.5 124 512.5 90.5 c 128,-1,33
 494.5 57 494.5 57 465.5 35.5 c 128,-1,34
 436.5 14 436.5 14 399.5 4 c 128,-1,35
 362.5 -6 362.5 -6 324.5 -6 c 0,36,37
 308.5 -6 308.5 -6 288 -1.5 c 128,-1,38
 267.5 3 267.5 3 249.5 13 c 128,-1,39
 231.5 23 231.5 23 219 37.5 c 128,-1,40
 206.5 52 206.5 52 206.5 73 c 0,41,42
 206.5 88 206.5 88 213 98 c 128,-1,43
 219.5 108 219.5 108 230.5 108 c 0,44,45
 243.5 108 243.5 108 254.5 103 c 128,-1,46
 265.5 98 265.5 98 276 92.5 c 128,-1,47
 286.5 87 286.5 87 299 82.5 c 128,-1,48
 311.5 78 311.5 78 326.5 78 c 0,49,50
 354.5 78 354.5 78 373 86 c 128,-1,51
 391.5 94 391.5 94 402 107.5 c 128,-1,52
 412.5 121 412.5 121 416.5 137.5 c 128,-1,53
 420.5 154 420.5 154 420.5 170 c 0,54,55
 420.5 203 420.5 203 402.5 225.5 c 128,-1,56
 384.5 248 384.5 248 354.5 248 c 0,57,58
 311.5 248 311.5 248 294 263.5 c 128,-1,59
 276.5 279 276.5 279 276.5 299 c 0,60,61
 276.5 318 276.5 318 298.5 342.5 c 128,-1,62
 320.5 367 320.5 367 347 392.5 c 128,-1,63
 373.5 418 373.5 418 395.5 445 c 128,-1,64
 417.5 472 417.5 472 417.5 498 c 0,0,1
240.5 527 m 0,65,66
 241.5 539 241.5 539 239.5 546.5 c 128,-1,67
 237.5 554 237.5 554 234.5 553 c 0,68,69
 230.5 553 230.5 553 227 547 c 128,-1,70
 223.5 541 223.5 541 221 532.5 c 128,-1,71
 218.5 524 218.5 524 217 516 c 128,-1,72
 215.5 508 215.5 508 216.5 504 c 0,73,74
 218.5 491 218.5 491 221.5 488 c 0,75,76
 226.5 483 226.5 483 232.5 490 c 128,-1,77
 238.5 497 238.5 497 240.5 527 c 0,65,66
234.5 462 m 0,78,79
 234.5 469 234.5 469 227.5 469 c 256,80,81
 220.5 469 220.5 469 220.5 461 c 0,82,83
 220.5 459 220.5 459 222.5 456 c 128,-1,84
 224.5 453 224.5 453 226.5 453 c 0,85,86
 230.5 453 230.5 453 232.5 456 c 128,-1,87
 234.5 459 234.5 459 234.5 462 c 0,78,79
310.5 298 m 0,88,89
 312.5 303 312.5 303 316.5 311 c 128,-1,90
 320.5 319 320.5 319 325.5 327 c 0,91,92
 329.5 333 329.5 333 330.5 338 c 128,-1,93
 331.5 343 331.5 343 329.5 343 c 0,94,95
 325.5 343 325.5 343 319.5 337 c 128,-1,96
 313.5 331 313.5 331 308 322.5 c 128,-1,97
 302.5 314 302.5 314 298 305.5 c 128,-1,98
 293.5 297 293.5 297 293.5 291 c 0,99,100
 293.5 282 293.5 282 299.5 282 c 256,101,102
 304.5 282 304.5 282 310.5 298 c 0,88,89
238.5 82 m 0,103,104
 238.5 104 238.5 104 229.5 94 c 0,105,106
 224.5 89 224.5 89 222.5 80 c 128,-1,107
 220.5 71 220.5 71 221.5 63 c 0,108,109
 222.5 59 222.5 59 224.5 57.5 c 128,-1,110
 226.5 56 226.5 56 228.5 56 c 256,111,112
 230.5 56 230.5 56 234.5 65 c 128,-1,113
 238.5 74 238.5 74 238.5 82 c 0,103,104
EndSplineSet
EndChar

StartChar: four
Encoding: 52 52 19
Width: 729
GlyphClass: 1
Flags: W
LayerCount: 2
Fore
SplineSet
474 0 m 0,0,1
 449 0 449 0 440.5 20 c 128,-1,2
 432 40 432 40 432 63 c 2,3,-1
 432 133 l 2,4,5
 432 145 432 145 419 145 c 2,6,-1
 234 145 l 2,7,8
 211 145 211 145 200.5 155.5 c 128,-1,9
 190 166 190 166 190 177 c 0,10,11
 190 182 190 182 198.5 214.5 c 128,-1,12
 207 247 207 247 220 293 c 128,-1,13
 233 339 233 339 248 391 c 128,-1,14
 263 443 263 443 277 489.5 c 128,-1,15
 291 536 291 536 301 568.5 c 128,-1,16
 311 601 311 601 314 606 c 0,17,18
 322 621 322 621 332.5 625 c 128,-1,19
 343 629 343 629 353 629 c 0,20,21
 358 629 358 629 367.5 627 c 128,-1,22
 377 625 377 625 385.5 621 c 128,-1,23
 394 617 394 617 401 612 c 128,-1,24
 408 607 408 607 408 601 c 256,25,26
 408 595 408 595 402.5 572 c 128,-1,27
 397 549 397 549 389 515.5 c 128,-1,28
 381 482 381 482 371 443 c 128,-1,29
 361 404 361 404 350.5 367 c 128,-1,30
 340 330 340 330 331 298.5 c 128,-1,31
 322 267 322 267 315 249 c 0,32,33
 313 244 313 244 312 241 c 128,-1,34
 311 238 311 238 311 234 c 0,35,36
 311 229 311 229 320 229 c 2,37,-1
 419 229 l 2,38,39
 427 229 427 229 429.5 231.5 c 128,-1,40
 432 234 432 234 432 241 c 2,41,-1
 432 549 l 2,42,43
 432 575 432 575 436.5 590.5 c 128,-1,44
 441 606 441 606 448.5 615.5 c 128,-1,45
 456 625 456 625 465 628 c 128,-1,46
 474 631 474 631 484 631 c 0,47,48
 512 631 512 631 525.5 611.5 c 128,-1,49
 539 592 539 592 539 563 c 2,50,-1
 539 72 l 2,51,52
 539 50 539 50 533.5 36 c 128,-1,53
 528 22 528 22 519 14 c 128,-1,54
 510 6 510 6 498 3 c 128,-1,55
 486 0 486 0 474 0 c 0,0,1
453 554 m 256,56,57
 457 554 457 554 460.5 560 c 128,-1,58
 464 566 464 566 466.5 574.5 c 128,-1,59
 469 583 469 583 470.5 591.5 c 128,-1,60
 472 600 472 600 472 605 c 0,61,62
 472 612 472 612 465 612 c 0,63,64
 462 612 462 612 459 607.5 c 128,-1,65
 456 603 456 603 453.5 596.5 c 128,-1,66
 451 590 451 590 449 583.5 c 128,-1,67
 447 577 447 577 447 571 c 0,68,69
 447 565 447 565 448 559.5 c 128,-1,70
 449 554 449 554 453 554 c 256,56,57
235 220 m 0,71,72
 239 233 239 233 241.5 240.5 c 128,-1,73
 244 248 244 248 243 257 c 0,74,75
 243 265 243 265 238 265 c 0,76,77
 235 265 235 265 231 257.5 c 128,-1,78
 227 250 227 250 223.5 239.5 c 128,-1,79
 220 229 220 229 218 219 c 128,-1,80
 216 209 216 209 216 204 c 0,81,82
 216 193 216 193 221 193 c 0,83,84
 229 193 229 193 235 220 c 0,71,72
224 173 m 0,85,86
 224 183 224 183 216 183 c 256,87,88
 208 183 208 183 208 173 c 0,89,90
 208 171 208 171 209 170 c 0,91,92
 213 166 213 166 216 166 c 0,93,94
 218 166 218 166 221 168 c 128,-1,95
 224 170 224 170 224 173 c 0,85,86
466 30 m 0,96,97
 463 36 463 36 460 38.5 c 128,-1,98
 457 41 457 41 457 46 c 0,99,100
 457 50 457 50 456 54 c 0,101,102
 456 62 456 62 451 62 c 0,103,104
 445 62 445 62 444 51 c 0,105,106
 444 43 444 43 449 29 c 128,-1,107
 454 15 454 15 460 15 c 0,108,109
 463 15 463 15 466 20 c 128,-1,110
 469 25 469 25 466 30 c 0,96,97
EndSplineSet
EndChar

StartChar: five
Encoding: 53 53 20
Width: 729
GlyphClass: 1
Flags: W
LayerCount: 2
Fore
SplineSet
262 -8 m 0,0,1
 239 -8 239 -8 226.5 -1.5 c 128,-1,2
 214 5 214 5 208 14.5 c 128,-1,3
 202 24 202 24 200.5 33.5 c 128,-1,4
 199 43 199 43 199 49 c 0,5,6
 199 63 199 63 204.5 71.5 c 128,-1,7
 210 80 210 80 219 83.5 c 128,-1,8
 228 87 228 87 239.5 87.5 c 128,-1,9
 251 88 251 88 262 88 c 0,10,11
 351 88 351 88 388.5 115 c 128,-1,12
 426 142 426 142 426 201 c 0,13,14
 426 257 426 257 399.5 283.5 c 128,-1,15
 373 310 373 310 323 310 c 0,16,17
 304 310 304 310 291 307 c 128,-1,18
 278 304 278 304 269 300.5 c 128,-1,19
 260 297 260 297 252 294 c 128,-1,20
 244 291 244 291 233 291 c 256,21,22
 223 291 223 291 217 300 c 128,-1,23
 211 309 211 309 208 322 c 128,-1,24
 205 335 205 335 204.5 350 c 128,-1,25
 204 365 204 365 204 375 c 2,26,-1
 204 582 l 2,27,28
 204 610 204 610 217.5 620.5 c 128,-1,29
 231 631 231 631 251 631 c 2,30,-1
 489 631 l 2,31,32
 497 631 497 631 504.5 623 c 128,-1,33
 512 615 512 615 512 601 c 0,34,35
 512 583 512 583 504.5 566 c 128,-1,36
 497 549 497 549 487 549 c 2,37,-1
 315 548 l 2,38,39
 310 548 310 548 308 543.5 c 128,-1,40
 306 539 306 539 306 534 c 2,41,-1
 306 409 l 2,42,43
 306 393 306 393 309 390.5 c 128,-1,44
 312 388 312 388 319 388 c 2,45,-1
 344 389 l 2,46,47
 385 391 385 391 419.5 380.5 c 128,-1,48
 454 370 454 370 478.5 346.5 c 128,-1,49
 503 323 503 323 516.5 287 c 128,-1,50
 530 251 530 251 530 202 c 0,51,52
 530 162 530 162 514 124.5 c 128,-1,53
 498 87 498 87 464.5 57.5 c 128,-1,54
 431 28 431 28 381 10 c 128,-1,55
 331 -8 331 -8 262 -8 c 0,0,1
232 413 m 0,56,57
 232 432 232 432 231 442.5 c 128,-1,58
 230 453 230 453 224 446 c 0,59,60
 221 443 221 443 219 431 c 128,-1,61
 217 419 217 419 217 404.5 c 128,-1,62
 217 390 217 390 219 378 c 128,-1,63
 221 366 221 366 224 362 c 256,64,65
 227 359 227 359 228 359 c 0,66,67
 232 360 232 360 232 413 c 0,56,57
241 334 m 0,68,69
 241 344 241 344 235 344 c 0,70,71
 224 344 224 344 224 330 c 0,72,73
 224 323 224 323 232 323 c 0,74,75
 237 323 237 323 239 327.5 c 128,-1,76
 241 332 241 332 241 334 c 0,68,69
231 49 m 0,77,78
 230 51 230 51 230.5 55 c 128,-1,79
 231 59 231 59 231.5 63 c 128,-1,80
 232 67 232 67 231 69.5 c 128,-1,81
 230 72 230 72 226 72 c 0,82,83
 221 72 221 72 219 63 c 128,-1,84
 217 54 217 54 218 43 c 256,85,86
 219 32 219 32 222 22 c 128,-1,87
 225 12 225 12 231 12 c 0,88,89
 233 12 233 12 234.5 23.5 c 128,-1,90
 236 35 236 35 231 49 c 0,77,78
EndSplineSet
EndChar

StartChar: six
Encoding: 54 54 21
Width: 729
GlyphClass: 1
Flags: W
LayerCount: 2
Fore
SplineSet
366 -11 m 0,0,1
 313 -11 313 -11 275.5 9 c 128,-1,2
 238 29 238 29 214.5 62.5 c 128,-1,3
 191 96 191 96 180 139.5 c 128,-1,4
 169 183 169 183 169 230 c 0,5,6
 169 282 169 282 177.5 336 c 128,-1,7
 186 390 186 390 203.5 439 c 128,-1,8
 221 488 221 488 249 530 c 128,-1,9
 277 572 277 572 317 601 c 0,10,11
 346 621 346 621 374.5 628 c 128,-1,12
 403 635 403 635 425 635 c 0,13,14
 430 635 430 635 438 633.5 c 128,-1,15
 446 632 446 632 453 629 c 128,-1,16
 460 626 460 626 465.5 620.5 c 128,-1,17
 471 615 471 615 471 607 c 0,18,19
 471 593 471 593 466 581 c 128,-1,20
 461 569 461 569 434 560 c 0,21,22
 407 551 407 551 385.5 533.5 c 128,-1,23
 364 516 364 516 347 494 c 128,-1,24
 330 472 330 472 318 446 c 128,-1,25
 306 420 306 420 296 394 c 0,26,27
 291 382 291 382 287 363 c 128,-1,28
 283 344 283 344 283 333 c 0,29,30
 283 323 283 323 287 323 c 0,31,32
 290 323 290 323 297.5 332.5 c 128,-1,33
 305 342 305 342 318 353.5 c 128,-1,34
 331 365 331 365 350.5 374.5 c 128,-1,35
 370 384 370 384 398 384 c 0,36,37
 477 384 477 384 518.5 331 c 128,-1,38
 560 278 560 278 560 191 c 0,39,40
 560 149 560 149 544.5 112.5 c 128,-1,41
 529 76 529 76 502.5 48 c 128,-1,42
 476 20 476 20 440.5 4.5 c 128,-1,43
 405 -11 405 -11 366 -11 c 0,0,1
361 82 m 0,44,45
 404 82 404 82 430 109 c 128,-1,46
 456 136 456 136 456 195 c 0,47,48
 456 212 456 212 453 229.5 c 128,-1,49
 450 247 450 247 442 261 c 128,-1,50
 434 275 434 275 420 284 c 128,-1,51
 406 293 406 293 384 293 c 0,52,53
 365 293 365 293 345 282.5 c 128,-1,54
 325 272 325 272 309.5 256.5 c 128,-1,55
 294 241 294 241 284.5 221 c 128,-1,56
 275 201 275 201 275 182 c 0,57,58
 275 140 275 140 293 111 c 128,-1,59
 311 82 311 82 361 82 c 0,44,45
232 110 m 0,60,61
 229 121 229 121 225 130.5 c 128,-1,62
 221 140 221 140 217 152 c 0,63,64
 215 158 215 158 213.5 163 c 128,-1,65
 212 168 212 168 208 167 c 0,66,67
 205 167 205 167 203 159 c 0,68,69
 202 152 202 152 205.5 138.5 c 128,-1,70
 209 125 209 125 214.5 112.5 c 128,-1,71
 220 100 220 100 225.5 91.5 c 128,-1,72
 231 83 231 83 233 83 c 0,73,74
 238 83 238 83 238 88 c 0,75,76
 238 92 238 92 236 97.5 c 128,-1,77
 234 103 234 103 232 110 c 0,60,61
EndSplineSet
EndChar

StartChar: seven
Encoding: 55 55 22
Width: 729
GlyphClass: 1
Flags: W
LayerCount: 2
Fore
SplineSet
284 -2 m 0,0,1
 270 -2 270 -2 260 6.5 c 128,-1,2
 250 15 250 15 250 26 c 0,3,4
 250 35 250 35 260.5 72 c 128,-1,5
 271 109 271 109 286 160 c 128,-1,6
 301 211 301 211 319.5 269.5 c 128,-1,7
 338 328 338 328 355 380 c 128,-1,8
 372 432 372 432 385.5 472 c 128,-1,9
 399 512 399 512 404 526 c 0,10,11
 409 541 409 541 397 542 c 2,12,-1
 264 542 l 2,13,14
 236 542 236 542 220.5 550.5 c 128,-1,15
 205 559 205 559 205 587 c 256,16,17
 205 615 205 615 222 623 c 128,-1,18
 239 631 239 631 266 631 c 2,19,-1
 482 631 l 2,20,21
 499 631 499 631 511.5 620 c 128,-1,22
 524 609 524 609 524 595 c 0,23,24
 524 585 524 585 512.5 542 c 128,-1,25
 501 499 501 499 483 439.5 c 128,-1,26
 465 380 465 380 443 311 c 128,-1,27
 421 242 421 242 400.5 180.5 c 128,-1,28
 380 119 380 119 364 73 c 128,-1,29
 348 27 348 27 339 11 c 0,30,31
 337 6 337 6 322.5 2 c 128,-1,32
 308 -2 308 -2 284 -2 c 0,0,1
238 608 m 0,33,34
 238 616 238 616 233 616 c 256,35,36
 228 616 228 616 221 608.5 c 128,-1,37
 214 601 214 601 214 590 c 0,38,39
 214 570 214 570 223 569 c 0,40,41
 226 569 226 569 229 574 c 128,-1,42
 232 579 232 579 234 585 c 128,-1,43
 236 591 236 591 237 597.5 c 128,-1,44
 238 604 238 604 238 608 c 0,33,34
284 39 m 0,45,46
 286 49 286 49 288 60 c 128,-1,47
 290 71 290 71 292 75 c 0,48,49
 296 80 296 80 294.5 85 c 128,-1,50
 293 90 293 90 288 90 c 0,51,52
 285 90 285 90 281.5 83 c 128,-1,53
 278 76 278 76 275.5 66 c 128,-1,54
 273 56 273 56 271 46.5 c 128,-1,55
 269 37 269 37 269 32 c 0,56,57
 269 20 269 20 274 19 c 256,58,59
 279 20 279 20 284 39 c 0,45,46
EndSplineSet
EndChar

StartChar: eight
Encoding: 56 56 23
Width: 729
GlyphClass: 1
Flags: W
LayerCount: 2
Fore
SplineSet
356.5 -6 m 0,0,1
 315.5 -6 315.5 -6 281 9 c 128,-1,2
 246.5 24 246.5 24 222.5 48 c 128,-1,3
 198.5 72 198.5 72 185 103 c 128,-1,4
 171.5 134 171.5 134 171.5 167 c 0,5,6
 171.5 206 171.5 206 189 233.5 c 128,-1,7
 206.5 261 206.5 261 227.5 280.5 c 128,-1,8
 248.5 300 248.5 300 266 313 c 128,-1,9
 283.5 326 283.5 326 283.5 333 c 0,10,11
 283.5 341 283.5 341 267.5 350 c 128,-1,12
 251.5 359 251.5 359 232 375.5 c 128,-1,13
 212.5 392 212.5 392 197 417 c 128,-1,14
 181.5 442 181.5 442 181.5 482 c 0,15,16
 181.5 515 181.5 515 196 543.5 c 128,-1,17
 210.5 572 210.5 572 236 593.5 c 128,-1,18
 261.5 615 261.5 615 294.5 627.5 c 128,-1,19
 327.5 640 327.5 640 363.5 640 c 0,20,21
 390.5 640 390.5 640 421 629 c 128,-1,22
 451.5 618 451.5 618 477.5 598.5 c 128,-1,23
 503.5 579 503.5 579 520.5 549 c 128,-1,24
 537.5 519 537.5 519 537.5 480 c 0,25,26
 537.5 442 537.5 442 523 419 c 128,-1,27
 508.5 396 508.5 396 491.5 382.5 c 128,-1,28
 474.5 369 474.5 369 460.5 361.5 c 128,-1,29
 446.5 354 446.5 354 446.5 348 c 0,30,31
 446.5 339 446.5 339 464 327 c 128,-1,32
 481.5 315 481.5 315 502.5 296.5 c 128,-1,33
 523.5 278 523.5 278 540.5 248 c 128,-1,34
 557.5 218 557.5 218 557.5 173 c 0,35,36
 557.5 139 557.5 139 542 107 c 128,-1,37
 526.5 75 526.5 75 498.5 49.5 c 128,-1,38
 470.5 24 470.5 24 434.5 9 c 128,-1,39
 398.5 -6 398.5 -6 356.5 -6 c 0,0,1
225.5 524 m 0,40,41
 226.5 530 226.5 530 231.5 537.5 c 128,-1,42
 236.5 545 236.5 545 242.5 551.5 c 128,-1,43
 248.5 558 248.5 558 254 563.5 c 128,-1,44
 259.5 569 259.5 569 262.5 572 c 0,45,46
 273.5 584 273.5 584 274.5 592 c 0,47,48
 274.5 596 274.5 596 270.5 596 c 0,49,50
 261.5 596 261.5 596 250.5 586.5 c 128,-1,51
 239.5 577 239.5 577 230.5 563 c 128,-1,52
 221.5 549 221.5 549 215 535 c 128,-1,53
 208.5 521 208.5 521 208.5 513 c 256,54,55
 208.5 505 208.5 505 212.5 505 c 0,56,57
 220.5 505 220.5 505 225.5 524 c 0,40,41
363.5 380 m 0,58,59
 376.5 380 376.5 380 389.5 388.5 c 128,-1,60
 402.5 397 402.5 397 412.5 411.5 c 128,-1,61
 422.5 426 422.5 426 429.5 444 c 128,-1,62
 436.5 462 436.5 462 436.5 480 c 0,63,64
 436.5 516 436.5 516 416 542 c 128,-1,65
 395.5 568 395.5 568 362.5 568 c 256,66,67
 329.5 568 329.5 568 306 545.5 c 128,-1,68
 282.5 523 282.5 523 282.5 484 c 0,69,70
 282.5 470 282.5 470 287.5 452 c 128,-1,71
 292.5 434 292.5 434 303 417.5 c 128,-1,72
 313.5 401 313.5 401 329 390.5 c 128,-1,73
 344.5 380 344.5 380 363.5 380 c 0,58,59
214.5 480 m 0,74,75
 214.5 489 214.5 489 207.5 489 c 0,76,77
 202.5 489 202.5 489 201 486 c 128,-1,78
 199.5 483 199.5 483 199.5 480 c 0,79,80
 199.5 478 199.5 478 200.5 476 c 0,81,82
 202.5 472 202.5 472 206.5 472 c 0,83,84
 208.5 472 208.5 472 211.5 474 c 128,-1,85
 214.5 476 214.5 476 214.5 480 c 0,74,75
358.5 75 m 0,86,87
 407.5 75 407.5 75 425.5 100.5 c 128,-1,88
 443.5 126 443.5 126 443.5 173 c 0,89,90
 443.5 192 443.5 192 435.5 213 c 128,-1,91
 427.5 234 427.5 234 416 251.5 c 128,-1,92
 404.5 269 404.5 269 391 280.5 c 128,-1,93
 377.5 292 377.5 292 366.5 292 c 0,94,95
 351.5 292 351.5 292 336 280 c 128,-1,96
 320.5 268 320.5 268 308 250 c 128,-1,97
 295.5 232 295.5 232 288 210 c 128,-1,98
 280.5 188 280.5 188 280.5 167 c 0,99,100
 280.5 151 280.5 151 286 134.5 c 128,-1,101
 291.5 118 291.5 118 301.5 104.5 c 128,-1,102
 311.5 91 311.5 91 326 83 c 128,-1,103
 340.5 75 340.5 75 358.5 75 c 0,86,87
218.5 227 m 256,104,105
 221.5 235 221.5 235 218.5 238.5 c 128,-1,106
 215.5 242 215.5 242 208.5 234 c 0,107,108
 205.5 231 205.5 231 200.5 223.5 c 128,-1,109
 195.5 216 195.5 216 191 207 c 128,-1,110
 186.5 198 186.5 198 183 188 c 128,-1,111
 179.5 178 179.5 178 179.5 170 c 0,112,113
 178.5 162 178.5 162 182 154 c 128,-1,114
 185.5 146 185.5 146 192.5 146 c 0,115,116
 200.5 146 200.5 146 199.5 159 c 128,-1,117
 198.5 172 198.5 172 200.5 183 c 0,118,119
 203.5 198 203.5 198 209.5 208.5 c 128,-1,120
 215.5 219 215.5 219 218.5 227 c 256,104,105
EndSplineSet
EndChar

StartChar: nine
Encoding: 57 57 24
Width: 729
GlyphClass: 1
Flags: W
LayerCount: 2
Fore
SplineSet
363 638 m 0,0,1
 419 638 419 638 457 616 c 128,-1,2
 495 594 495 594 517.5 559 c 128,-1,3
 540 524 540 524 549.5 481 c 128,-1,4
 559 438 559 438 559 396 c 0,5,6
 559 344 559 344 547.5 291 c 128,-1,7
 536 238 536 238 515 189.5 c 128,-1,8
 494 141 494 141 465.5 101 c 128,-1,9
 437 61 437 61 403 35 c 0,10,11
 375 13 375 13 346 2.5 c 128,-1,12
 317 -8 317 -8 294 -8 c 0,13,14
 276 -8 276 -8 263 -1.5 c 128,-1,15
 250 5 250 5 250 22 c 0,16,17
 250 37 250 37 258.5 53 c 128,-1,18
 267 69 267 69 294 78 c 128,-1,19
 321 87 321 87 342 102.5 c 128,-1,20
 363 118 363 118 379.5 138.5 c 128,-1,21
 396 159 396 159 407.5 183 c 128,-1,22
 419 207 419 207 428 232 c 0,23,24
 433 244 433 244 437.5 263.5 c 128,-1,25
 442 283 442 283 442 294 c 0,26,27
 442 304 442 304 438 304 c 0,28,29
 435 304 435 304 428 296 c 128,-1,30
 421 288 421 288 408 278.5 c 128,-1,31
 395 269 395 269 374.5 261 c 128,-1,32
 354 253 354 253 323 253 c 0,33,34
 251 253 251 253 210.5 302 c 128,-1,35
 170 351 170 351 170 435 c 0,36,37
 170 474 170 474 182.5 511 c 128,-1,38
 195 548 195 548 219.5 576 c 128,-1,39
 244 604 244 604 280 621 c 128,-1,40
 316 638 316 638 363 638 c 0,0,1
368 548 m 0,41,42
 325 548 325 548 299 520.5 c 128,-1,43
 273 493 273 493 273 442 c 0,44,45
 273 399 273 399 292 373 c 128,-1,46
 311 347 311 347 344 347 c 0,47,48
 364 347 364 347 383.5 355.5 c 128,-1,49
 403 364 403 364 417 377 c 128,-1,50
 431 390 431 390 440.5 408 c 128,-1,51
 450 426 450 426 450 444 c 0,52,53
 450 466 450 466 446.5 484.5 c 128,-1,54
 443 503 443 503 433.5 517 c 128,-1,55
 424 531 424 531 408.5 539.5 c 128,-1,56
 393 548 393 548 368 548 c 0,41,42
221 498 m 0,57,58
 223 508 223 508 226 515.5 c 128,-1,59
 229 523 229 523 229 529 c 0,60,61
 229 536 229 536 221 537 c 0,62,63
 218 537 218 537 212.5 523.5 c 128,-1,64
 207 510 207 510 202.5 491.5 c 128,-1,65
 198 473 198 473 195 454.5 c 128,-1,66
 192 436 192 436 194 425 c 0,67,68
 197 413 197 413 202 413 c 256,69,70
 207 413 207 413 209.5 420.5 c 128,-1,71
 212 428 212 428 214 436 c 0,72,73
 218 453 218 453 218 468 c 128,-1,74
 218 483 218 483 221 498 c 0,57,58
217 389 m 0,75,76
 217 394 217 394 215.5 397.5 c 128,-1,77
 214 401 214 401 211 401 c 0,78,79
 206 401 206 401 202 398 c 128,-1,80
 198 395 198 395 198 385 c 0,81,82
 198 382 198 382 200.5 379 c 128,-1,83
 203 376 203 376 207 376 c 0,84,85
 213 376 213 376 215 381.5 c 128,-1,86
 217 387 217 387 217 389 c 0,75,76
291 59 m 2,87,88
 291 62 291 62 286.5 61 c 128,-1,89
 282 60 282 60 277 56 c 128,-1,90
 272 52 272 52 267.5 45 c 128,-1,91
 263 38 263 38 263 29 c 0,92,93
 263 27 263 27 265 20.5 c 128,-1,94
 267 14 267 14 271 14 c 0,95,96
 274 14 274 14 277.5 21 c 128,-1,97
 281 28 281 28 284 36.5 c 128,-1,98
 287 45 287 45 288 48.5 c 0,99,100
 291 59 l 2,87,88
EndSplineSet
EndChar

StartChar: colon
Encoding: 58 58 25
Width: 729
GlyphClass: 1
Flags: W
LayerCount: 2
Fore
SplineSet
301 55 m 0,0,1
 301 93 301 93 319.5 108.5 c 128,-1,2
 338 124 338 124 363 124 c 0,3,4
 390 124 390 124 409 108.5 c 128,-1,5
 428 93 428 93 428 55 c 0,6,7
 428 18 428 18 409 2 c 128,-1,8
 390 -14 390 -14 363 -14 c 0,9,10
 337 -14 337 -14 319 2 c 128,-1,11
 301 18 301 18 301 55 c 0,0,1
301 494 m 0,12,13
 301 533 301 533 319.5 548 c 128,-1,14
 338 563 338 563 363 563 c 0,15,16
 390 563 390 563 409 547.5 c 128,-1,17
 428 532 428 532 428 494 c 0,18,19
 428 457 428 457 409 440.5 c 128,-1,20
 390 424 390 424 363 424 c 0,21,22
 337 424 337 424 319 440.5 c 128,-1,23
 301 457 301 457 301 494 c 0,12,13
EndSplineSet
EndChar

StartChar: semicolon
Encoding: 59 59 26
Width: 729
GlyphClass: 1
Flags: W
LayerCount: 2
Fore
SplineSet
436 108 m 1,0,1
 427 72 427 72 413 30 c 128,-1,2
 399 -12 399 -12 382 -53.5 c 128,-1,3
 365 -95 365 -95 348 -132 c 1,4,-1
 281 -132 l 1,5,6
 288 -103 288 -103 295.5 -70.5 c 128,-1,7
 303 -38 303 -38 310.5 -4.5 c 128,-1,8
 318 29 318 29 323.5 60.5 c 128,-1,9
 329 92 329 92 333 119 c 1,10,-1
 429 119 l 1,11,-1
 436 108 l 1,0,1
321 494 m 0,12,13
 321 533 321 533 339.5 548 c 128,-1,14
 358 563 358 563 383 563 c 0,15,16
 410 563 410 563 429 547.5 c 128,-1,17
 448 532 448 532 448 494 c 0,18,19
 448 457 448 457 429 440.5 c 128,-1,20
 410 424 410 424 383 424 c 0,21,22
 357 424 357 424 339 440.5 c 128,-1,23
 321 457 321 457 321 494 c 0,12,13
EndSplineSet
EndChar

StartChar: less
Encoding: 60 60 27
Width: 729
GlyphClass: 1
Flags: W
LayerCount: 2
Fore
SplineSet
606 119 m 1,0,-1
 123 331 l 1,1,-1
 123 382 l 1,2,-1
 606 623 l 1,3,-1
 606 543 l 1,4,-1
 219 360 l 1,5,-1
 606 199 l 1,6,-1
 606 119 l 1,0,-1
EndSplineSet
EndChar

StartChar: equal
Encoding: 61 61 28
Width: 729
GlyphClass: 1
Flags: W
LayerCount: 2
Fore
SplineSet
130 426 m 1,0,-1
 130 499 l 1,1,-1
 599 499 l 1,2,-1
 599 426 l 1,3,-1
 130 426 l 1,0,-1
130 222 m 1,4,-1
 130 295 l 1,5,-1
 599 295 l 1,6,-1
 599 222 l 1,7,-1
 130 222 l 1,4,-1
EndSplineSet
EndChar

StartChar: greater
Encoding: 62 62 29
Width: 729
GlyphClass: 1
Flags: W
LayerCount: 2
Fore
SplineSet
123 199 m 1,0,-1
 509 359 l 1,1,-1
 123 543 l 1,2,-1
 123 623 l 1,3,-1
 606 382 l 1,4,-1
 606 331 l 1,5,-1
 123 119 l 1,6,-1
 123 199 l 1,0,-1
EndSplineSet
EndChar

StartChar: question
Encoding: 63 63 30
Width: 729
GlyphClass: 1
Flags: W
LayerCount: 2
Fore
SplineSet
292.5 204 m 6,0,1
 292.5 243 292.5 243 300.5 271 c 132,-1,2
 308.5 299 308.5 299 327.5 324.5 c 132,-1,3
 346.5 350 346.5 350 378.5 378 c 4,4,5
 418.5 412 418.5 412 440.5 434.5 c 132,-1,6
 462.5 457 462.5 457 472 478.5 c 132,-1,7
 481.5 500 481.5 500 481.5 530 c 4,8,9
 481.5 579 481.5 579 449.5 606 c 132,-1,10
 417.5 633 417.5 633 357.5 633 c 4,11,12
 307.5 633 307.5 633 268.5 620 c 132,-1,13
 229.5 607 229.5 607 193.5 590 c 5,14,-1
 161.5 662 l 5,15,16
 202.5 684 202.5 684 252.5 698 c 132,-1,17
 302.5 712 302.5 712 363.5 712 c 4,18,19
 460.5 712 460.5 712 514 663.5 c 132,-1,20
 567.5 615 567.5 615 567.5 532 c 4,21,22
 567.5 486 567.5 486 552.5 454 c 132,-1,23
 537.5 422 537.5 422 510.5 395 c 132,-1,24
 483.5 368 483.5 368 446.5 337 c 4,25,26
 412.5 308 412.5 308 394.5 286.5 c 132,-1,27
 376.5 265 376.5 265 370.5 244 c 132,-1,28
 364.5 223 364.5 223 364.5 194 c 6,29,-1
 364.5 176 l 5,30,-1
 292.5 176 l 5,31,-1
 292.5 204 l 6,0,1
269.5 26 m 4,32,33
 269.5 64 269.5 64 287.5 79 c 132,-1,34
 305.5 94 305.5 94 332.5 94 c 4,35,36
 358.5 94 358.5 94 377 78.5 c 132,-1,37
 395.5 63 395.5 63 395.5 26 c 4,38,39
 395.5 -11 395.5 -11 377 -27.5 c 132,-1,40
 358.5 -44 358.5 -44 332.5 -44 c 4,41,42
 304.5 -44 304.5 -44 287 -27.5 c 132,-1,43
 269.5 -11 269.5 -11 269.5 26 c 4,32,33
EndSplineSet
EndChar

StartChar: bracketleft
Encoding: 91 91 31
Width: 729
GlyphClass: 1
Flags: W
LayerCount: 2
Fore
SplineSet
266.987304688 -72 m 0,0,1
 263.987304688 -69 263.987304688 -69 262.487304688 -58 c 128,-1,2
 260.987304688 -47 260.987304688 -47 259.987304688 -12.5 c 128,-1,3
 258.987304688 22 258.987304688 22 258.987304688 89 c 128,-1,4
 258.987304688 156 258.987304688 156 258.987304688 272 c 0,5,6
 258.987304688 355 258.987304688 355 258.987304688 414.5 c 128,-1,7
 258.987304688 474 258.987304688 474 258.987304688 515.5 c 128,-1,8
 258.987304688 557 258.987304688 557 259.987304688 583.5 c 128,-1,9
 260.987304688 610 260.987304688 610 262.987304688 626 c 128,-1,10
 264.987304688 642 264.987304688 642 267.987304688 650 c 128,-1,11
 270.987304688 658 270.987304688 658 275.987304688 665 c 0,12,13
 279.987304688 670 279.987304688 670 291.987304688 673 c 128,-1,14
 303.987304688 676 303.987304688 676 319.987304688 677.5 c 128,-1,15
 335.987304688 679 335.987304688 679 355.987304688 679.5 c 128,-1,16
 375.987304688 680 375.987304688 680 395.987304688 680 c 0,17,18
 437.987304688 680 437.987304688 680 458.987304688 665.5 c 128,-1,19
 479.987304688 651 479.987304688 651 460.987304688 631 c 0,20,21
 455.987304688 625 455.987304688 625 441.487304688 620.5 c 128,-1,22
 426.987304688 616 426.987304688 616 395.987304688 616 c 0,23,24
 381.987304688 616 381.987304688 616 373.987304688 614 c 128,-1,25
 365.987304688 612 365.987304688 612 362.987304688 607 c 128,-1,26
 359.987304688 602 359.987304688 602 359.987304688 593.5 c 128,-1,27
 359.987304688 585 359.987304688 585 359.987304688 570 c 2,28,-1
 359.987304688 -20 l 1,29,-1
 378.987304688 -20 l 2,30,31
 422.987304688 -20 422.987304688 -20 437.487304688 -28 c 128,-1,32
 451.987304688 -36 451.987304688 -36 451.987304688 -57 c 0,33,34
 451.987304688 -67 451.987304688 -67 448.487304688 -73 c 128,-1,35
 444.987304688 -79 444.987304688 -79 434.487304688 -81.5 c 128,-1,36
 423.987304688 -84 423.987304688 -84 405.487304688 -84.5 c 128,-1,37
 386.987304688 -85 386.987304688 -85 355.987304688 -85 c 0,38,39
 327.987304688 -85 327.987304688 -85 312.487304688 -85 c 128,-1,40
 296.987304688 -85 296.987304688 -85 287.487304688 -83.5 c 128,-1,41
 277.987304688 -82 277.987304688 -82 273.987304688 -79.5 c 128,-1,42
 269.987304688 -77 269.987304688 -77 266.987304688 -72 c 0,0,1
304.987304688 631 m 256,43,44
 306.987304688 639 306.987304688 639 315.987304688 645 c 128,-1,45
 324.987304688 651 324.987304688 651 331.987304688 651 c 0,46,47
 340.987304688 651 340.987304688 651 340.987304688 658 c 0,48,49
 340.987304688 659 340.987304688 659 339.487304688 659 c 128,-1,50
 337.987304688 659 337.987304688 659 331.987304688 659 c 0,51,52
 316.987304688 659 316.987304688 659 302.487304688 649 c 128,-1,53
 287.987304688 639 287.987304688 639 287.987304688 625 c 0,54,55
 287.987304688 613 287.987304688 613 291.987304688 612 c 256,56,57
 295.987304688 612 295.987304688 612 299.487304688 617.5 c 128,-1,58
 302.987304688 623 302.987304688 623 304.987304688 631 c 256,43,44
EndSplineSet

EndChar

StartChar: backslash
Encoding: 92 92 32
Width: 729
GlyphClass: 1
Flags: W
LayerCount: 2
Fore
SplineSet
248.5 682 m 0,0,1
 255.5 682 255.5 682 274 645.5 c 128,-1,2
 292.5 609 292.5 609 316.5 554 c 128,-1,3
 340.5 499 340.5 499 367 433 c 128,-1,4
 393.5 367 393.5 367 417 307 c 128,-1,5
 440.5 247 440.5 247 457.5 202.5 c 128,-1,6
 474.5 158 474.5 158 480.5 145 c 0,7,8
 486.5 132 486.5 132 498.5 104 c 128,-1,9
 510.5 76 510.5 76 522.5 45.5 c 128,-1,10
 534.5 15 534.5 15 543 -11 c 128,-1,11
 551.5 -37 551.5 -37 551.5 -45 c 0,12,13
 551.5 -52 551.5 -52 546.5 -58.5 c 128,-1,14
 541.5 -65 541.5 -65 533.5 -69.5 c 128,-1,15
 525.5 -74 525.5 -74 517 -76.5 c 128,-1,16
 508.5 -79 508.5 -79 501.5 -79 c 0,17,18
 487.5 -79 487.5 -79 475.5 -69 c 128,-1,19
 463.5 -59 463.5 -59 456.5 -48 c 0,20,21
 450.5 -38 450.5 -38 435 -3 c 128,-1,22
 419.5 32 419.5 32 399 81.5 c 128,-1,23
 378.5 131 378.5 131 354 191.5 c 128,-1,24
 329.5 252 329.5 252 305 313.5 c 128,-1,25
 280.5 375 280.5 375 257.5 433.5 c 128,-1,26
 234.5 492 234.5 492 217 538 c 128,-1,27
 199.5 584 199.5 584 188.5 613 c 128,-1,28
 177.5 642 177.5 642 177.5 645 c 0,29,30
 177.5 654 177.5 654 187 661.5 c 128,-1,31
 196.5 669 196.5 669 208.5 673.5 c 128,-1,32
 220.5 678 220.5 678 232.5 680 c 128,-1,33
 244.5 682 244.5 682 248.5 682 c 0,0,1
222.5 641 m 0,34,35
 220.5 646 220.5 646 213 644 c 128,-1,36
 205.5 642 205.5 642 205.5 635 c 0,37,38
 205.5 629 205.5 629 210.5 614 c 128,-1,39
 215.5 599 215.5 599 222.5 583 c 128,-1,40
 229.5 567 229.5 567 236 553.5 c 128,-1,41
 242.5 540 242.5 540 244.5 536 c 0,42,43
 247.5 531 247.5 531 252.5 530.5 c 128,-1,44
 257.5 530 257.5 530 259.5 531 c 0,45,46
 264.5 532 264.5 532 261 545 c 128,-1,47
 257.5 558 257.5 558 250.5 575 c 128,-1,48
 243.5 592 243.5 592 235 610.5 c 128,-1,49
 226.5 629 226.5 629 222.5 641 c 0,34,35
EndSplineSet
EndChar

StartChar: bracketright
Encoding: 93 93 33
Width: 729
GlyphClass: 1
Flags: W
LayerCount: 2
Fore
SplineSet
292.75 -82 m 0,0,1
 277.75 -82 277.75 -82 266.75 -73.5 c 128,-1,2
 255.75 -65 255.75 -65 255.75 -56 c 0,3,4
 255.75 -33 255.75 -33 269.75 -25 c 128,-1,5
 283.75 -17 283.75 -17 303.75 -17 c 0,6,7
 328.75 -17 328.75 -17 342.75 -15 c 128,-1,8
 356.75 -13 356.75 -13 363.25 -8.5 c 128,-1,9
 369.75 -4 369.75 -4 371.25 3.5 c 128,-1,10
 372.75 11 372.75 11 372.75 22 c 2,11,-1
 372.75 564 l 2,12,13
 372.75 594 372.75 594 360.25 604 c 128,-1,14
 347.75 614 347.75 614 336.75 614 c 256,15,16
 325.75 614 325.75 614 313.25 612 c 128,-1,17
 300.75 610 300.75 610 289.75 610 c 0,18,19
 275.75 610 275.75 610 265.75 617.5 c 128,-1,20
 255.75 625 255.75 625 255.75 648 c 0,21,22
 255.75 660 255.75 660 272.75 669 c 128,-1,23
 289.75 678 289.75 678 319.75 678 c 0,24,25
 345.75 678 345.75 678 370.25 678 c 128,-1,26
 394.75 678 394.75 678 414.75 676.5 c 128,-1,27
 434.75 675 434.75 675 447.75 672 c 128,-1,28
 460.75 669 460.75 669 463.75 663 c 0,29,30
 466.75 658 466.75 658 467.25 641 c 128,-1,31
 467.75 624 467.75 624 467.75 584.5 c 128,-1,32
 467.75 545 467.75 545 468.25 477.5 c 128,-1,33
 468.75 410 468.75 410 469.75 302 c 0,34,35
 471.75 198 471.75 198 472.75 130.5 c 128,-1,36
 473.75 63 473.75 63 472.75 22 c 0,37,38
 472.75 -7 472.75 -7 468.75 -25.5 c 128,-1,39
 464.75 -44 464.75 -44 458.75 -55.5 c 128,-1,40
 452.75 -67 452.75 -67 444.25 -72 c 128,-1,41
 435.75 -77 435.75 -77 424.75 -78 c 0,42,43
 406.75 -80 406.75 -80 384.75 -81 c 128,-1,44
 362.75 -82 362.75 -82 343.25 -82 c 128,-1,45
 323.75 -82 323.75 -82 309.25 -82 c 128,-1,46
 294.75 -82 294.75 -82 292.75 -82 c 0,0,1
287.75 659 m 256,47,48
 283.75 664 283.75 664 276.75 660 c 128,-1,49
 269.75 656 269.75 656 269.75 648 c 0,50,51
 269.75 638 269.75 638 273.75 638 c 256,52,53
 277.75 638 277.75 638 277.75 645 c 0,54,55
 278.75 649 278.75 649 285.25 651.5 c 128,-1,56
 291.75 654 291.75 654 287.75 659 c 256,47,48
EndSplineSet
EndChar

StartChar: asciicircum
Encoding: 94 94 34
Width: 729
GlyphClass: 1
Flags: W
LayerCount: 2
Fore
SplineSet
110.5 273 m 1,0,-1
 327.5 736 l 1,1,-1
 378.5 736 l 1,2,-1
 618.5 273 l 1,3,-1
 538.5 273 l 1,4,-1
 354.5 641 l 1,5,-1
 190.5 273 l 1,6,-1
 110.5 273 l 1,0,-1
EndSplineSet
EndChar

StartChar: underscore
Encoding: 95 95 35
Width: 729
GlyphClass: 1
Flags: W
LayerCount: 2
Fore
SplineSet
594 -158 m 1,0,-1
 135 -158 l 1,1,-1
 135 -92 l 1,2,-1
 594 -92 l 1,3,-1
 594 -158 l 1,0,-1
EndSplineSet

EndChar

StartChar: braceleft
Encoding: 123 123 36
Width: 729
GlyphClass: 1
Flags: W
LayerCount: 2
Fore
SplineSet
214.5 379 m 1,0,1
 255.5 379 255.5 379 283.5 388 c 128,-1,2
 311.5 397 311.5 397 326 417.5 c 128,-1,3
 340.5 438 340.5 438 340.5 471 c 2,4,-1
 340.5 708 l 2,5,6
 340.5 759 340.5 759 363 790 c 128,-1,7
 385.5 821 385.5 821 425 836 c 128,-1,8
 464.5 851 464.5 851 514.5 852 c 1,9,-1
 514.5 778 l 1,10,11
 486.5 778 486.5 778 466 771.5 c 128,-1,12
 445.5 765 445.5 765 434.5 749 c 128,-1,13
 423.5 733 423.5 733 423.5 701 c 2,14,-1
 423.5 466 l 2,15,16
 423.5 415 423.5 415 396 384.5 c 128,-1,17
 368.5 354 368.5 354 314.5 343 c 1,18,-1
 314.5 338 l 1,19,20
 367.5 328 367.5 328 395.5 298 c 128,-1,21
 423.5 268 423.5 268 423.5 216 c 2,22,-1
 423.5 -18 l 2,23,24
 423.5 -50 423.5 -50 434.5 -66.5 c 128,-1,25
 445.5 -83 445.5 -83 466 -89 c 128,-1,26
 486.5 -95 486.5 -95 514.5 -96 c 1,27,-1
 514.5 -170 l 1,28,29
 464.5 -169 464.5 -169 425 -154 c 128,-1,30
 385.5 -139 385.5 -139 363 -108 c 128,-1,31
 340.5 -77 340.5 -77 340.5 -26 c 2,32,-1
 340.5 211 l 2,33,34
 340.5 245 340.5 245 326 265 c 128,-1,35
 311.5 285 311.5 285 283.5 294 c 128,-1,36
 255.5 303 255.5 303 214.5 303 c 1,37,-1
 214.5 379 l 1,0,1
EndSplineSet

EndChar

StartChar: bar
Encoding: 124 124 37
Width: 729
GlyphClass: 1
Flags: W
LayerCount: 2
Fore
SplineSet
328 852 m 1,0,-1
 401 852 l 1,1,-1
 401 -170 l 1,2,-1
 328 -170 l 1,3,-1
 328 852 l 1,0,-1
EndSplineSet
EndChar

StartChar: braceright
Encoding: 125 125 38
Width: 729
GlyphClass: 1
Flags: W
LayerCount: 2
Fore
SplineSet
514.5 303 m 1,0,1
 473.5 303 473.5 303 446 294 c 128,-1,2
 418.5 285 418.5 285 404 265 c 128,-1,3
 389.5 245 389.5 245 389.5 211 c 2,4,-1
 389.5 -26 l 2,5,6
 389.5 -77 389.5 -77 366.5 -108 c 128,-1,7
 343.5 -139 343.5 -139 304 -154 c 128,-1,8
 264.5 -169 264.5 -169 214.5 -170 c 1,9,-1
 214.5 -96 l 1,10,11
 243.5 -95 243.5 -95 264 -89 c 128,-1,12
 284.5 -83 284.5 -83 295 -66.5 c 128,-1,13
 305.5 -50 305.5 -50 305.5 -18 c 2,14,-1
 305.5 216 l 2,15,16
 305.5 268 305.5 268 333.5 298 c 128,-1,17
 361.5 328 361.5 328 414.5 338 c 1,18,-1
 414.5 343 l 1,19,20
 361.5 354 361.5 354 333.5 384.5 c 128,-1,21
 305.5 415 305.5 415 305.5 466 c 2,22,-1
 305.5 701 l 2,23,24
 305.5 733 305.5 733 295 749 c 128,-1,25
 284.5 765 284.5 765 264 771.5 c 128,-1,26
 243.5 778 243.5 778 214.5 778 c 1,27,-1
 214.5 852 l 1,28,29
 264.5 851 264.5 851 304 836 c 128,-1,30
 343.5 821 343.5 821 366.5 790 c 128,-1,31
 389.5 759 389.5 759 389.5 708 c 2,32,-1
 389.5 471 l 2,33,34
 389.5 438 389.5 438 404 417.5 c 128,-1,35
 418.5 397 418.5 397 446 388 c 128,-1,36
 473.5 379 473.5 379 514.5 379 c 1,37,-1
 514.5 303 l 1,0,1
EndSplineSet
EndChar

StartChar: asciitilde
Encoding: 126 126 39
Width: 729
GlyphClass: 1
Flags: W
LayerCount: 2
Fore
SplineSet
133.5 343 m 1,0,1
 159.5 371 159.5 371 190 384 c 128,-1,2
 220.5 397 220.5 397 257.5 397 c 0,3,4
 276.5 397 276.5 397 293 394.5 c 128,-1,5
 309.5 392 309.5 392 330 385.5 c 128,-1,6
 350.5 379 350.5 379 381.5 366 c 0,7,8
 419.5 350 419.5 350 440 344 c 128,-1,9
 460.5 338 460.5 338 481.5 338 c 0,10,11
 510.5 338 510.5 338 541 355.5 c 128,-1,12
 571.5 373 571.5 373 595.5 398 c 1,13,-1
 595.5 317 l 1,14,15
 570.5 290 570.5 290 539.5 276.5 c 128,-1,16
 508.5 263 508.5 263 471.5 263 c 0,17,18
 452.5 263 452.5 263 436 265.5 c 128,-1,19
 419.5 268 419.5 268 399.5 275 c 128,-1,20
 379.5 282 379.5 282 347.5 295 c 0,21,22
 310.5 311 310.5 311 290.5 317 c 128,-1,23
 270.5 323 270.5 323 247.5 323 c 0,24,25
 219.5 323 219.5 323 189 305.5 c 128,-1,26
 158.5 288 158.5 288 133.5 262 c 1,27,-1
 133.5 343 l 1,0,1
EndSplineSet
EndChar

StartChar: A
Encoding: 65 65 40
Width: 729
VWidth: 1000
GlyphClass: 2
Flags: W
LayerCount: 2
Fore
SplineSet
320 -8 m 0,0,1
 253 -8 253 -8 215.5 71 c 128,-1,2
 178 150 178 150 178 291 c 0,3,4
 178 444 178 444 222 530 c 128,-1,5
 266 616 266 616 346 621 c 0,6,7
 375 623 375 623 393.5 614.5 c 128,-1,8
 412 606 412 606 424 595 c 128,-1,9
 436 584 436 584 442 575 c 128,-1,10
 448 566 448 566 451 566 c 256,11,12
 454 566 454 566 455 575 c 128,-1,13
 456 584 456 584 460 595 c 128,-1,14
 464 606 464 606 472.5 615 c 128,-1,15
 481 624 481 624 500 624 c 256,16,17
 519 624 519 624 532 615 c 128,-1,18
 545 606 545 606 545 592 c 2,19,-1
 545 204 l 2,20,21
 545 163 545 163 548 126.5 c 128,-1,22
 551 90 551 90 551 71 c 0,23,24
 551 36 551 36 537.5 14 c 128,-1,25
 524 -8 524 -8 503 -8 c 0,26,27
 479 -8 479 -8 464 19 c 128,-1,28
 449 46 449 46 449 88 c 0,29,30
 449 114 449 114 444 114 c 0,31,32
 440 114 440 114 433 95 c 128,-1,33
 426 76 426 76 412.5 53 c 128,-1,34
 399 30 399 30 377 11 c 128,-1,35
 355 -8 355 -8 320 -8 c 0,0,1
474 557 m 0,36,37
 478 557 478 557 479.5 563.5 c 128,-1,38
 481 570 481 570 483 577 c 0,39,40
 486 587 486 587 489 594 c 128,-1,41
 492 601 492 601 492 606 c 256,42,43
 492 611 492 611 488 611 c 0,44,45
 483 611 483 611 475 601 c 128,-1,46
 467 591 467 591 467 575 c 0,47,48
 467 567 467 567 469 562 c 128,-1,49
 471 557 471 557 474 557 c 0,36,37
344 90 m 0,50,51
 358 90 358 90 374 117 c 128,-1,52
 390 144 390 144 403.5 185.5 c 128,-1,53
 417 227 417 227 426 275.5 c 128,-1,54
 435 324 435 324 435 366 c 0,55,56
 435 399 435 399 429.5 428.5 c 128,-1,57
 424 458 424 458 414 480.5 c 128,-1,58
 404 503 404 503 391.5 516 c 128,-1,59
 379 529 379 529 365 529 c 0,60,61
 349 529 349 529 334 511.5 c 128,-1,62
 319 494 319 494 308.5 463.5 c 128,-1,63
 298 433 298 433 291.5 392.5 c 128,-1,64
 285 352 285 352 285 306 c 0,65,66
 285 265 285 265 290 226 c 128,-1,67
 295 187 295 187 303.5 157 c 128,-1,68
 312 127 312 127 322.5 108.5 c 128,-1,69
 333 90 333 90 344 90 c 0,50,51
272 33 m 0,70,71
 276 33 276 33 278.5 36.5 c 128,-1,72
 281 40 281 40 280 43 c 256,73,74
 279 46 279 46 274.5 51.5 c 128,-1,75
 270 57 270 57 264 64.5 c 128,-1,76
 258 72 258 72 252.5 80.5 c 128,-1,77
 247 89 247 89 245 97 c 0,78,79
 244 101 244 101 242.5 107.5 c 128,-1,80
 241 114 241 114 239 120.5 c 128,-1,81
 237 127 237 127 235 131.5 c 128,-1,82
 233 136 233 136 230 136 c 0,83,84
 225 136 225 136 225 122.5 c 128,-1,85
 225 109 225 109 232 89 c 0,86,87
 240 69 240 69 252 51 c 128,-1,88
 264 33 264 33 272 33 c 0,70,71
501 22 m 256,89,90
 501 25 501 25 497.5 29 c 128,-1,91
 494 33 494 33 489.5 38 c 128,-1,92
 485 43 485 43 481.5 49.5 c 128,-1,93
 478 56 478 56 478 63 c 0,94,95
 478 66 478 66 477 69 c 0,96,97
 475 74 475 74 471 74 c 0,98,99
 464 74 464 74 464 62 c 0,100,101
 464 46 464 46 473 29.5 c 128,-1,102
 482 13 482 13 491 13 c 0,103,104
 495 13 495 13 498 16 c 128,-1,105
 501 19 501 19 501 22 c 256,89,90
297 17 m 256,106,107
 300 17 300 17 303.5 21 c 128,-1,108
 307 25 307 25 308.5 29.5 c 128,-1,109
 310 34 310 34 308.5 38 c 128,-1,110
 307 42 307 42 301 42 c 0,111,112
 289 42 289 42 289 30 c 0,113,114
 289 25 289 25 291.5 21 c 128,-1,115
 294 17 294 17 297 17 c 256,106,107
EndSplineSet

EndChar

StartChar: B
Encoding: 66 66 41
Width: 729
VWidth: 1000
GlyphClass: 2
Flags: W
LayerCount: 2
Fore
SplineSet
429.5 546 m 0,0,1
 389.5 546 389.5 546 361 574 c 128,-1,2
 332.5 602 332.5 602 332.5 646 c 0,3,4
 332.5 670 332.5 670 341 691.5 c 128,-1,5
 349.5 713 349.5 713 364.5 728.5 c 128,-1,6
 379.5 744 379.5 744 400.5 753.5 c 128,-1,7
 421.5 763 421.5 763 446.5 763 c 0,8,9
 466.5 763 466.5 763 483.5 754.5 c 128,-1,10
 500.5 746 500.5 746 512.5 731 c 128,-1,11
 524.5 716 524.5 716 531 697 c 128,-1,12
 537.5 678 537.5 678 537.5 657 c 0,13,14
 537.5 630 537.5 630 529 609.5 c 128,-1,15
 520.5 589 520.5 589 505.5 575 c 128,-1,16
 490.5 561 490.5 561 471 553.5 c 128,-1,17
 451.5 546 451.5 546 429.5 546 c 0,0,1
392.5 719 m 0,18,19
 399.5 726 399.5 726 401 731 c 128,-1,20
 402.5 736 402.5 736 400.5 736 c 0,21,22
 392.5 736 392.5 736 383.5 728.5 c 128,-1,23
 374.5 721 374.5 721 367 710.5 c 128,-1,24
 359.5 700 359.5 700 354.5 688 c 128,-1,25
 349.5 676 349.5 676 349.5 666 c 0,26,27
 349.5 664 349.5 664 351 658 c 128,-1,28
 352.5 652 352.5 652 355.5 652 c 0,29,30
 359.5 652 359.5 652 365.5 674 c 0,31,32
 368.5 688 368.5 688 376.5 699.5 c 128,-1,33
 384.5 711 384.5 711 392.5 719 c 0,18,19
433.5 603 m 0,34,35
 445.5 603 445.5 603 462 617 c 128,-1,36
 478.5 631 478.5 631 478.5 657 c 0,37,38
 478.5 677 478.5 677 468 690.5 c 128,-1,39
 457.5 704 457.5 704 440.5 704 c 256,40,41
 423.5 704 423.5 704 409.5 690.5 c 128,-1,42
 395.5 677 395.5 677 395.5 653 c 256,43,44
 395.5 629 395.5 629 406.5 616 c 128,-1,45
 417.5 603 417.5 603 433.5 603 c 0,34,35
236.5 655 m 0,46,47
 216.5 655 216.5 655 199.5 640 c 128,-1,48
 182.5 625 182.5 625 182.5 586 c 2,49,-1
 182.5 91 l 2,50,51
 182.5 70 182.5 70 191 53 c 128,-1,52
 199.5 36 199.5 36 214 24.5 c 128,-1,53
 228.5 13 228.5 13 247 7 c 128,-1,54
 265.5 1 265.5 1 285.5 1 c 2,55,-1
 344.5 1 l 2,56,57
 375.5 1 375.5 1 411 13 c 128,-1,58
 446.5 25 446.5 25 476.5 51 c 128,-1,59
 506.5 77 506.5 77 526.5 119 c 128,-1,60
 546.5 161 546.5 161 546.5 220 c 256,61,62
 546.5 279 546.5 279 527 325.5 c 128,-1,63
 507.5 372 507.5 372 478.5 403.5 c 128,-1,64
 449.5 435 449.5 435 415.5 451.5 c 128,-1,65
 381.5 468 381.5 468 351.5 468 c 2,66,-1
 322.5 468 l 2,67,68
 313.5 468 313.5 468 305 472 c 128,-1,69
 296.5 476 296.5 476 296.5 485 c 2,70,-1
 296.5 590 l 2,71,72
 296.5 608 296.5 608 291 620 c 128,-1,73
 285.5 632 285.5 632 276.5 640 c 128,-1,74
 267.5 648 267.5 648 257 651.5 c 128,-1,75
 246.5 655 246.5 655 236.5 655 c 0,46,47
340.5 379 m 2,76,77
 357.5 379 357.5 379 373.5 371 c 128,-1,78
 389.5 363 389.5 363 403 345.5 c 128,-1,79
 416.5 328 416.5 328 424.5 300 c 128,-1,80
 432.5 272 432.5 272 432.5 232 c 0,81,82
 432.5 189 432.5 189 424.5 160.5 c 128,-1,83
 416.5 132 416.5 132 403.5 115.5 c 128,-1,84
 390.5 99 390.5 99 374.5 92 c 128,-1,85
 358.5 85 358.5 85 343.5 85 c 2,86,-1
 321.5 85 l 2,87,88
 296.5 85 296.5 85 296.5 119 c 2,89,-1
 296.5 356 l 2,90,91
 296.5 379 296.5 379 327.5 379 c 2,92,-1
 340.5 379 l 2,76,77
222.5 620 m 256,93,94
 217.5 615 217.5 615 214 602 c 128,-1,95
 210.5 589 210.5 589 210.5 550.5 c 128,-1,96
 210.5 512 210.5 512 203.5 512 c 0,97,98
 198.5 512 198.5 512 197 520.5 c 128,-1,99
 195.5 529 195.5 529 195.5 541 c 0,100,101
 195.5 603 195.5 603 202.5 619 c 128,-1,102
 209.5 635 209.5 635 219.5 635 c 0,103,104
 221.5 635 221.5 635 224.5 633 c 128,-1,105
 227.5 631 227.5 631 227.5 629 c 0,106,107
 227.5 625 227.5 625 222.5 620 c 256,93,94
EndSplineSet
EndChar

StartChar: C
Encoding: 67 67 42
Width: 729
VWidth: 1000
GlyphClass: 2
Flags: W
LayerCount: 2
Fore
SplineSet
377.5 584 m 0
 337.5 584 337.5 584 309 612 c 0
 280.5 640 280.5 640 280.5 684 c 0
 280.5 708 280.5 708 289 729.5 c 0
 297.5 751 297.5 751 312.5 766.5 c 0
 327.5 782 327.5 782 348.5 791.5 c 0
 369.5 801 369.5 801 394.5 801 c 0
 414.5 801 414.5 801 431.5 792.5 c 0
 448.5 784 448.5 784 460.5 769 c 0
 472.5 754 472.5 754 479 735 c 0
 485.5 716 485.5 716 485.5 695 c 0
 485.5 668 485.5 668 477 647.5 c 0
 468.5 627 468.5 627 453.5 613 c 0
 438.5 599 438.5 599 419 591.5 c 0
 399.5 584 399.5 584 377.5 584 c 0
340.5 757 m 0
 347.5 764 347.5 764 349 769 c 0
 350.5 774 350.5 774 348.5 774 c 0
 340.5 774 340.5 774 331.5 766.5 c 0
 322.5 759 322.5 759 315 748.5 c 0
 307.5 738 307.5 738 302.5 726 c 0
 297.5 714 297.5 714 297.5 704 c 0
 297.5 702 297.5 702 299 696 c 0
 300.5 690 300.5 690 303.5 690 c 0
 307.5 690 307.5 690 313.5 712 c 0
 316.5 726 316.5 726 324.5 737.5 c 0
 332.5 749 332.5 749 340.5 757 c 0
381.5 641 m 0
 393.5 641 393.5 641 410 655 c 0
 426.5 669 426.5 669 426.5 695 c 0
 426.5 715 426.5 715 416 728.5 c 0
 405.5 742 405.5 742 388.5 742 c 256
 371.5 742 371.5 742 357.5 728.5 c 0
 343.5 715 343.5 715 343.5 691 c 256
 343.5 667 343.5 667 354.5 654 c 0
 365.5 641 365.5 641 381.5 641 c 0
EndSplineSet
Refer: 70 99 N 1 0 0 1 0 -15.36 2
EndChar

StartChar: D
Encoding: 68 68 43
Width: 729
VWidth: 1000
GlyphClass: 2
Flags: W
LayerCount: 2
Fore
SplineSet
265 0 m 2,0,1
 247 0 247 0 230.5 4 c 128,-1,2
 214 8 214 8 201.5 18 c 128,-1,3
 189 28 189 28 181.5 45 c 128,-1,4
 174 62 174 62 174 88 c 2,5,-1
 174 516 l 2,6,7
 174 543 174 543 183.5 562.5 c 128,-1,8
 193 582 193 582 208.5 594.5 c 128,-1,9
 224 607 224 607 245 612.5 c 128,-1,10
 266 618 266 618 289 618 c 2,11,-1
 334 618 l 2,12,13
 377 618 377 618 417 598.5 c 128,-1,14
 457 579 457 579 487.5 541.5 c 128,-1,15
 518 504 518 504 536.5 449.5 c 128,-1,16
 555 395 555 395 555 326 c 0,17,18
 555 253 555 253 536 192.5 c 128,-1,19
 517 132 517 132 485 89.5 c 128,-1,20
 453 47 453 47 410 23.5 c 128,-1,21
 367 0 367 0 320 0 c 2,22,-1
 265 0 l 2,0,1
315 96 m 2,23,24
 341 96 341 96 364 112.5 c 128,-1,25
 387 129 387 129 403.5 159.5 c 128,-1,26
 420 190 420 190 429.5 233 c 128,-1,27
 439 276 439 276 439 329 c 0,28,29
 439 424 439 424 409 472 c 128,-1,30
 379 520 379 520 331 520 c 2,31,-1
 316 520 l 2,32,33
 299 520 299 520 293.5 512.5 c 128,-1,34
 288 505 288 505 288 480 c 2,35,-1
 288 132 l 2,36,37
 288 112 288 112 291.5 104 c 128,-1,38
 295 96 295 96 302 96 c 2,39,-1
 315 96 l 2,23,24
205 83 m 0,40,41
 209 83 209 83 210.5 93.5 c 128,-1,42
 212 104 212 104 212 117.5 c 128,-1,43
 212 131 212 131 211.5 143.5 c 128,-1,44
 211 156 211 156 211 161 c 0,45,46
 211 216 211 216 205 216 c 0,47,48
 202 216 202 216 199 203.5 c 128,-1,49
 196 191 196 191 196 161 c 0,50,51
 196 116 196 116 196.5 99.5 c 128,-1,52
 197 83 197 83 205 83 c 0,40,41
204 69 m 0,53,54
 197 69 197 69 197 58 c 0,55,56
 197 40 197 40 205 40 c 0,57,58
 208 40 208 40 210 46 c 128,-1,59
 212 52 212 52 212 58 c 0,60,61
 212 69 212 69 204 69 c 0,53,54
EndSplineSet

EndChar

StartChar: E
Encoding: 69 69 44
Width: 729
VWidth: 1000
GlyphClass: 2
Flags: W
AnchorPoint: "Anchor-7" 364.5 268 basechar 0
AnchorPoint: "Anchor-5" 360.5 0 basechar 0
AnchorPoint: "Anchor-4" 386.5 536 basechar 0
LayerCount: 2
Fore
SplineSet
249.5 333.5 m 0,0,1
 237.5 349.5 237.5 349.5 228.5 365 c 128,-1,2
 219.5 380.5 219.5 380.5 217.5 395.5 c 0,3,4
 214.5 409.5 214.5 409.5 208.5 408.5 c 0,5,6
 200.5 408.5 200.5 408.5 203.5 390.5 c 0,7,8
 204.5 381.5 204.5 381.5 209 368.5 c 128,-1,9
 213.5 355.5 213.5 355.5 219.5 344.5 c 128,-1,10
 225.5 333.5 225.5 333.5 233.5 326 c 128,-1,11
 241.5 318.5 241.5 318.5 250.5 319.5 c 0,12,13
 258.5 321.5 258.5 321.5 249.5 333.5 c 0,0,1
235.5 60 m 0,14,15
 223.5 76 223.5 76 214.5 91.5 c 128,-1,16
 205.5 107 205.5 107 203.5 122 c 0,17,18
 200.5 136 200.5 136 194.5 135 c 0,19,20
 186.5 135 186.5 135 189.5 117 c 0,21,22
 190.5 108 190.5 108 195 95 c 128,-1,23
 199.5 82 199.5 82 205.5 71 c 128,-1,24
 211.5 60 211.5 60 219.5 52.5 c 128,-1,25
 227.5 45 227.5 45 236.5 46 c 0,26,27
 244.5 48 244.5 48 235.5 60 c 0,14,15
473.5 315 m 1,28,-1
 473.5 243 l 1,29,-1
 400.5 243 l 2,30,31
 349.5 243 349.5 243 316 232.5 c 128,-1,32
 282.5 222 282.5 222 266 202 c 128,-1,33
 249.5 182 249.5 182 249.5 151 c 0,34,35
 249.5 118 249.5 118 268.5 98.5 c 128,-1,36
 287.5 79 287.5 79 319.5 70.5 c 128,-1,37
 351.5 62 351.5 62 391.5 62 c 0,38,39
 447.5 62 447.5 62 490 75 c 128,-1,40
 532.5 88 532.5 88 565.5 104 c 1,41,-1
 565.5 27 l 1,42,43
 534.5 11 534.5 11 491.5 0.5 c 128,-1,44
 448.5 -10 448.5 -10 386.5 -10 c 0,45,46
 271.5 -10 271.5 -10 216.5 34.5 c 128,-1,47
 161.5 79 161.5 79 161.5 146 c 0,48,49
 161.5 186 161.5 186 178 211.5 c 128,-1,50
 194.5 237 194.5 237 221.5 252.5 c 128,-1,51
 248.5 268 248.5 268 280.5 277 c 1,52,-1
 280.5 282 l 1,53,54
 235.5 296 235.5 296 208 325.5 c 128,-1,55
 180.5 355 180.5 355 180.5 404 c 0,56,57
 180.5 449 180.5 449 207 481 c 128,-1,58
 233.5 513 233.5 513 280 529.5 c 128,-1,59
 326.5 546 326.5 546 386.5 546 c 0,60,61
 444.5 546 444.5 546 486 536 c 128,-1,62
 527.5 526 527.5 526 567.5 508 c 1,63,-1
 534.5 438 l 1,64,65
 501.5 453 501.5 453 467 463 c 128,-1,66
 432.5 473 432.5 473 385.5 473 c 0,67,68
 325.5 473 325.5 473 295 454 c 128,-1,69
 264.5 435 264.5 435 264.5 397 c 0,70,71
 264.5 353 264.5 353 306 334 c 128,-1,72
 347.5 315 347.5 315 417.5 315 c 2,73,-1
 473.5 315 l 1,28,-1
EndSplineSet

EndChar

StartChar: F
Encoding: 70 70 45
Width: 729
VWidth: 1000
GlyphClass: 2
Flags: W
LayerCount: 2
Fore
SplineSet
276 0 m 0,0,1
 249 0 249 0 231.5 9.5 c 128,-1,2
 214 19 214 19 214 49 c 2,3,-1
 214 543 l 2,4,5
 214 582 214 582 242.5 599.5 c 128,-1,6
 271 617 271 617 316 617 c 2,7,-1
 486 616 l 2,8,9
 497 616 497 616 506 604.5 c 128,-1,10
 515 593 515 593 515 579 c 0,11,12
 515 572 515 572 513.5 561.5 c 128,-1,13
 512 551 512 551 509 541.5 c 128,-1,14
 506 532 506 532 501.5 525.5 c 128,-1,15
 497 519 497 519 491 519 c 2,16,-1
 354 520 l 2,17,18
 328 520 328 520 328 494 c 2,19,-1
 328 345 l 2,20,21
 328 335 328 335 334.5 330.5 c 128,-1,22
 341 326 341 326 351 326 c 2,23,-1
 457 329 l 2,24,25
 465 329 465 329 471 324 c 128,-1,26
 477 319 477 319 482 310.5 c 128,-1,27
 487 302 487 302 489.5 293 c 128,-1,28
 492 284 492 284 492 276 c 0,29,30
 492 237 492 237 454 236 c 2,31,-1
 348 233 l 2,32,33
 340 233 340 233 334 227 c 128,-1,34
 328 221 328 221 328 213 c 2,35,-1
 328 48 l 2,36,37
 328 32 328 32 323.5 22.5 c 128,-1,38
 319 13 319 13 311.5 8 c 128,-1,39
 304 3 304 3 294.5 1.5 c 128,-1,40
 285 0 285 0 276 0 c 0,0,1
264 26 m 0,41,42
 263 31 263 31 254.5 42 c 128,-1,43
 246 53 246 53 244 78 c 0,44,45
 242 91 242 91 238.5 94 c 128,-1,46
 235 97 235 97 233 97 c 256,47,48
 231 97 231 97 229.5 91 c 128,-1,49
 228 85 228 85 230 75 c 0,50,51
 230 70 230 70 232 60.5 c 128,-1,52
 234 51 234 51 237.5 41.5 c 128,-1,53
 241 32 241 32 246 25 c 128,-1,54
 251 18 251 18 258 19 c 0,55,56
 264 19 264 19 264 26 c 0,41,42
EndSplineSet

EndChar

StartChar: G
Encoding: 71 71 46
Width: 729
VWidth: 1000
GlyphClass: 2
Flags: W
LayerCount: 2
Fore
SplineSet
394.5 621 m 0,0,1
 354.5 621 354.5 621 326 649 c 128,-1,2
 297.5 677 297.5 677 297.5 721 c 0,3,4
 297.5 745 297.5 745 306 766.5 c 128,-1,5
 314.5 788 314.5 788 329.5 803.5 c 128,-1,6
 344.5 819 344.5 819 365.5 828.5 c 128,-1,7
 386.5 838 386.5 838 411.5 838 c 0,8,9
 431.5 838 431.5 838 448.5 829.5 c 128,-1,10
 465.5 821 465.5 821 477.5 806 c 128,-1,11
 489.5 791 489.5 791 496 772 c 128,-1,12
 502.5 753 502.5 753 502.5 732 c 0,13,14
 502.5 705 502.5 705 494 684.5 c 128,-1,15
 485.5 664 485.5 664 470.5 650 c 128,-1,16
 455.5 636 455.5 636 436 628.5 c 128,-1,17
 416.5 621 416.5 621 394.5 621 c 0,0,1
357.5 794 m 0,18,19
 364.5 801 364.5 801 366 806 c 128,-1,20
 367.5 811 367.5 811 365.5 811 c 0,21,22
 357.5 811 357.5 811 348.5 803.5 c 128,-1,23
 339.5 796 339.5 796 332 785.5 c 128,-1,24
 324.5 775 324.5 775 319.5 763 c 128,-1,25
 314.5 751 314.5 751 314.5 741 c 0,26,27
 314.5 739 314.5 739 316 733 c 128,-1,28
 317.5 727 317.5 727 320.5 727 c 0,29,30
 324.5 727 324.5 727 330.5 749 c 0,31,32
 333.5 763 333.5 763 341.5 774.5 c 128,-1,33
 349.5 786 349.5 786 357.5 794 c 0,18,19
398.5 678 m 0,34,35
 410.5 678 410.5 678 427 692 c 128,-1,36
 443.5 706 443.5 706 443.5 732 c 0,37,38
 443.5 752 443.5 752 433 765.5 c 128,-1,39
 422.5 779 422.5 779 405.5 779 c 256,40,41
 388.5 779 388.5 779 374.5 765.5 c 128,-1,42
 360.5 752 360.5 752 360.5 728 c 256,43,44
 360.5 704 360.5 704 371.5 691 c 128,-1,45
 382.5 678 382.5 678 398.5 678 c 0,34,35
363.5 -37 m 0,46,47
 300.5 -37 300.5 -37 260 -4 c 128,-1,48
 219.5 29 219.5 29 196.5 79 c 128,-1,49
 173.5 129 173.5 129 165 187 c 128,-1,50
 156.5 245 156.5 245 156.5 296 c 0,51,52
 156.5 352 156.5 352 170 405.5 c 128,-1,53
 183.5 459 183.5 459 212 500.5 c 128,-1,54
 240.5 542 240.5 542 286 567.5 c 128,-1,55
 331.5 593 331.5 593 395.5 593 c 0,56,57
 422.5 593 422.5 593 452 587 c 128,-1,58
 481.5 581 481.5 581 506 564.5 c 128,-1,59
 530.5 548 530.5 548 547 520 c 128,-1,60
 563.5 492 563.5 492 563.5 448 c 0,61,62
 563.5 432 563.5 432 557 422.5 c 128,-1,63
 550.5 413 550.5 413 541 407.5 c 128,-1,64
 531.5 402 531.5 402 521.5 400.5 c 128,-1,65
 511.5 399 511.5 399 505.5 399 c 0,66,67
 491.5 399 491.5 399 479 409 c 128,-1,68
 466.5 419 466.5 419 466.5 448 c 0,69,70
 466.5 471 466.5 471 458.5 483 c 128,-1,71
 450.5 495 450.5 495 439.5 500.5 c 128,-1,72
 428.5 506 428.5 506 418 507 c 128,-1,73
 407.5 508 407.5 508 401.5 508 c 0,74,75
 375.5 508 375.5 508 352.5 492.5 c 128,-1,76
 329.5 477 329.5 477 312 448 c 128,-1,77
 294.5 419 294.5 419 284.5 377 c 128,-1,78
 274.5 335 274.5 335 274.5 282 c 0,79,80
 274.5 253 274.5 253 278 213 c 128,-1,81
 281.5 173 281.5 173 293.5 137 c 128,-1,82
 305.5 101 305.5 101 327.5 75.5 c 128,-1,83
 349.5 50 349.5 50 385.5 50 c 0,84,85
 408.5 50 408.5 50 425.5 65 c 128,-1,86
 442.5 80 442.5 80 454 102 c 128,-1,87
 465.5 124 465.5 124 471.5 148.5 c 128,-1,88
 477.5 173 477.5 173 476.5 192 c 0,89,90
 475.5 208 475.5 208 457 209.5 c 128,-1,91
 438.5 211 438.5 211 415.5 211 c 2,92,-1
 353.5 211 l 2,93,94
 347.5 211 347.5 211 342.5 217 c 128,-1,95
 337.5 223 337.5 223 334.5 231.5 c 128,-1,96
 331.5 240 331.5 240 329.5 249 c 128,-1,97
 327.5 258 327.5 258 327.5 264 c 0,98,99
 327.5 280 327.5 280 338 292.5 c 128,-1,100
 348.5 305 348.5 305 371.5 305 c 2,101,-1
 496.5 304 l 2,102,103
 509.5 304 509.5 304 523 298.5 c 128,-1,104
 536.5 293 536.5 293 547 282.5 c 128,-1,105
 557.5 272 557.5 272 564.5 255.5 c 128,-1,106
 571.5 239 571.5 239 571.5 216 c 0,107,108
 571.5 181 571.5 181 572 151 c 128,-1,109
 572.5 121 572.5 121 572.5 77 c 0,110,111
 572.5 43 572.5 43 570 22 c 128,-1,112
 567.5 1 567.5 1 561.5 -11 c 128,-1,113
 555.5 -23 555.5 -23 547 -27.5 c 128,-1,114
 538.5 -32 538.5 -32 526.5 -32 c 0,115,116
 509.5 -32 509.5 -32 501.5 -19.5 c 128,-1,117
 493.5 -7 493.5 -7 490 8 c 128,-1,118
 486.5 23 486.5 23 485.5 35.5 c 128,-1,119
 484.5 48 484.5 48 481.5 48 c 256,120,121
 478.5 48 478.5 48 472.5 34.5 c 128,-1,122
 466.5 21 466.5 21 453.5 5.5 c 128,-1,123
 440.5 -10 440.5 -10 419.5 -23.5 c 128,-1,124
 398.5 -37 398.5 -37 363.5 -37 c 0,46,47
268.5 44 m 0,125,126
 268.5 49 268.5 49 252.5 72 c 0,127,128
 245.5 83 245.5 83 238.5 97.5 c 128,-1,129
 231.5 112 231.5 112 226.5 126 c 128,-1,130
 221.5 140 221.5 140 218.5 152 c 128,-1,131
 215.5 164 215.5 164 216.5 168 c 0,132,133
 217.5 173 217.5 173 214.5 175.5 c 128,-1,134
 211.5 178 211.5 178 210.5 178 c 0,135,136
 202.5 178 202.5 178 200.5 167 c 256,137,138
 198.5 156 198.5 156 204 135 c 128,-1,139
 209.5 114 209.5 114 219 93 c 128,-1,140
 228.5 72 228.5 72 240 56 c 128,-1,141
 251.5 40 251.5 40 260.5 39 c 0,142,143
 267.5 37 267.5 37 268.5 44 c 0,125,126
531.5 -7 m 0,144,145
 531.5 1 531.5 1 523.5 6.5 c 128,-1,146
 515.5 12 515.5 12 514.5 24 c 0,147,148
 514.5 27 514.5 27 514 35 c 128,-1,149
 513.5 43 513.5 43 508.5 43 c 256,150,151
 503.5 43 503.5 43 502.5 36.5 c 128,-1,152
 501.5 30 501.5 30 501.5 25 c 256,153,154
 501.5 20 501.5 20 503 12.5 c 128,-1,155
 504.5 5 504.5 5 507.5 -1.5 c 128,-1,156
 510.5 -8 510.5 -8 514.5 -13 c 128,-1,157
 518.5 -18 518.5 -18 523.5 -18 c 256,158,159
 528.5 -18 528.5 -18 530 -14 c 128,-1,160
 531.5 -10 531.5 -10 531.5 -7 c 0,144,145
288.5 27 m 0,161,162
 289.5 30 289.5 30 287 32.5 c 128,-1,163
 284.5 35 284.5 35 282.5 35 c 0,164,165
 278.5 36 278.5 36 277 33 c 128,-1,166
 275.5 30 275.5 30 274.5 28 c 0,167,168
 273.5 23 273.5 23 276 21.5 c 128,-1,169
 278.5 20 278.5 20 280.5 20 c 0,170,171
 286.5 20 286.5 20 288.5 27 c 0,161,162
EndSplineSet
EndChar

StartChar: H
Encoding: 72 72 47
Width: 729
VWidth: 1000
GlyphClass: 2
Flags: W
LayerCount: 2
Fore
SplineSet
483.5 0 m 256,0,1
 466.5 0 466.5 0 456.5 9.5 c 128,-1,2
 446.5 19 446.5 19 441.5 33 c 128,-1,3
 436.5 47 436.5 47 435 63 c 128,-1,4
 433.5 79 433.5 79 433.5 92 c 2,5,-1
 433.5 238 l 2,6,7
 433.5 242 433.5 242 433.5 247 c 128,-1,8
 433.5 252 433.5 252 432.5 256.5 c 128,-1,9
 431.5 261 431.5 261 428.5 263.5 c 128,-1,10
 425.5 266 425.5 266 420.5 264 c 2,11,-1
 313.5 233 l 2,12,13
 304.5 231 304.5 231 300 229 c 128,-1,14
 295.5 227 295.5 227 295.5 217 c 2,15,-1
 295.5 105 l 2,16,17
 295.5 93 295.5 93 293.5 75 c 128,-1,18
 291.5 57 291.5 57 286 40.5 c 128,-1,19
 280.5 24 280.5 24 270.5 12 c 128,-1,20
 260.5 0 260.5 0 243.5 0 c 0,21,22
 222.5 0 222.5 0 210.5 10.5 c 128,-1,23
 198.5 21 198.5 21 192.5 37 c 128,-1,24
 186.5 53 186.5 53 185 71 c 128,-1,25
 183.5 89 183.5 89 183.5 105 c 2,26,-1
 183.5 542 l 2,27,28
 183.5 567 183.5 567 198 589.5 c 128,-1,29
 212.5 612 212.5 612 240.5 612 c 0,30,31
 254.5 612 254.5 612 265 605.5 c 128,-1,32
 275.5 599 275.5 599 282.5 588.5 c 128,-1,33
 289.5 578 289.5 578 292.5 565 c 128,-1,34
 295.5 552 295.5 552 295.5 540 c 2,35,-1
 295.5 339 l 2,36,37
 295.5 332 295.5 332 297.5 324.5 c 128,-1,38
 299.5 317 299.5 317 308.5 319 c 2,39,-1
 422.5 349 l 2,40,41
 431.5 351 431.5 351 432.5 356 c 128,-1,42
 433.5 361 433.5 361 433.5 368 c 2,43,-1
 433.5 540 l 2,44,45
 433.5 551 433.5 551 435 564 c 128,-1,46
 436.5 577 436.5 577 441.5 588.5 c 128,-1,47
 446.5 600 446.5 600 455.5 608 c 128,-1,48
 464.5 616 464.5 616 478.5 616 c 0,49,50
 511.5 616 511.5 616 528.5 591.5 c 128,-1,51
 545.5 567 545.5 567 545.5 537 c 2,52,-1
 545.5 91 l 2,53,54
 545.5 78 545.5 78 542 62 c 128,-1,55
 538.5 46 538.5 46 531 32 c 128,-1,56
 523.5 18 523.5 18 512 9 c 128,-1,57
 500.5 0 500.5 0 483.5 0 c 256,0,1
454.5 552 m 256,58,59
 457.5 552 457.5 552 462 558 c 128,-1,60
 466.5 564 466.5 564 470.5 571.5 c 128,-1,61
 474.5 579 474.5 579 477 586.5 c 128,-1,62
 479.5 594 479.5 594 479.5 597 c 256,63,64
 479.5 600 479.5 600 475.5 600 c 0,65,66
 463.5 600 463.5 600 456.5 586 c 128,-1,67
 449.5 572 449.5 572 449.5 562 c 0,68,69
 449.5 560 449.5 560 450.5 556 c 128,-1,70
 451.5 552 451.5 552 454.5 552 c 256,58,59
225.5 30 m 1,71,72
 224.5 36 224.5 36 222.5 40.5 c 128,-1,73
 220.5 45 220.5 45 218 50.5 c 128,-1,74
 215.5 56 215.5 56 214 64.5 c 128,-1,75
 212.5 73 212.5 73 212.5 86 c 0,76,77
 212.5 90 212.5 90 211.5 96.5 c 128,-1,78
 210.5 103 210.5 103 205.5 103 c 0,79,80
 201.5 103 201.5 103 200.5 96 c 128,-1,81
 199.5 89 199.5 89 199.5 86 c 0,82,83
 199.5 82 199.5 82 200.5 72 c 128,-1,84
 201.5 62 201.5 62 203.5 52 c 128,-1,85
 205.5 42 205.5 42 209.5 34.5 c 128,-1,86
 213.5 27 213.5 27 219.5 27 c 2,87,-1
 225.5 30 l 1,71,72
474.5 20 m 0,88,89
 474.5 22 474.5 22 473.5 23 c 128,-1,90
 472.5 24 472.5 24 471.5 26 c 0,91,92
 464.5 35 464.5 35 460.5 50.5 c 128,-1,93
 456.5 66 456.5 66 456.5 77 c 1,94,-1
 454.5 81 l 1,95,96
 449.5 81 449.5 81 448.5 71 c 128,-1,97
 447.5 61 447.5 61 447.5 58 c 0,98,99
 447.5 47 447.5 47 452 32 c 128,-1,100
 456.5 17 456.5 17 471.5 17 c 0,101,102
 474.5 17 474.5 17 474.5 20 c 0,88,89
EndSplineSet
EndChar

StartChar: I
Encoding: 73 73 48
Width: 729
VWidth: 1000
GlyphClass: 2
Flags: W
LayerCount: 2
Fore
SplineSet
304 1 m 0,0,1
 293 1 293 1 281 5.5 c 128,-1,2
 269 10 269 10 269 24 c 0,3,4
 269 34 269 34 278.5 42 c 128,-1,5
 288 50 288 50 305 50 c 0,6,7
 312 50 312 50 315.5 55.5 c 128,-1,8
 319 61 319 61 319 68 c 2,9,-1
 319 548 l 2,10,11
 319 556 319 556 311 561.5 c 128,-1,12
 303 567 303 567 295 567 c 0,13,14
 274 567 274 567 267 575 c 128,-1,15
 260 583 260 583 260 594 c 0,16,17
 260 608 260 608 283.5 613.5 c 128,-1,18
 307 619 307 619 373 619 c 0,19,20
 403 619 403 619 421.5 618 c 128,-1,21
 440 617 440 617 450.5 615 c 128,-1,22
 461 613 461 613 465 609.5 c 128,-1,23
 469 606 469 606 469 601 c 0,24,25
 469 587 469 587 457.5 578 c 128,-1,26
 446 569 446 569 437 566 c 0,27,28
 426 562 426 562 426 547 c 2,29,-1
 426 68 l 2,30,31
 426 63 426 63 427 56.5 c 128,-1,32
 428 50 428 50 433 48 c 0,33,34
 443 45 443 45 450.5 43 c 128,-1,35
 458 41 458 41 461 39 c 0,36,37
 466 34 466 34 466 27 c 0,38,39
 466 14 466 14 458 8 c 0,40,41
 452 3 452 3 431 2 c 128,-1,42
 410 1 410 1 384 0 c 0,43,44
 361 -1 361 -1 337.5 0 c 128,-1,45
 314 1 314 1 304 1 c 0,0,1
353 149 m 0,46,47
 353 170 353 170 351 184 c 128,-1,48
 349 198 349 198 344 198 c 0,49,50
 341 198 341 198 338.5 183.5 c 128,-1,51
 336 169 336 169 335.5 151.5 c 128,-1,52
 335 134 335 134 336 118 c 128,-1,53
 337 102 337 102 340 99 c 0,54,55
 346 93 346 93 349.5 102.5 c 128,-1,56
 353 112 353 112 353 149 c 0,46,47
353 77 m 0,57,58
 353 81 353 81 349 83 c 0,59,60
 347 84 347 84 345 84 c 0,61,62
 341 84 341 84 338 83 c 128,-1,63
 335 82 335 82 335 77 c 0,64,65
 335 69 335 69 344 69 c 256,66,67
 353 69 353 69 353 77 c 0,57,58
EndSplineSet
EndChar

StartChar: J
Encoding: 74 74 49
Width: 729
VWidth: 1000
GlyphClass: 2
Flags: W
LayerCount: 2
Fore
SplineSet
367.5 -8 m 0,0,1
 322.5 -8 322.5 -8 290.5 4.5 c 128,-1,2
 258.5 17 258.5 17 238.5 38.5 c 128,-1,3
 218.5 60 218.5 60 209.5 88.5 c 128,-1,4
 200.5 117 200.5 117 200.5 149 c 0,5,6
 200.5 203 200.5 203 213.5 221.5 c 128,-1,7
 226.5 240 226.5 240 242.5 240 c 0,8,9
 250.5 240 250.5 240 259.5 238 c 128,-1,10
 268.5 236 268.5 236 276.5 230.5 c 128,-1,11
 284.5 225 284.5 225 289.5 215 c 128,-1,12
 294.5 205 294.5 205 294.5 188 c 0,13,14
 294.5 172 294.5 172 296 153 c 128,-1,15
 297.5 134 297.5 134 303 118 c 128,-1,16
 308.5 102 308.5 102 319.5 91.5 c 128,-1,17
 330.5 81 330.5 81 350.5 81 c 0,18,19
 368.5 81 368.5 81 380.5 86 c 128,-1,20
 392.5 91 392.5 91 400 104.5 c 128,-1,21
 407.5 118 407.5 118 410.5 141 c 128,-1,22
 413.5 164 413.5 164 413.5 199 c 0,23,24
 413.5 237 413.5 237 414 290 c 128,-1,25
 414.5 343 414.5 343 414.5 412 c 2,26,-1
 414.5 517 l 2,27,28
 414.5 525 414.5 525 407 530.5 c 128,-1,29
 399.5 536 399.5 536 391.5 536 c 2,30,-1
 350.5 536 l 2,31,32
 296.5 536 296.5 536 274 546 c 128,-1,33
 251.5 556 251.5 556 251.5 579 c 0,34,35
 251.5 594 251.5 594 259.5 601.5 c 128,-1,36
 267.5 609 267.5 609 285.5 612 c 128,-1,37
 303.5 615 303.5 615 332.5 615.5 c 128,-1,38
 361.5 616 361.5 616 403.5 616 c 0,39,40
 463.5 616 463.5 616 493 609 c 128,-1,41
 522.5 602 522.5 602 527.5 584 c 0,42,43
 528.5 581 528.5 581 528.5 558.5 c 128,-1,44
 528.5 536 528.5 536 528.5 502.5 c 128,-1,45
 528.5 469 528.5 469 528 429.5 c 128,-1,46
 527.5 390 527.5 390 527.5 353 c 0,47,48
 526.5 289 526.5 289 526.5 247 c 128,-1,49
 526.5 205 526.5 205 526 177 c 128,-1,50
 525.5 149 525.5 149 523 129.5 c 128,-1,51
 520.5 110 520.5 110 515.5 90 c 0,52,53
 508.5 65 508.5 65 492.5 46.5 c 128,-1,54
 476.5 28 476.5 28 455.5 16 c 128,-1,55
 434.5 4 434.5 4 411.5 -2 c 128,-1,56
 388.5 -8 388.5 -8 367.5 -8 c 0,0,1
307.5 594 m 0,57,58
 309.5 599 309.5 599 305.5 600 c 0,59,60
 298.5 602 298.5 602 285 598 c 128,-1,61
 271.5 594 271.5 594 269.5 587 c 0,62,63
 268.5 584 268.5 584 269.5 580.5 c 128,-1,64
 270.5 577 270.5 577 272.5 576 c 0,65,66
 280.5 574 280.5 574 293 581 c 128,-1,67
 305.5 588 305.5 588 307.5 594 c 0,57,58
221.5 144 m 0,68,69
 226.5 145 226.5 145 228 157 c 128,-1,70
 229.5 169 229.5 169 230.5 173 c 0,71,72
 232.5 183 232.5 183 235 194 c 128,-1,73
 237.5 205 237.5 205 244.5 214 c 0,74,75
 249.5 219 249.5 219 248.5 223 c 0,76,77
 248.5 225 248.5 225 246.5 226.5 c 128,-1,78
 244.5 228 244.5 228 242.5 227 c 0,79,80
 233.5 226 233.5 226 227.5 217 c 128,-1,81
 221.5 208 221.5 208 218.5 197 c 128,-1,82
 215.5 186 215.5 186 214.5 176 c 128,-1,83
 213.5 166 213.5 166 213.5 163 c 0,84,85
 214.5 155 214.5 155 216.5 149 c 128,-1,86
 218.5 143 218.5 143 221.5 144 c 0,68,69
EndSplineSet
EndChar

StartChar: K
Encoding: 75 75 50
Width: 729
VWidth: 1000
GlyphClass: 2
Flags: W
LayerCount: 2
Fore
SplineSet
316 575 m 0,0,1
 276 575 276 575 247.5 603 c 128,-1,2
 219 631 219 631 219 675 c 0,3,4
 219 699 219 699 227.5 720.5 c 128,-1,5
 236 742 236 742 251 757.5 c 128,-1,6
 266 773 266 773 287 782.5 c 128,-1,7
 308 792 308 792 333 792 c 0,8,9
 353 792 353 792 370 783.5 c 128,-1,10
 387 775 387 775 399 760 c 128,-1,11
 411 745 411 745 417.5 726 c 128,-1,12
 424 707 424 707 424 686 c 0,13,14
 424 659 424 659 415.5 638.5 c 128,-1,15
 407 618 407 618 392 604 c 128,-1,16
 377 590 377 590 357.5 582.5 c 128,-1,17
 338 575 338 575 316 575 c 0,0,1
279 748 m 0,18,19
 286 755 286 755 287.5 760 c 128,-1,20
 289 765 289 765 287 765 c 0,21,22
 279 765 279 765 270 757.5 c 128,-1,23
 261 750 261 750 253.5 739.5 c 128,-1,24
 246 729 246 729 241 717 c 128,-1,25
 236 705 236 705 236 695 c 0,26,27
 236 693 236 693 237.5 687 c 128,-1,28
 239 681 239 681 242 681 c 0,29,30
 246 681 246 681 252 703 c 0,31,32
 255 717 255 717 263 728.5 c 128,-1,33
 271 740 271 740 279 748 c 0,18,19
320 632 m 0,34,35
 332 632 332 632 348.5 646 c 128,-1,36
 365 660 365 660 365 686 c 0,37,38
 365 706 365 706 354.5 719.5 c 128,-1,39
 344 733 344 733 327 733 c 256,40,41
 310 733 310 733 296 719.5 c 128,-1,42
 282 706 282 706 282 682 c 256,43,44
 282 658 282 658 293 645 c 128,-1,45
 304 632 304 632 320 632 c 0,34,35
231 0 m 0,46,47
 210 0 210 0 200 11 c 128,-1,48
 190 22 190 22 186.5 38.5 c 128,-1,49
 183 55 183 55 183 73 c 128,-1,50
 183 91 183 91 183 105 c 2,51,-1
 183 204 l 1,52,-1
 182 402 l 1,53,-1
 182 428 l 2,54,55
 182 455 182 455 184 476 c 128,-1,56
 186 497 186 497 192 512 c 128,-1,57
 198 527 198 527 209.5 535 c 128,-1,58
 221 543 221 543 241 543 c 0,59,60
 264 543 264 543 281.5 524.5 c 128,-1,61
 299 506 299 506 299 476 c 0,62,63
 299 471 299 471 298.5 456 c 128,-1,64
 298 441 298 441 298 421 c 2,65,-1
 298 429 l 1,66,-1
 298 410 l 2,67,68
 298 391 298 391 299.5 379 c 128,-1,69
 301 367 301 367 303 367 c 0,70,71
 307 367 307 367 318.5 385.5 c 128,-1,72
 330 404 330 404 345.5 431.5 c 128,-1,73
 361 459 361 459 379 491.5 c 128,-1,74
 397 524 397 524 415 551.5 c 128,-1,75
 433 579 433 579 449.5 597.5 c 128,-1,76
 466 616 466 616 477 616 c 0,77,78
 486 616 486 616 497 613 c 128,-1,79
 508 610 508 610 517 604 c 128,-1,80
 526 598 526 598 532 589 c 128,-1,81
 538 580 538 580 538 567 c 0,82,83
 538 559 538 559 527 537.5 c 128,-1,84
 516 516 516 516 500 489 c 128,-1,85
 484 462 484 462 465 432 c 128,-1,86
 446 402 446 402 430 376.5 c 128,-1,87
 414 351 414 351 403 333.5 c 128,-1,88
 392 316 392 316 392 313 c 0,89,90
 392 309 392 309 403.5 290 c 128,-1,91
 415 271 415 271 432 245 c 128,-1,92
 449 219 449 219 469.5 188.5 c 128,-1,93
 490 158 490 158 507 130 c 128,-1,94
 524 102 524 102 535.5 80 c 128,-1,95
 547 58 547 58 547 48 c 0,96,97
 547 35 547 35 538.5 26 c 128,-1,98
 530 17 530 17 518 11 c 128,-1,99
 506 5 506 5 494 2 c 128,-1,100
 482 -1 482 -1 474 -1 c 0,101,102
 460 -1 460 -1 445 17.5 c 128,-1,103
 430 36 430 36 418 57 c 0,104,105
 414 64 414 64 405.5 80.5 c 128,-1,106
 397 97 397 97 385.5 118 c 128,-1,107
 374 139 374 139 361.5 161.5 c 128,-1,108
 349 184 349 184 337.5 203 c 128,-1,109
 326 222 326 222 317.5 234 c 128,-1,110
 309 246 309 246 305 246 c 0,111,112
 297 246 297 246 297 234.5 c 128,-1,113
 297 223 297 223 297 215 c 2,114,-1
 297 164 l 1,115,-1
 298 125 l 1,116,-1
 298 102 l 2,117,118
 298 51 298 51 282 25.5 c 128,-1,119
 266 0 266 0 231 0 c 0,46,47
201 488 m 0,120,121
 206 487 206 487 210.5 491 c 128,-1,122
 215 495 215 495 218.5 500.5 c 128,-1,123
 222 506 222 506 225 512.5 c 128,-1,124
 228 519 228 519 229 523 c 0,125,126
 230 526 230 526 227 528.5 c 128,-1,127
 224 531 224 531 221 531 c 0,128,129
 217 531 217 531 213 526 c 128,-1,130
 209 521 209 521 205.5 514.5 c 128,-1,131
 202 508 202 508 200 501.5 c 128,-1,132
 198 495 198 495 198 492 c 0,133,134
 198 488 198 488 201 488 c 0,120,121
451 558 m 0,135,136
 454 558 454 558 460 562.5 c 128,-1,137
 466 567 466 567 472 573 c 128,-1,138
 478 579 478 579 482 585.5 c 128,-1,139
 486 592 486 592 485 596 c 0,140,141
 485 600 485 600 481 600 c 0,142,143
 478 601 478 601 471.5 596.5 c 128,-1,144
 465 592 465 592 458.5 585.5 c 128,-1,145
 452 579 452 579 447.5 573 c 128,-1,146
 443 567 443 567 444 564 c 0,147,148
 446 559 446 559 451 558 c 0,135,136
216 70 m 0,149,150
 216 74 216 74 216 84.5 c 128,-1,151
 216 95 216 95 215 106 c 128,-1,152
 214 117 214 117 212 125.5 c 128,-1,153
 210 134 210 134 206 134 c 0,154,155
 203 134 203 134 200.5 129 c 128,-1,156
 198 124 198 124 197 117 c 128,-1,157
 196 110 196 110 195.5 103.5 c 128,-1,158
 195 97 195 97 195 95 c 0,159,160
 195 91 195 91 195 82.5 c 128,-1,161
 195 74 195 74 196.5 65 c 128,-1,162
 198 56 198 56 201 49.5 c 128,-1,163
 204 43 204 43 210 43 c 0,164,165
 212 43 212 43 213.5 47 c 128,-1,166
 215 51 215 51 215.5 55.5 c 128,-1,167
 216 60 216 60 216 64.5 c 128,-1,168
 216 69 216 69 216 70 c 0,149,150
477 21 m 0,169,170
 477 24 477 24 474 30.5 c 128,-1,171
 471 37 471 37 466.5 43 c 128,-1,172
 462 49 462 49 457 54 c 128,-1,173
 452 59 452 59 449 59 c 0,174,175
 447 59 447 59 446 55.5 c 128,-1,176
 445 52 445 52 445 50 c 0,177,178
 445 47 445 47 447.5 41 c 128,-1,179
 450 35 450 35 453.5 29 c 128,-1,180
 457 23 457 23 462 19 c 128,-1,181
 467 15 467 15 471 15 c 0,182,183
 477 15 477 15 477 21 c 0,169,170
226 25 m 0,184,185
 228 29 228 29 225 32.5 c 128,-1,186
 222 36 222 36 218 36 c 0,187,188
 213 36 213 36 210.5 32.5 c 128,-1,189
 208 29 208 29 210 25 c 0,190,191
 212 17 212 17 218 17 c 256,192,193
 224 17 224 17 226 25 c 0,184,185
EndSplineSet
EndChar

StartChar: L
Encoding: 76 76 51
Width: 729
VWidth: 1000
GlyphClass: 2
Flags: W
LayerCount: 2
Fore
SplineSet
382.5 569 m 0,0,1
 342.5 569 342.5 569 314 597 c 128,-1,2
 285.5 625 285.5 625 285.5 669 c 0,3,4
 285.5 693 285.5 693 294 714.5 c 128,-1,5
 302.5 736 302.5 736 317.5 751.5 c 128,-1,6
 332.5 767 332.5 767 353.5 776.5 c 128,-1,7
 374.5 786 374.5 786 399.5 786 c 0,8,9
 419.5 786 419.5 786 436.5 777.5 c 128,-1,10
 453.5 769 453.5 769 465.5 754 c 128,-1,11
 477.5 739 477.5 739 484 720 c 128,-1,12
 490.5 701 490.5 701 490.5 680 c 0,13,14
 490.5 653 490.5 653 482 632.5 c 128,-1,15
 473.5 612 473.5 612 458.5 598 c 128,-1,16
 443.5 584 443.5 584 424 576.5 c 128,-1,17
 404.5 569 404.5 569 382.5 569 c 0,0,1
345.5 742 m 0,18,19
 352.5 749 352.5 749 354 754 c 128,-1,20
 355.5 759 355.5 759 353.5 759 c 0,21,22
 345.5 759 345.5 759 336.5 751.5 c 128,-1,23
 327.5 744 327.5 744 320 733.5 c 128,-1,24
 312.5 723 312.5 723 307.5 711 c 128,-1,25
 302.5 699 302.5 699 302.5 689 c 0,26,27
 302.5 687 302.5 687 304 681 c 128,-1,28
 305.5 675 305.5 675 308.5 675 c 0,29,30
 312.5 675 312.5 675 318.5 697 c 0,31,32
 321.5 711 321.5 711 329.5 722.5 c 128,-1,33
 337.5 734 337.5 734 345.5 742 c 0,18,19
386.5 626 m 0,34,35
 398.5 626 398.5 626 415 640 c 128,-1,36
 431.5 654 431.5 654 431.5 680 c 0,37,38
 431.5 700 431.5 700 421 713.5 c 128,-1,39
 410.5 727 410.5 727 393.5 727 c 256,40,41
 376.5 727 376.5 727 362.5 713.5 c 128,-1,42
 348.5 700 348.5 700 348.5 676 c 256,43,44
 348.5 652 348.5 652 359.5 639 c 128,-1,45
 370.5 626 370.5 626 386.5 626 c 0,34,35
255.5 0 m 2,46,47
 244.5 0 244.5 0 236 8 c 128,-1,48
 227.5 16 227.5 16 227.5 27 c 2,49,-1
 227.5 492 l 2,50,51
 227.5 503 227.5 503 229 514 c 128,-1,52
 230.5 525 230.5 525 236.5 534 c 128,-1,53
 242.5 543 242.5 543 254 549 c 128,-1,54
 265.5 555 265.5 555 285.5 555 c 0,55,56
 308.5 555 308.5 555 325 537 c 128,-1,57
 341.5 519 341.5 519 341.5 499 c 2,58,-1
 341.5 121 l 2,59,60
 341.5 103 341.5 103 348.5 98.5 c 128,-1,61
 355.5 94 355.5 94 364.5 94 c 0,62,63
 381.5 94 381.5 94 395 94.5 c 128,-1,64
 408.5 95 408.5 95 421 95.5 c 128,-1,65
 433.5 96 433.5 96 447 96.5 c 128,-1,66
 460.5 97 460.5 97 477.5 97 c 0,67,68
 491.5 97 491.5 97 496.5 82.5 c 128,-1,69
 501.5 68 501.5 68 501.5 54 c 0,70,71
 501.5 34 501.5 34 489 16.5 c 128,-1,72
 476.5 -1 476.5 -1 462.5 -1 c 2,73,-1
 415.5 -1 l 1,74,-1
 332.5 0 l 1,75,-1
 255.5 0 l 2,46,47
245.5 488 m 0,76,77
 248.5 488 248.5 488 253 494.5 c 128,-1,78
 257.5 501 257.5 501 262 510 c 128,-1,79
 266.5 519 266.5 519 270 527 c 128,-1,80
 273.5 535 273.5 535 273.5 538 c 0,81,82
 273.5 543 273.5 543 265.5 543 c 0,83,84
 260.5 543 260.5 543 255.5 536.5 c 128,-1,85
 250.5 530 250.5 530 247 522 c 128,-1,86
 243.5 514 243.5 514 241.5 506 c 128,-1,87
 239.5 498 239.5 498 240.5 494 c 0,88,89
 240.5 488 240.5 488 245.5 488 c 0,76,77
256.5 59 m 0,90,91
 261.5 59 261.5 59 263.5 70 c 128,-1,92
 265.5 81 265.5 81 266.5 96.5 c 128,-1,93
 267.5 112 267.5 112 267 128.5 c 128,-1,94
 266.5 145 266.5 145 266.5 155 c 0,95,96
 266.5 159 266.5 159 266 165 c 128,-1,97
 265.5 171 265.5 171 264 177 c 128,-1,98
 262.5 183 262.5 183 260 187 c 128,-1,99
 257.5 191 257.5 191 252.5 191 c 0,100,101
 249.5 191 249.5 191 248 182.5 c 128,-1,102
 246.5 174 246.5 174 245.5 163 c 128,-1,103
 244.5 152 244.5 152 244.5 142.5 c 128,-1,104
 244.5 133 244.5 133 244.5 130 c 256,105,106
 244.5 127 244.5 127 245 115.5 c 128,-1,107
 245.5 104 245.5 104 247 91.5 c 128,-1,108
 248.5 79 248.5 79 250.5 69 c 128,-1,109
 252.5 59 252.5 59 256.5 59 c 0,90,91
273.5 30 m 0,110,111
 273.5 41 273.5 41 266.5 41 c 0,112,113
 256.5 41 256.5 41 256.5 30 c 0,114,115
 256.5 22 256.5 22 264.5 22 c 0,116,117
 267.5 22 267.5 22 270.5 24 c 128,-1,118
 273.5 26 273.5 26 273.5 30 c 0,110,111
EndSplineSet
EndChar

StartChar: M
Encoding: 77 77 52
Width: 729
VWidth: 1000
GlyphClass: 2
Flags: W
LayerCount: 2
Fore
SplineSet
388 599 m 0,0,1
 348 599 348 599 319.5 627 c 128,-1,2
 291 655 291 655 291 699 c 0,3,4
 291 723 291 723 299.5 744.5 c 128,-1,5
 308 766 308 766 323 781.5 c 128,-1,6
 338 797 338 797 359 806.5 c 128,-1,7
 380 816 380 816 405 816 c 0,8,9
 425 816 425 816 442 807.5 c 128,-1,10
 459 799 459 799 471 784 c 128,-1,11
 483 769 483 769 489.5 750 c 128,-1,12
 496 731 496 731 496 710 c 0,13,14
 496 683 496 683 487.5 662.5 c 128,-1,15
 479 642 479 642 464 628 c 128,-1,16
 449 614 449 614 429.5 606.5 c 128,-1,17
 410 599 410 599 388 599 c 0,0,1
351 772 m 0,18,19
 358 779 358 779 359.5 784 c 128,-1,20
 361 789 361 789 359 789 c 0,21,22
 351 789 351 789 342 781.5 c 128,-1,23
 333 774 333 774 325.5 763.5 c 128,-1,24
 318 753 318 753 313 741 c 128,-1,25
 308 729 308 729 308 719 c 0,26,27
 308 717 308 717 309.5 711 c 128,-1,28
 311 705 311 705 314 705 c 0,29,30
 318 705 318 705 324 727 c 0,31,32
 327 741 327 741 335 752.5 c 128,-1,33
 343 764 343 764 351 772 c 0,18,19
392 656 m 0,34,35
 404 656 404 656 420.5 670 c 128,-1,36
 437 684 437 684 437 710 c 0,37,38
 437 730 437 730 426.5 743.5 c 128,-1,39
 416 757 416 757 399 757 c 256,40,41
 382 757 382 757 368 743.5 c 128,-1,42
 354 730 354 730 354 706 c 256,43,44
 354 682 354 682 365 669 c 128,-1,45
 376 656 376 656 392 656 c 0,34,35
140 0 m 0,46,47
 125 0 125 0 116 5.5 c 128,-1,48
 107 11 107 11 102.5 20 c 128,-1,49
 98 29 98 29 96.5 40.5 c 128,-1,50
 95 52 95 52 95 65 c 2,51,-1
 95 496 l 2,52,53
 95 507 95 507 95.5 520 c 128,-1,54
 96 533 96 533 100 544 c 128,-1,55
 104 555 104 555 113 562.5 c 128,-1,56
 122 570 122 570 138 570 c 0,57,58
 158 570 158 570 168 555.5 c 128,-1,59
 178 541 178 541 182.5 523 c 128,-1,60
 187 505 187 505 188 490.5 c 128,-1,61
 189 476 189 476 191 476 c 256,62,63
 193 476 193 476 197 491.5 c 128,-1,64
 201 507 201 507 211.5 525 c 128,-1,65
 222 543 222 543 241 558.5 c 128,-1,66
 260 574 260 574 293 574 c 0,67,68
 321 574 321 574 339 559 c 128,-1,69
 357 544 357 544 368 525.5 c 128,-1,70
 379 507 379 507 385 492 c 128,-1,71
 391 477 391 477 394 477 c 256,72,73
 397 477 397 477 402.5 492 c 128,-1,74
 408 507 408 507 419 525.5 c 128,-1,75
 430 544 430 544 449.5 559 c 128,-1,76
 469 574 469 574 501 574 c 0,77,78
 542 574 542 574 568 554 c 128,-1,79
 594 534 594 534 608.5 498.5 c 128,-1,80
 623 463 623 463 628.5 414.5 c 128,-1,81
 634 366 634 366 634 310 c 2,82,-1
 634 27 l 2,83,84
 634 13 634 13 615 6.5 c 128,-1,85
 596 0 596 0 576 0 c 256,86,87
 556 0 556 0 545 5.5 c 128,-1,88
 534 11 534 11 534 26 c 2,89,-1
 534 301 l 2,90,91
 534 313 534 313 534 341.5 c 128,-1,92
 534 370 534 370 529.5 400 c 128,-1,93
 525 430 525 430 514.5 452.5 c 128,-1,94
 504 475 504 475 483 475 c 0,95,96
 465 475 465 475 453.5 461 c 128,-1,97
 442 447 442 447 435 422.5 c 128,-1,98
 428 398 428 398 424.5 363.5 c 128,-1,99
 421 329 421 329 419 287 c 0,100,101
 416 238 416 238 415 211 c 128,-1,102
 414 184 414 184 414.5 141.5 c 128,-1,103
 415 99 415 99 415.5 69.5 c 128,-1,104
 416 40 416 40 416 31 c 0,105,106
 416 17 416 17 399.5 8.5 c 128,-1,107
 383 0 383 0 359 0 c 256,108,109
 335 0 335 0 325 7 c 128,-1,110
 315 14 315 14 315 38 c 2,111,-1
 315 301 l 2,112,113
 315 312 315 312 315 341 c 128,-1,114
 315 370 315 370 311 400 c 128,-1,115
 307 430 307 430 297 453 c 128,-1,116
 287 476 287 476 267 476 c 0,117,118
 249 476 249 476 236.5 460.5 c 128,-1,119
 224 445 224 445 216 421 c 128,-1,120
 208 397 208 397 203.5 367 c 128,-1,121
 199 337 199 337 197 309 c 128,-1,122
 195 281 195 281 194.5 257 c 128,-1,123
 194 233 194 233 194 221 c 2,124,-1
 194 45 l 2,125,126
 194 26 194 26 178 13 c 128,-1,127
 162 0 162 0 140 0 c 0,46,47
119 476 m 0,128,129
 125 477 125 477 125.5 487.5 c 128,-1,130
 126 498 126 498 126 506 c 0,131,132
 126 513 126 513 128 521.5 c 128,-1,133
 130 530 130 530 131.5 537 c 128,-1,134
 133 544 133 544 133 549 c 128,-1,135
 133 554 133 554 129 554 c 0,136,137
 122 554 122 554 117.5 547.5 c 128,-1,138
 113 541 113 541 111 532 c 128,-1,139
 109 523 109 523 108 515 c 128,-1,140
 107 507 107 507 107 504 c 0,141,142
 107 496 107 496 109 485.5 c 128,-1,143
 111 475 111 475 119 476 c 0,128,129
350 23 m 0,144,145
 350 33 350 33 343.5 36.5 c 128,-1,146
 337 40 337 40 337 51 c 0,147,148
 337 53 337 53 337 58.5 c 128,-1,149
 337 64 337 64 336.5 69.5 c 128,-1,150
 336 75 336 75 334 79.5 c 128,-1,151
 332 84 332 84 329 84 c 0,152,153
 327 84 327 84 326 79.5 c 128,-1,154
 325 75 325 75 324.5 69 c 128,-1,155
 324 63 324 63 324 57.5 c 128,-1,156
 324 52 324 52 324 50 c 0,157,158
 324 38 324 38 327.5 24.5 c 128,-1,159
 331 11 331 11 341 11 c 0,160,161
 350 11 350 11 350 23 c 0,144,145
566 24 m 0,162,163
 566 34 566 34 560.5 41.5 c 128,-1,164
 555 49 555 49 555 60 c 0,165,166
 555 64 555 64 554.5 74 c 128,-1,167
 554 84 554 84 548 84 c 0,168,169
 543 84 543 84 542.5 73 c 128,-1,170
 542 62 542 62 542 59 c 256,171,172
 542 56 542 56 542.5 48 c 128,-1,173
 543 40 543 40 545 32.5 c 128,-1,174
 547 25 547 25 550 19 c 128,-1,175
 553 13 553 13 558 13 c 0,176,177
 562 13 562 13 564 17.5 c 128,-1,178
 566 22 566 22 566 24 c 0,162,163
138 24 m 0,179,180
 138 35 138 35 133.5 36 c 128,-1,181
 129 37 129 37 124 44 c 0,182,183
 123 46 123 46 122.5 51.5 c 128,-1,184
 122 57 122 57 122 62.5 c 128,-1,185
 122 68 122 68 120.5 72.5 c 128,-1,186
 119 77 119 77 116 77 c 0,187,188
 111 77 111 77 110.5 67.5 c 128,-1,189
 110 58 110 58 110 51 c 0,190,191
 110 47 110 47 111 41 c 128,-1,192
 112 35 112 35 114.5 29 c 128,-1,193
 117 23 117 23 120.5 18.5 c 128,-1,194
 124 14 124 14 129 14 c 0,195,196
 138 14 138 14 138 24 c 0,179,180
EndSplineSet
EndChar

StartChar: N
Encoding: 78 78 53
Width: 729
VWidth: 1000
GlyphClass: 2
Flags: W
LayerCount: 2
Fore
SplineSet
344 558 m 4,0,1
 304 558 304 558 275.5 586 c 132,-1,2
 247 614 247 614 247 658 c 4,3,4
 247 682 247 682 255.5 703.5 c 132,-1,5
 264 725 264 725 279 740.5 c 132,-1,6
 294 756 294 756 315 765.5 c 132,-1,7
 336 775 336 775 361 775 c 4,8,9
 381 775 381 775 398 766.5 c 132,-1,10
 415 758 415 758 427 743 c 132,-1,11
 439 728 439 728 445.5 709 c 132,-1,12
 452 690 452 690 452 669 c 4,13,14
 452 642 452 642 443.5 621.5 c 132,-1,15
 435 601 435 601 420 587 c 132,-1,16
 405 573 405 573 385.5 565.5 c 132,-1,17
 366 558 366 558 344 558 c 4,0,1
307 731 m 4,18,19
 314 738 314 738 315.5 743 c 132,-1,20
 317 748 317 748 315 748 c 4,21,22
 307 748 307 748 298 740.5 c 132,-1,23
 289 733 289 733 281.5 722.5 c 132,-1,24
 274 712 274 712 269 700 c 132,-1,25
 264 688 264 688 264 678 c 4,26,27
 264 676 264 676 265.5 670 c 132,-1,28
 267 664 267 664 270 664 c 4,29,30
 274 664 274 664 280 686 c 4,31,32
 283 700 283 700 291 711.5 c 132,-1,33
 299 723 299 723 307 731 c 4,18,19
348 615 m 4,34,35
 360 615 360 615 376.5 629 c 132,-1,36
 393 643 393 643 393 669 c 4,37,38
 393 689 393 689 382.5 702.5 c 132,-1,39
 372 716 372 716 355 716 c 260,40,41
 338 716 338 716 324 702.5 c 132,-1,42
 310 689 310 689 310 665 c 260,43,44
 310 641 310 641 321 628 c 132,-1,45
 332 615 332 615 348 615 c 4,34,35
236 0 m 0,46,47
 211 0 211 0 201 14.5 c 128,-1,48
 191 29 191 29 191 65 c 2,49,-1
 191 422 l 2,50,51
 191 466 191 466 200.5 481 c 128,-1,52
 210 496 210 496 239 496 c 0,53,54
 258 496 258 496 276 486.5 c 128,-1,55
 294 477 294 477 294 451 c 2,56,-1
 294 437 l 2,57,58
 294 397 294 397 298 397 c 256,59,60
 302 397 302 397 307 413 c 128,-1,61
 312 429 312 429 324 448.5 c 128,-1,62
 336 468 336 468 358 484 c 128,-1,63
 380 500 380 500 416 500 c 0,64,65
 480 500 480 500 509 437 c 128,-1,66
 538 374 538 374 538 236 c 2,67,-1
 538 31 l 2,68,69
 538 0 538 0 482 0 c 0,70,71
 455 0 455 0 443 11.5 c 128,-1,72
 431 23 431 23 431 34 c 2,73,-1
 431 227 l 2,74,75
 431 279 431 279 428 311 c 128,-1,76
 425 343 425 343 419 361 c 128,-1,77
 413 379 413 379 403.5 385.5 c 128,-1,78
 394 392 394 392 380 392 c 0,79,80
 359 392 359 392 343.5 372.5 c 128,-1,81
 328 353 328 353 318 320 c 128,-1,82
 308 287 308 287 303.5 242.5 c 128,-1,83
 299 198 299 198 299 147 c 2,84,-1
 299 45 l 2,85,86
 299 30 299 30 291.5 21 c 128,-1,87
 284 12 284 12 274 7.5 c 128,-1,88
 264 3 264 3 253.5 1.5 c 128,-1,89
 243 0 243 0 236 0 c 0,46,47
211 395 m 0,90,91
 214 395 214 395 216 407 c 128,-1,92
 218 419 218 419 220 434 c 128,-1,93
 222 449 222 449 223 461.5 c 128,-1,94
 224 474 224 474 224 475 c 0,95,96
 224 477 224 477 223.5 480 c 128,-1,97
 223 483 223 483 221 483 c 0,98,99
 216 483 216 483 212.5 475.5 c 128,-1,100
 209 468 209 468 207 458.5 c 128,-1,101
 205 449 205 449 204 439.5 c 128,-1,102
 203 430 203 430 203 427 c 0,103,104
 203 419 203 419 205 407 c 128,-1,105
 207 395 207 395 211 395 c 0,90,91
468 29 m 0,106,107
 468 35 468 35 466 38 c 128,-1,108
 464 41 464 41 461.5 43 c 128,-1,109
 459 45 459 45 457 49 c 128,-1,110
 455 53 455 53 455 60 c 0,111,112
 455 76 455 76 453.5 80 c 128,-1,113
 452 84 452 84 447 84 c 256,114,115
 442 84 442 84 440.5 76.5 c 128,-1,116
 439 69 439 69 439 59 c 0,117,118
 439 39 439 39 445 27 c 128,-1,119
 451 15 451 15 459 15 c 0,120,121
 462 15 462 15 465 18.5 c 128,-1,122
 468 22 468 22 468 29 c 0,106,107
235 26 m 0,123,124
 235 31 235 31 232.5 33.5 c 128,-1,125
 230 36 230 36 227 38.5 c 128,-1,126
 224 41 224 41 221.5 45 c 128,-1,127
 219 49 219 49 219 56 c 0,128,129
 219 77 219 77 212 77 c 0,130,131
 210 77 210 77 208 69.5 c 128,-1,132
 206 62 206 62 206 51 c 0,133,134
 206 36 206 36 212.5 24 c 128,-1,135
 219 12 219 12 227 12 c 0,136,137
 229 12 229 12 232 16 c 128,-1,138
 235 20 235 20 235 26 c 0,123,124
EndSplineSet
EndChar

StartChar: O
Encoding: 79 79 54
Width: 729
VWidth: 1000
GlyphClass: 2
Flags: W
LayerCount: 2
Fore
SplineSet
238 341.5 m 0,0,1
 225 346 225 346 216.5 355 c 128,-1,2
 208 364 208 364 205.5 374 c 128,-1,3
 203 384 203 384 206.5 394.5 c 0,4,5
 211 406 211 406 220 411.5 c 0,6,7
 225 414 225 414 232.5 416.5 c 0,8,9
 240 418 240 418 253.5 420 c 128,-1,10
 267 422 267 422 287 422 c 0,11,12
 347 422 347 422 378 422.5 c 0,13,14
 450 422 450 422 475 421 c 128,-1,15
 500 420 500 420 512.5 414.5 c 0,16,17
 525 410 525 410 528 400.5 c 0,18,19
 531 392 531 392 531 376.5 c 0,20,21
 531 364 531 364 525.5 357 c 128,-1,22
 520 350 520 350 506 345 c 128,-1,23
 492 340 492 340 468 338.5 c 0,24,25
 444 336 444 336 378 336.5 c 0,26,27
 300 336 300 336 271.5 338 c 128,-1,28
 243 340 243 340 238 341.5 c 0,0,1
246 402.5 m 0,29,30
 246 404 246 404 243.5 406 c 0,31,32
 242 407 242 407 237 404.5 c 128,-1,33
 232 402 232 402 229.5 392.5 c 0,34,35
 227 384 227 384 227 376.5 c 256,36,37
 227 370 227 370 229 369.5 c 0,38,39
 232 370 232 370 237 382.5 c 0,40,41
 243 396 243 396 243 396.5 c 0,42,43
 246 399 246 399 246 402.5 c 0,29,30
236 180.5 m 0,44,45
 217 184 217 184 207.5 198 c 128,-1,46
 198 212 198 212 205 226.5 c 0,47,48
 210 236 210 236 217.5 240.5 c 0,49,50
 225 246 225 246 240.5 248 c 0,51,52
 264 251 264 251 281 251 c 0,53,54
 345 251 345 251 398.5 251.5 c 128,-1,55
 452 252 452 252 477.5 250 c 128,-1,56
 503 248 503 248 517 245 c 128,-1,57
 531 242 531 242 536.5 235 c 128,-1,58
 542 228 542 228 542 217.5 c 0,59,60
 542 204 542 204 536 195.5 c 0,61,62
 530 186 530 186 514.5 181.5 c 0,63,64
 499 176 499 176 473 174 c 0,65,66
 436 171 436 171 379 171.5 c 0,67,68
 301 172 301 172 272.5 175 c 128,-1,69
 244 178 244 178 236 180.5 c 0,44,45
239 229.5 m 0,70,71
 239 232 239 232 236 232.5 c 256,72,73
 233 232 233 232 232 231.5 c 0,74,75
 230 230 230 230 227 226 c 128,-1,76
 224 222 224 222 224 214.5 c 0,77,78
 224 206 224 206 225.5 204.5 c 0,79,80
 227 204 227 204 232 208.5 c 0,81,82
 236 212 236 212 237.5 218.5 c 0,83,84
 239 224 239 224 239 229.5 c 0,70,71
362 -10 m 0,85,86
 290 -10 290 -10 236.5 17.5 c 128,-1,87
 183 45 183 45 148 88.5 c 128,-1,88
 113 132 113 132 95.5 186 c 128,-1,89
 78 240 78 240 78 294 c 0,90,91
 78 360 78 360 98 416 c 128,-1,92
 118 472 118 472 155.5 512.5 c 128,-1,93
 193 553 193 553 247 576 c 128,-1,94
 301 599 301 599 368 599 c 0,95,96
 430 599 430 599 482 576.5 c 128,-1,97
 534 554 534 554 571.5 514.5 c 128,-1,98
 609 475 609 475 630 420.5 c 128,-1,99
 651 366 651 366 651 303 c 0,100,101
 651 239 651 239 629.5 182 c 128,-1,102
 608 125 608 125 569.5 82.5 c 128,-1,103
 531 40 531 40 478 15 c 128,-1,104
 425 -10 425 -10 362 -10 c 0,85,86
364 67 m 0,105,106
 465 67 465 67 516.5 130.5 c 128,-1,107
 568 194 568 194 568 303 c 0,108,109
 568 347 568 347 554.5 387.5 c 128,-1,110
 541 428 541 428 515 459 c 128,-1,111
 489 490 489 490 452 508.5 c 128,-1,112
 415 527 415 527 368 527 c 0,113,114
 323 527 323 527 285.5 509 c 128,-1,115
 248 491 248 491 221 461 c 128,-1,116
 194 431 194 431 179 391 c 128,-1,117
 164 351 164 351 164 306 c 256,118,119
 164 261 164 261 177.5 218 c 128,-1,120
 191 175 191 175 216.5 141.5 c 128,-1,121
 242 108 242 108 279 87.5 c 128,-1,122
 316 67 316 67 364 67 c 0,105,106
EndSplineSet

EndChar

StartChar: P
Encoding: 80 80 55
Width: 729
VWidth: 1000
GlyphClass: 2
Flags: W
LayerCount: 2
Fore
SplineSet
236.5 -14 m 0,0,1
 216.5 -14 216.5 -14 199.5 1 c 128,-1,2
 182.5 16 182.5 16 182.5 69 c 2,3,-1
 182.5 526 l 2,4,5
 182.5 547 182.5 547 191 564 c 128,-1,6
 199.5 581 199.5 581 214 592.5 c 128,-1,7
 228.5 604 228.5 604 247 610 c 128,-1,8
 265.5 616 265.5 616 285.5 616 c 2,9,-1
 344.5 616 l 2,10,11
 375.5 616 375.5 616 411 604 c 128,-1,12
 446.5 592 446.5 592 476.5 566 c 128,-1,13
 506.5 540 506.5 540 526.5 498 c 128,-1,14
 546.5 456 546.5 456 546.5 397 c 256,15,16
 546.5 338 546.5 338 527 291.5 c 128,-1,17
 507.5 245 507.5 245 478.5 213.5 c 128,-1,18
 449.5 182 449.5 182 415.5 165.5 c 128,-1,19
 381.5 149 381.5 149 351.5 149 c 2,20,-1
 322.5 149 l 2,21,22
 313.5 149 313.5 149 305 145 c 128,-1,23
 296.5 141 296.5 141 296.5 132 c 2,24,-1
 296.5 65 l 2,25,26
 296.5 33 296.5 33 291 21 c 128,-1,27
 285.5 9 285.5 9 276.5 1 c 128,-1,28
 267.5 -7 267.5 -7 257 -10.5 c 128,-1,29
 246.5 -14 246.5 -14 236.5 -14 c 0,0,1
340.5 238 m 2,30,31
 357.5 238 357.5 238 373.5 246 c 128,-1,32
 389.5 254 389.5 254 403 271.5 c 128,-1,33
 416.5 289 416.5 289 424.5 317 c 128,-1,34
 432.5 345 432.5 345 432.5 385 c 0,35,36
 432.5 428 432.5 428 424.5 456.5 c 128,-1,37
 416.5 485 416.5 485 403.5 501.5 c 128,-1,38
 390.5 518 390.5 518 374.5 525 c 128,-1,39
 358.5 532 358.5 532 343.5 532 c 2,40,-1
 321.5 532 l 2,41,42
 296.5 532 296.5 532 296.5 498 c 2,43,-1
 296.5 261 l 2,44,45
 296.5 238 296.5 238 327.5 238 c 2,46,-1
 340.5 238 l 2,30,31
222.5 21 m 256,47,48
 217.5 26 217.5 26 214 39 c 128,-1,49
 210.5 52 210.5 52 210.5 78.5 c 128,-1,50
 210.5 105 210.5 105 203.5 105 c 0,51,52
 198.5 105 198.5 105 197 96.5 c 128,-1,53
 195.5 88 195.5 88 195.5 76 c 0,54,55
 195.5 38 195.5 38 202.5 22 c 128,-1,56
 209.5 6 209.5 6 219.5 6 c 0,57,58
 221.5 6 221.5 6 224.5 8 c 128,-1,59
 227.5 10 227.5 10 227.5 12 c 0,60,61
 227.5 16 227.5 16 222.5 21 c 256,47,48
EndSplineSet

EndChar

StartChar: Q
Encoding: 81 81 56
Width: 729
VWidth: 1000
GlyphClass: 2
Flags: W
LayerCount: 2
Fore
SplineSet
370.5 616 m 0,0,1
 329.5 616 329.5 616 296.5 601 c 2,2,3
 296.5 601 296.5 601 263.5 585 c 1,4,-1
 219.5 537 l 1,5,6
 187.5 492 187.5 492 171.5 432.5 c 128,-1,7
 155.5 373 155.5 373 155.5 311 c 0,8,9
 155.5 255 155.5 255 167.5 196.5 c 128,-1,10
 179.5 138 179.5 138 205.5 90.5 c 128,-1,11
 231.5 43 231.5 43 272.5 12.5 c 128,-1,12
 313.5 -18 313.5 -18 371.5 -18 c 0,13,14
 408.5 -18 408.5 -18 439.5 -4 c 1,15,16
 447.5 -22 447.5 -22 460 -40.5 c 128,-1,17
 472.5 -59 472.5 -59 495.5 -59 c 0,18,19
 502.5 -59 502.5 -59 511 -56.5 c 128,-1,20
 519.5 -54 519.5 -54 527 -49.5 c 128,-1,21
 534.5 -45 534.5 -45 539.5 -39 c 128,-1,22
 544.5 -33 544.5 -33 544.5 -26 c 0,23,24
 544.5 -18 544.5 -18 535.5 8.5 c 128,-1,25
 526.5 35 526.5 35 514.5 65 c 1,26,27
 544.5 112 544.5 112 559 177.5 c 128,-1,28
 573.5 243 573.5 243 573.5 316 c 0,29,30
 573.5 371 573.5 371 561.5 425 c 128,-1,31
 549.5 479 549.5 479 525 521.5 c 128,-1,32
 500.5 564 500.5 564 462 590 c 128,-1,33
 423.5 616 423.5 616 370.5 616 c 0,0,1
218.5 139 m 0,34,35
 221.5 139 221.5 139 225.5 133.5 c 128,-1,36
 229.5 128 229.5 128 234 119.5 c 128,-1,37
 238.5 111 238.5 111 244 102 c 128,-1,38
 249.5 93 249.5 93 254.5 86 c 0,39,40
 276.5 57 276.5 57 296 40 c 128,-1,41
 315.5 23 315.5 23 315.5 18 c 0,42,43
 315.5 15 315.5 15 310.5 14 c 0,44,45
 298.5 14 298.5 14 282 28 c 128,-1,46
 265.5 42 265.5 42 250.5 61.5 c 128,-1,47
 235.5 81 235.5 81 225 101.5 c 128,-1,48
 214.5 122 214.5 122 214.5 134 c 0,49,50
 214.5 139 214.5 139 218.5 139 c 0,34,35
275.5 395 m 1,51,52
 291.5 354 291.5 354 308.5 312 c 128,-1,53
 325.5 270 325.5 270 342 229.5 c 128,-1,54
 358.5 189 358.5 189 374 151 c 128,-1,55
 389.5 113 389.5 113 402.5 81 c 1,56,57
 389.5 74 389.5 74 371.5 74 c 0,58,59
 340.5 74 340.5 74 320.5 102 c 128,-1,60
 300.5 130 300.5 130 289 168.5 c 128,-1,61
 277.5 207 277.5 207 273.5 247 c 128,-1,62
 269.5 287 269.5 287 269.5 311 c 0,63,64
 269.5 327 269.5 327 271 349 c 128,-1,65
 272.5 371 272.5 371 275.5 395 c 1,51,52
219.5 161 m 256,66,67
 219.5 153 219.5 153 212.5 151 c 0,68,69
 209.5 151 209.5 151 204.5 154.5 c 128,-1,70
 199.5 158 199.5 158 199.5 166 c 0,71,72
 199.5 175 199.5 175 207.5 175 c 0,73,74
 210.5 175 210.5 175 215 172 c 128,-1,75
 219.5 169 219.5 169 219.5 161 c 256,66,67
370.5 536 m 0,76,77
 400.5 536 400.5 536 419 513.5 c 128,-1,78
 437.5 491 437.5 491 448 457.5 c 128,-1,79
 458.5 424 458.5 424 462.5 384 c 128,-1,80
 466.5 344 466.5 344 466.5 308 c 0,81,82
 466.5 282 466.5 282 465.5 254 c 128,-1,83
 464.5 226 464.5 226 460.5 198 c 1,84,85
 450.5 224 450.5 224 435.5 262.5 c 128,-1,86
 420.5 301 420.5 301 403 344.5 c 128,-1,87
 385.5 388 385.5 388 367 434.5 c 128,-1,88
 348.5 481 348.5 481 330.5 523 c 1,89,90
 348.5 536 348.5 536 370.5 536 c 0,76,77
EndSplineSet

EndChar

StartChar: R
Encoding: 82 82 57
Width: 729
VWidth: 1000
GlyphClass: 2
Flags: W
LayerCount: 2
Fore
SplineSet
346 584 m 4,0,1
 306 584 306 584 277.5 612 c 132,-1,2
 249 640 249 640 249 684 c 4,3,4
 249 708 249 708 257.5 729.5 c 132,-1,5
 266 751 266 751 281 766.5 c 132,-1,6
 296 782 296 782 317 791.5 c 132,-1,7
 338 801 338 801 363 801 c 4,8,9
 383 801 383 801 400 792.5 c 132,-1,10
 417 784 417 784 429 769 c 132,-1,11
 441 754 441 754 447.5 735 c 132,-1,12
 454 716 454 716 454 695 c 4,13,14
 454 668 454 668 445.5 647.5 c 132,-1,15
 437 627 437 627 422 613 c 132,-1,16
 407 599 407 599 387.5 591.5 c 132,-1,17
 368 584 368 584 346 584 c 4,0,1
309 757 m 4,18,19
 316 764 316 764 317.5 769 c 132,-1,20
 319 774 319 774 317 774 c 4,21,22
 309 774 309 774 300 766.5 c 132,-1,23
 291 759 291 759 283.5 748.5 c 132,-1,24
 276 738 276 738 271 726 c 132,-1,25
 266 714 266 714 266 704 c 4,26,27
 266 702 266 702 267.5 696 c 132,-1,28
 269 690 269 690 272 690 c 4,29,30
 276 690 276 690 282 712 c 4,31,32
 285 726 285 726 293 737.5 c 132,-1,33
 301 749 301 749 309 757 c 4,18,19
350 641 m 4,34,35
 362 641 362 641 378.5 655 c 132,-1,36
 395 669 395 669 395 695 c 4,37,38
 395 715 395 715 384.5 728.5 c 132,-1,39
 374 742 374 742 357 742 c 260,40,41
 340 742 340 742 326 728.5 c 132,-1,42
 312 715 312 715 312 691 c 260,43,44
 312 667 312 667 323 654 c 132,-1,45
 334 641 334 641 350 641 c 4,34,35
290 0 m 0,46,47
 265 0 265 0 255 17 c 128,-1,48
 245 34 245 34 245 64 c 2,49,-1
 245 451 l 2,50,51
 245 505 245 505 256 525 c 128,-1,52
 267 545 267 545 293 545 c 0,53,54
 316 545 316 545 329.5 526.5 c 128,-1,55
 343 508 343 508 343 473 c 0,56,57
 343 462 343 462 343 456.5 c 128,-1,58
 343 451 343 451 346 451 c 0,59,60
 348 451 348 451 348.5 454 c 128,-1,61
 349 457 349 457 351 461 c 0,62,63
 354 468 354 468 359.5 482 c 128,-1,64
 365 496 365 496 375.5 510 c 128,-1,65
 386 524 386 524 402 534.5 c 128,-1,66
 418 545 418 545 440 545 c 0,67,68
 460 545 460 545 472 533 c 128,-1,69
 484 521 484 521 484 502 c 0,70,71
 484 482 484 482 475.5 464.5 c 128,-1,72
 467 447 467 447 447 447 c 256,73,74
 427 447 427 447 409.5 428.5 c 128,-1,75
 392 410 392 410 379.5 381.5 c 128,-1,76
 367 353 367 353 359.5 319 c 128,-1,77
 352 285 352 285 352 254 c 2,78,-1
 352 55 l 2,79,80
 352 25 352 25 332 12.5 c 128,-1,81
 312 0 312 0 290 0 c 0,46,47
272 503 m 256,82,83
 273 507 273 507 274.5 511.5 c 128,-1,84
 276 516 276 516 277 520 c 128,-1,85
 278 524 278 524 277.5 526.5 c 128,-1,86
 277 529 277 529 273 529 c 0,87,88
 268 529 268 529 263 518.5 c 128,-1,89
 258 508 258 508 258 497 c 0,90,91
 258 476 258 476 265 476 c 0,92,93
 270 476 270 476 270.5 487.5 c 128,-1,94
 271 499 271 499 272 503 c 256,82,83
272 50 m 0,95,96
 269 62 269 62 267.5 71.5 c 128,-1,97
 266 81 266 81 263 81 c 0,98,99
 258 81 258 81 258 64 c 0,100,101
 258 46 258 46 263 32 c 128,-1,102
 268 18 268 18 275 18 c 0,103,104
 277 18 277 18 279.5 19 c 128,-1,105
 282 20 282 20 282 25 c 0,106,107
 282 28 282 28 278 34 c 128,-1,108
 274 40 274 40 272 50 c 0,95,96
EndSplineSet
EndChar

StartChar: S
Encoding: 83 83 58
Width: 729
VWidth: 1000
GlyphClass: 2
Flags: W
LayerCount: 2
Fore
SplineSet
374.5 622.5 m 4,0,1
 334.5 622.5 334.5 622.5 306 650.5 c 132,-1,2
 277.5 678.5 277.5 678.5 277.5 722.5 c 4,3,4
 277.5 746.5 277.5 746.5 286 768 c 132,-1,5
 294.5 789.5 294.5 789.5 309.5 805 c 132,-1,6
 324.5 820.5 324.5 820.5 345.5 830 c 132,-1,7
 366.5 839.5 366.5 839.5 391.5 839.5 c 4,8,9
 411.5 839.5 411.5 839.5 428.5 831 c 132,-1,10
 445.5 822.5 445.5 822.5 457.5 807.5 c 132,-1,11
 469.5 792.5 469.5 792.5 476 773.5 c 132,-1,12
 482.5 754.5 482.5 754.5 482.5 733.5 c 4,13,14
 482.5 706.5 482.5 706.5 474 686 c 132,-1,15
 465.5 665.5 465.5 665.5 450.5 651.5 c 132,-1,16
 435.5 637.5 435.5 637.5 416 630 c 132,-1,17
 396.5 622.5 396.5 622.5 374.5 622.5 c 4,0,1
337.5 795.5 m 4,18,19
 344.5 802.5 344.5 802.5 346 807.5 c 132,-1,20
 347.5 812.5 347.5 812.5 345.5 812.5 c 4,21,22
 337.5 812.5 337.5 812.5 328.5 805 c 132,-1,23
 319.5 797.5 319.5 797.5 312 787 c 132,-1,24
 304.5 776.5 304.5 776.5 299.5 764.5 c 132,-1,25
 294.5 752.5 294.5 752.5 294.5 742.5 c 4,26,27
 294.5 740.5 294.5 740.5 296 734.5 c 132,-1,28
 297.5 728.5 297.5 728.5 300.5 728.5 c 4,29,30
 304.5 728.5 304.5 728.5 310.5 750.5 c 4,31,32
 313.5 764.5 313.5 764.5 321.5 776 c 132,-1,33
 329.5 787.5 329.5 787.5 337.5 795.5 c 4,18,19
378.5 679.5 m 4,34,35
 390.5 679.5 390.5 679.5 407 693.5 c 132,-1,36
 423.5 707.5 423.5 707.5 423.5 733.5 c 4,37,38
 423.5 753.5 423.5 753.5 413 767 c 132,-1,39
 402.5 780.5 402.5 780.5 385.5 780.5 c 260,40,41
 368.5 780.5 368.5 780.5 354.5 767 c 132,-1,42
 340.5 753.5 340.5 753.5 340.5 729.5 c 260,43,44
 340.5 705.5 340.5 705.5 351.5 692.5 c 132,-1,45
 362.5 679.5 362.5 679.5 378.5 679.5 c 4,34,35
367.5 -46 m 4,46,47
 336.5 -46 336.5 -46 305.5 -32.5 c 132,-1,48
 274.5 -19 274.5 -19 250 6 c 132,-1,49
 225.5 31 225.5 31 210.5 68 c 132,-1,50
 195.5 105 195.5 105 195.5 151 c 4,51,52
 195.5 182 195.5 182 213.5 202 c 132,-1,53
 231.5 222 231.5 222 258.5 220 c 4,54,55
 275.5 219 275.5 219 283 207.5 c 132,-1,56
 290.5 196 290.5 196 290.5 170 c 4,57,58
 290.5 152 290.5 152 295 129 c 132,-1,59
 299.5 106 299.5 106 308.5 86 c 132,-1,60
 317.5 66 317.5 66 330 52.5 c 132,-1,61
 342.5 39 342.5 39 357.5 39 c 4,62,63
 421.5 39 421.5 39 421.5 104 c 4,64,65
 421.5 125 421.5 125 415 143 c 132,-1,66
 408.5 161 408.5 161 398 176 c 132,-1,67
 387.5 191 387.5 191 374.5 205 c 132,-1,68
 361.5 219 361.5 219 347.5 232 c 4,69,70
 275.5 304 275.5 304 245 352 c 132,-1,71
 214.5 400 214.5 400 214.5 440 c 4,72,73
 214.5 509 214.5 509 257 548 c 132,-1,74
 299.5 587 299.5 587 373.5 587 c 4,75,76
 407.5 587 407.5 587 435.5 572 c 132,-1,77
 463.5 557 463.5 557 484 533 c 132,-1,78
 504.5 509 504.5 509 515.5 479.5 c 132,-1,79
 526.5 450 526.5 450 526.5 422 c 4,80,81
 526.5 392 526.5 392 509 367.5 c 132,-1,82
 491.5 343 491.5 343 465.5 343 c 4,83,84
 453.5 343 453.5 343 439.5 353 c 132,-1,85
 425.5 363 425.5 363 425.5 380 c 4,86,87
 425.5 439 425.5 439 408.5 466.5 c 132,-1,88
 391.5 494 391.5 494 369.5 494 c 4,89,90
 327.5 494 327.5 494 327.5 446 c 4,91,92
 327.5 431 327.5 431 331.5 416.5 c 132,-1,93
 335.5 402 335.5 402 346 385 c 132,-1,94
 356.5 368 356.5 368 374 347.5 c 132,-1,95
 391.5 327 391.5 327 418.5 300 c 4,96,97
 451.5 267 451.5 267 473.5 241 c 132,-1,98
 495.5 215 495.5 215 509 193 c 132,-1,99
 522.5 171 522.5 171 528 152 c 132,-1,100
 533.5 133 533.5 133 533.5 114 c 4,101,102
 533.5 79 533.5 79 521 49.5 c 132,-1,103
 508.5 20 508.5 20 486.5 -1 c 132,-1,104
 464.5 -22 464.5 -22 434 -34 c 132,-1,105
 403.5 -46 403.5 -46 367.5 -46 c 4,46,47
272.5 506 m 4,106,107
 276.5 513 276.5 513 283.5 522.5 c 132,-1,108
 290.5 532 290.5 532 298.5 538 c 4,109,110
 306.5 543 306.5 543 309 549.5 c 132,-1,111
 311.5 556 311.5 556 308.5 556 c 4,112,113
 302.5 557 302.5 557 292.5 549.5 c 132,-1,114
 282.5 542 282.5 542 273.5 531 c 132,-1,115
 264.5 520 264.5 520 257.5 508 c 132,-1,116
 250.5 496 250.5 496 249.5 487 c 4,117,118
 249.5 481 249.5 481 255.5 481 c 4,119,120
 260.5 480 260.5 480 263.5 488 c 132,-1,121
 266.5 496 266.5 496 272.5 506 c 4,106,107
256.5 461 m 4,122,123
 256.5 468 256.5 468 250.5 468 c 4,124,125
 247.5 468 247.5 468 245 465 c 132,-1,126
 242.5 462 242.5 462 242.5 460 c 4,127,128
 242.5 455 242.5 455 249.5 454 c 4,129,130
 254.5 454 254.5 454 256.5 461 c 4,122,123
232.5 153 m 260,131,132
 237.5 167 237.5 167 243 176 c 132,-1,133
 248.5 185 248.5 185 249.5 193 c 4,134,135
 249.5 198 249.5 198 246.5 198 c 4,136,137
 238.5 199 238.5 199 231.5 192.5 c 132,-1,138
 224.5 186 224.5 186 220 176 c 132,-1,139
 215.5 166 215.5 166 214.5 153.5 c 132,-1,140
 213.5 141 213.5 141 217.5 129 c 4,141,142
 221.5 119 221.5 119 225.5 119 c 4,143,144
 230.5 119 230.5 119 229 129 c 132,-1,145
 227.5 139 227.5 139 232.5 153 c 260,131,132
EndSplineSet
EndChar

StartChar: T
Encoding: 84 84 59
Width: 729
VWidth: 1000
GlyphClass: 2
Flags: W
LayerCount: 2
Fore
SplineSet
356 0 m 0,0,1
 348 0 348 0 339 3 c 128,-1,2
 330 6 330 6 322 11 c 128,-1,3
 314 16 314 16 308.5 23.5 c 128,-1,4
 303 31 303 31 303 40 c 2,5,-1
 303 525 l 1,6,7
 291 525 291 525 251 525 c 128,-1,8
 211 525 211 525 194.5 529 c 128,-1,9
 178 533 178 533 166.5 542.5 c 128,-1,10
 155 552 155 552 155 570 c 0,11,12
 155 592 155 592 169 604 c 128,-1,13
 183 616 183 616 204 616 c 2,14,-1
 541 616 l 2,15,16
 557 616 557 616 565.5 602 c 128,-1,17
 574 588 574 588 574 574 c 0,18,19
 574 556 574 556 565.5 546.5 c 128,-1,20
 557 537 557 537 544 532 c 128,-1,21
 531 527 531 527 484 526 c 128,-1,22
 437 525 437 525 424 525 c 2,23,-1
 416 525 l 1,24,-1
 416 47 l 2,25,26
 416 24 416 24 396 12 c 128,-1,27
 376 0 376 0 356 0 c 0,0,1
178 553 m 256,28,29
 183 553 183 553 183 560 c 0,30,31
 183 568 183 568 186 578.5 c 128,-1,32
 189 589 189 589 195 598 c 0,33,34
 198 603 198 603 190 603 c 0,35,36
 181 603 181 603 175 591.5 c 128,-1,37
 169 580 169 580 169 569 c 0,38,39
 169 565 169 565 171 559 c 128,-1,40
 173 553 173 553 178 553 c 256,28,29
337 23 m 0,41,42
 346 23 346 23 346 32 c 0,43,44
 346 36 346 36 342 37 c 0,45,46
 336 39 336 39 333.5 49.5 c 128,-1,47
 331 60 331 60 331 65 c 0,48,49
 331 67 331 67 331.5 73 c 128,-1,50
 332 79 332 79 332 85 c 128,-1,51
 332 91 332 91 331 95.5 c 128,-1,52
 330 100 330 100 326 100 c 256,53,54
 322 100 322 100 320 96 c 128,-1,55
 318 92 318 92 317 86.5 c 128,-1,56
 316 81 316 81 315.5 75.5 c 128,-1,57
 315 70 315 70 315 68 c 0,58,59
 315 64 315 64 316 56 c 128,-1,60
 317 48 317 48 319.5 41 c 128,-1,61
 322 34 322 34 326.5 28.5 c 128,-1,62
 331 23 331 23 337 23 c 0,41,42
EndSplineSet

EndChar

StartChar: U
Encoding: 85 85 60
Width: 729
VWidth: 1000
GlyphClass: 2
Flags: W
LayerCount: 2
Fore
SplineSet
362 -4 m 0,0,1
 317 -4 317 -4 280.5 12.5 c 128,-1,2
 244 29 244 29 219 58.5 c 128,-1,3
 194 88 194 88 180.5 129.5 c 128,-1,4
 167 171 167 171 167 221 c 2,5,-1
 167 530 l 2,6,7
 167 540 167 540 169 555 c 128,-1,8
 171 570 171 570 177 583.5 c 128,-1,9
 183 597 183 597 193.5 606.5 c 128,-1,10
 204 616 204 616 220 616 c 0,11,12
 253 616 253 616 267 599 c 128,-1,13
 281 582 281 582 281 528 c 2,14,-1
 281 228 l 2,15,16
 281 204 281 204 281 179.5 c 128,-1,17
 281 155 281 155 288.5 135.5 c 128,-1,18
 296 116 296 116 313.5 103.5 c 128,-1,19
 331 91 331 91 366 91 c 0,20,21
 399 91 399 91 416 110 c 128,-1,22
 433 129 433 129 440.5 157.5 c 128,-1,23
 448 186 448 186 448.5 220 c 128,-1,24
 449 254 449 254 449 284 c 2,25,-1
 449 531 l 2,26,27
 449 541 449 541 451 556 c 128,-1,28
 453 571 453 571 458.5 584.5 c 128,-1,29
 464 598 464 598 473.5 608 c 128,-1,30
 483 618 483 618 499 618 c 0,31,32
 530 618 530 618 546 597.5 c 128,-1,33
 562 577 562 577 562 532 c 2,34,-1
 562 246 l 2,35,36
 562 189 562 189 549.5 143 c 128,-1,37
 537 97 537 97 511.5 64.5 c 128,-1,38
 486 32 486 32 449 14 c 128,-1,39
 412 -4 412 -4 362 -4 c 0,0,1
477 556 m 0,40,41
 477 560 477 560 480 568 c 128,-1,42
 483 576 483 576 490 584 c 0,43,44
 498 595 498 595 498.5 599 c 128,-1,45
 499 603 499 603 490 603 c 0,46,47
 485 603 485 603 480.5 598 c 128,-1,48
 476 593 476 593 473 588 c 0,49,50
 471 583 471 583 467.5 575 c 128,-1,51
 464 567 464 567 463 558 c 0,52,53
 463 553 463 553 464 548.5 c 128,-1,54
 465 544 465 544 470 544 c 256,55,56
 475 544 475 544 476 547.5 c 128,-1,57
 477 551 477 551 477 556 c 0,40,41
209 570 m 0,58,59
 213 579 213 579 218.5 585 c 128,-1,60
 224 591 224 591 224 598 c 0,61,62
 224 603 224 603 221 603 c 256,63,64
 218 603 218 603 212 600.5 c 128,-1,65
 206 598 206 598 201 590 c 0,66,67
 186 569 186 569 184 552 c 128,-1,68
 182 535 182 535 188 535 c 0,69,70
 193 535 193 535 198.5 545.5 c 128,-1,71
 204 556 204 556 209 570 c 0,58,59
278 48 m 0,72,73
 278 51 278 51 270.5 57 c 128,-1,74
 263 63 263 63 255 72 c 0,75,76
 247 80 247 80 236.5 93.5 c 128,-1,77
 226 107 226 107 219 122 c 0,78,79
 214 132 214 132 209.5 136 c 128,-1,80
 205 140 205 140 203 140 c 0,81,82
 199 140 199 140 199 133 c 0,83,84
 199 125 199 125 207 109.5 c 128,-1,85
 215 94 215 94 226 79 c 128,-1,86
 237 64 237 64 249.5 53 c 128,-1,87
 262 42 262 42 272 42 c 0,88,89
 278 42 278 42 278 48 c 0,72,73
301 39 m 0,90,91
 301 40 301 40 298.5 43 c 128,-1,92
 296 46 296 46 293 46 c 0,93,94
 288 45 288 45 286 42 c 128,-1,95
 284 39 284 39 284 37 c 0,96,97
 285 34 285 34 286 31.5 c 128,-1,98
 287 29 287 29 292 30 c 0,99,100
 301 30 301 30 301 39 c 0,90,91
EndSplineSet
EndChar

StartChar: V
Encoding: 86 86 61
Width: 729
VWidth: 1000
GlyphClass: 2
Flags: W
LayerCount: 2
Fore
SplineSet
403 103 m 1,0,-1
 332 103 l 1,1,-1
 332 783 l 1,2,-1
 403 783 l 1,3,-1
 403 103 l 1,0,-1
320 0 m 1,4,-1
 94 545 l 1,5,-1
 94 599 l 1,6,-1
 635 599 l 1,7,-1
 635 544 l 1,8,-1
 410 0 l 1,9,-1
 320 0 l 1,4,-1
366 98 m 1,10,-1
 539 520 l 1,11,-1
 193 520 l 1,12,-1
 366 98 l 1,10,-1
EndSplineSet

EndChar

StartChar: W
Encoding: 87 87 62
Width: 729
VWidth: 1000
GlyphClass: 2
Flags: W
LayerCount: 2
Fore
SplineSet
666.517578125 609.5 m 0,0,1
 666.017578125 578 666.017578125 578 645.517578125 568.5 c 0,2,3
 624.017578125 558 624.017578125 558 600.517578125 557.5 c 0,4,5
 565.017578125 557 565.017578125 557 355.517578125 556 c 128,-1,6
 146.017578125 555 146.017578125 555 115.517578125 555.5 c 4,7,8
 94.017578125 556 94.017578125 556 78.017578125 566 c 4,9,10
 63.017578125 575 63.017578125 575 62.517578125 599.5 c 4,11,12
 62.017578125 614 62.017578125 614 68.517578125 622 c 4,13,14
 74.017578125 630 74.017578125 630 83.517578125 635.5 c 4,15,16
 92.017578125 640 92.017578125 640 104.017578125 642.5 c 4,17,18
 116.017578125 644 116.017578125 644 126.517578125 644.5 c 4,19,20
 158.017578125 645 158.017578125 645 372.017578125 646 c 128,-1,21
 586.017578125 647 586.017578125 647 620.517578125 646.5 c 0,22,23
 638.017578125 646 638.017578125 646 652.017578125 639 c 128,-1,24
 666.017578125 632 666.017578125 632 666.517578125 609.5 c 0,0,1
80.517578125 580.5 m 4,25,26
 85.017578125 580 85.017578125 580 89.017578125 586 c 132,-1,27
 93.017578125 592 93.017578125 592 97.017578125 598 c 132,-1,28
 101.017578125 604 101.017578125 604 103.017578125 611 c 132,-1,29
 105.017578125 618 105.017578125 618 105.517578125 619.5 c 4,30,31
 105.017578125 624 105.017578125 624 105.017578125 627 c 132,-1,32
 105.017578125 630 105.017578125 630 99.517578125 630.5 c 4,33,34
 87.017578125 630 87.017578125 630 80.017578125 617 c 4,35,36
 74.017578125 607 74.017578125 607 73.517578125 593.5 c 4,37,38
 73.017578125 586 73.017578125 586 76.017578125 583 c 132,-1,39
 79.017578125 580 79.017578125 580 80.517578125 580.5 c 4,25,26
466.017578125 0 m 0,40,41
 443.017578125 0 443.017578125 0 426.517578125 6 c 128,-1,42
 410.017578125 12 410.017578125 12 398.517578125 23.5 c 128,-1,43
 387.017578125 35 387.017578125 35 379.017578125 51 c 0,44,45
 367.017578125 75 367.017578125 75 364.017578125 87 c 0,46,47
 363.017578125 91 363.017578125 91 362.017578125 97 c 128,-1,48
 361.017578125 103 361.017578125 103 359.517578125 109 c 128,-1,49
 358.017578125 115 358.017578125 115 356.517578125 119 c 128,-1,50
 355.017578125 123 355.017578125 123 353.017578125 123 c 256,51,52
 351.017578125 123 351.017578125 123 349.017578125 115.5 c 128,-1,53
 347.017578125 108 347.017578125 108 343.017578125 97 c 0,54,55
 333.017578125 71 333.017578125 71 324.017578125 52.5 c 128,-1,56
 315.017578125 34 315.017578125 34 303.517578125 22.5 c 128,-1,57
 292.017578125 11 292.017578125 11 278.017578125 5.5 c 128,-1,58
 264.017578125 0 264.017578125 0 244.017578125 0 c 0,59,60
 204.017578125 0 204.017578125 0 174.517578125 13.5 c 128,-1,61
 145.017578125 27 145.017578125 27 126.017578125 51.5 c 128,-1,62
 107.017578125 76 107.017578125 76 98.017578125 109.5 c 128,-1,63
 89.017578125 143 89.017578125 143 89.017578125 183 c 2,64,-1
 89.017578125 462 l 2,65,66
 89.017578125 472 89.017578125 472 92.017578125 485.5 c 128,-1,67
 95.017578125 499 95.017578125 499 102.017578125 511 c 128,-1,68
 109.017578125 523 109.017578125 523 120.517578125 531.5 c 128,-1,69
 132.017578125 540 132.017578125 540 150.017578125 540 c 0,70,71
 179.017578125 540 179.017578125 540 190.017578125 519.5 c 0,72,73
 200.900390625 499.21875 200.900390625 499.21875 201.017578125 467 c 2,74,-1
 202.017578125 193 l 2,75,76
 202.017578125 183 202.017578125 183 204.017578125 166.5 c 128,-1,77
 206.017578125 150 206.017578125 150 210.517578125 134 c 128,-1,78
 215.017578125 118 215.017578125 118 224.017578125 106.5 c 128,-1,79
 233.017578125 95 233.017578125 95 246.017578125 95 c 0,80,81
 269.017578125 95 269.017578125 95 282.517578125 129 c 128,-1,82
 296.017578125 163 296.017578125 163 303.017578125 219 c 128,-1,83
 310.017578125 275 310.017578125 275 311.517578125 308.5 c 128,-1,84
 313.017578125 342 313.017578125 342 313.017578125 418 c 0,85,86
 313.017578125 482 313.017578125 482 323.017578125 506.5 c 128,-1,87
 333.017578125 531 333.017578125 531 363.017578125 531 c 0,88,89
 377.017578125 531 377.017578125 531 386.017578125 526 c 128,-1,90
 395.017578125 521 395.017578125 521 401.017578125 505 c 128,-1,91
 407.017578125 489 407.017578125 489 409.517578125 459 c 128,-1,92
 412.017578125 429 412.017578125 429 412.017578125 379 c 0,93,94
 412.017578125 300 412.017578125 300 412.017578125 285.5 c 128,-1,95
 412.017578125 271 412.017578125 271 413.517578125 236.5 c 128,-1,96
 415.017578125 202 415.017578125 202 417.517578125 181.5 c 128,-1,97
 420.017578125 161 420.017578125 161 425.017578125 146 c 0,98,99
 434.017578125 117 434.017578125 117 444.017578125 105.5 c 128,-1,100
 454.017578125 94 454.017578125 94 467.017578125 94 c 0,101,102
 526.017578125 94 526.017578125 94 526.017578125 239 c 2,103,-1
 526.017578125 479 l 2,104,105
 526.017578125 490 526.017578125 490 528.017578125 501 c 128,-1,106
 530.017578125 512 530.017578125 512 535.517578125 520.5 c 128,-1,107
 541.017578125 529 541.017578125 529 551.017578125 534.5 c 128,-1,108
 561.017578125 540 561.017578125 540 576.017578125 540 c 0,109,110
 608.017578125 540 608.017578125 540 622.517578125 522.5 c 128,-1,111
 637.017578125 505 637.017578125 505 637.017578125 479 c 2,112,-1
 637.017578125 220 l 2,113,114
 637.017578125 178 637.017578125 178 625.517578125 138.5 c 128,-1,115
 614.017578125 99 614.017578125 99 592.517578125 68 c 128,-1,116
 571.017578125 37 571.017578125 37 539.017578125 18.5 c 128,-1,117
 507.017578125 0 507.017578125 0 466.017578125 0 c 0,40,41
114.017578125 455 m 0,118,119
 121.017578125 455 121.017578125 455 123.517578125 462 c 128,-1,120
 126.017578125 469 126.017578125 469 127.017578125 474 c 0,121,122
 129.017578125 488 129.017578125 488 138.017578125 497.5 c 0,123,124
 153.017578125 513 153.017578125 513 153.017578125 519 c 0,125,126
 153.017578125 521 153.017578125 521 151.017578125 524 c 128,-1,127
 149.017578125 527 149.017578125 527 146.017578125 527 c 0,128,129
 140.017578125 527 140.017578125 527 133.017578125 520.5 c 128,-1,130
 126.017578125 514 126.017578125 514 120.017578125 505 c 128,-1,131
 114.017578125 496 114.017578125 496 110.517578125 485.5 c 128,-1,132
 107.017578125 475 107.017578125 475 107.017578125 467 c 0,133,134
 107.017578125 463 107.017578125 463 108.017578125 459 c 128,-1,135
 109.017578125 455 109.017578125 455 114.017578125 455 c 0,118,119
559.017578125 473 m 0,136,137
 559.017578125 483 559.017578125 483 562.017578125 491 c 128,-1,138
 565.017578125 499 565.017578125 499 569.017578125 506 c 0,139,140
 574.017578125 514 574.017578125 514 573.017578125 519 c 128,-1,141
 572.017578125 524 572.017578125 524 569.017578125 524 c 0,142,143
 564.017578125 524 564.017578125 524 557.517578125 520.5 c 128,-1,144
 551.017578125 517 551.017578125 517 547.017578125 507 c 0,145,146
 542.017578125 491 542.017578125 491 543.517578125 476 c 128,-1,147
 545.017578125 461 545.017578125 461 553.017578125 461 c 0,148,149
 555.017578125 461 555.017578125 461 557.017578125 464.5 c 128,-1,150
 559.017578125 468 559.017578125 468 559.017578125 473 c 0,136,137
340.017578125 467 m 0,151,152
 340.017578125 468 340.017578125 468 342.017578125 477.5 c 128,-1,153
 344.017578125 487 344.017578125 487 347.017578125 493 c 0,154,155
 354.017578125 506 354.017578125 506 356.017578125 511 c 128,-1,156
 358.017578125 516 358.017578125 516 355.017578125 516 c 0,157,158
 353.017578125 516 353.017578125 516 347.517578125 514 c 128,-1,159
 342.017578125 512 342.017578125 512 337.017578125 505 c 0,160,161
 326.017578125 490 326.017578125 490 326.517578125 473 c 128,-1,162
 327.017578125 456 327.017578125 456 335.017578125 456 c 0,163,164
 340.017578125 456 340.017578125 456 340.017578125 467 c 0,151,152
191.017578125 37 m 0,165,166
 190.017578125 42 190.017578125 42 177.017578125 51 c 128,-1,167
 164.017578125 60 164.017578125 60 158.017578125 67 c 0,168,169
 147.017578125 78 147.017578125 78 142.517578125 89 c 128,-1,170
 138.017578125 100 138.017578125 100 133.017578125 99 c 0,171,172
 129.017578125 99 129.017578125 99 129.517578125 92 c 128,-1,173
 130.017578125 85 130.017578125 85 134.517578125 75 c 128,-1,174
 139.017578125 65 139.017578125 65 148.017578125 54 c 128,-1,175
 157.017578125 43 157.017578125 43 170.017578125 34 c 0,176,177
 179.017578125 27 179.017578125 27 186.017578125 29 c 0,178,179
 191.017578125 29 191.017578125 29 191.017578125 37 c 0,165,166
457.017578125 22 m 0,180,181
 457.017578125 26 457.017578125 26 453.517578125 27 c 128,-1,182
 450.017578125 28 450.017578125 28 447.017578125 28 c 0,183,184
 442.017578125 29 442.017578125 29 432.017578125 38 c 128,-1,185
 422.017578125 47 422.017578125 47 416.017578125 57 c 0,186,187
 406.017578125 72 406.017578125 72 398.017578125 74 c 0,188,189
 395.017578125 74 395.017578125 74 395.017578125 69 c 0,190,191
 395.017578125 67 395.017578125 67 398.517578125 59 c 128,-1,192
 402.017578125 51 402.017578125 51 409.017578125 42 c 128,-1,193
 416.017578125 33 416.017578125 33 425.517578125 25.5 c 128,-1,194
 435.017578125 18 435.017578125 18 446.017578125 17 c 0,195,196
 450.017578125 17 450.017578125 17 453.017578125 17 c 128,-1,197
 456.017578125 17 456.017578125 17 457.017578125 22 c 0,180,181
EndSplineSet

EndChar

StartChar: X
Encoding: 88 88 63
Width: 729
VWidth: 1000
GlyphClass: 2
Flags: W
LayerCount: 2
Fore
SplineSet
451.034179688 174.834960938 m 0,0,1
 460.638671875 166.602539062 460.638671875 166.602539062 474.290039062 152.40234375 c 128,-1,2
 487.94140625 138.202148438 487.94140625 138.202148438 500.581054688 125.494140625 c 128,-1,3
 513.220703125 112.786132812 513.220703125 112.786132812 523.475585938 104.829101562 c 128,-1,4
 533.731445312 96.87109375 533.731445312 96.87109375 536.543945312 101.124023438 c 0,5,6
 538.225585938 102.598632812 538.225585938 102.598632812 540.111328125 107.229492188 c 128,-1,7
 541.998046875 111.860351562 541.998046875 111.860351562 538.5 116.524414062 c 0,8,9
 535.549804688 119.885742188 535.549804688 119.885742188 525.5 131 c 128,-1,10
 515.450195312 142.112304688 515.450195312 142.112304688 503.547851562 153.98046875 c 128,-1,11
 491.646484375 165.84765625 491.646484375 165.84765625 480.104492188 175.94921875 c 128,-1,12
 468.561523438 186.05078125 468.561523438 186.05078125 463.005859375 188.313476562 c 0,13,14
 456.5234375 190.955078125 456.5234375 190.955078125 451.840820312 184.764648438 c 128,-1,15
 447.159179688 178.573242188 447.159179688 178.573242188 451.034179688 174.834960938 c 0,0,1
193.953125 485.340820312 m 0,16,17
 203.557617188 477.108398438 203.557617188 477.108398438 217.208984375 462.908203125 c 128,-1,18
 230.860351562 448.708007812 230.860351562 448.708007812 243.5 436 c 128,-1,19
 256.139648438 423.291992188 256.139648438 423.291992188 266.39453125 415.334960938 c 128,-1,20
 276.650390625 407.376953125 276.650390625 407.376953125 279.462890625 411.629882812 c 0,21,22
 281.14453125 413.104492188 281.14453125 413.104492188 283.030273438 417.735351562 c 128,-1,23
 284.916992188 422.366210938 284.916992188 422.366210938 281.418945312 427.030273438 c 0,24,25
 278.46875 430.391601562 278.46875 430.391601562 268.418945312 441.505859375 c 128,-1,26
 258.369140625 452.618164062 258.369140625 452.618164062 246.466796875 464.486328125 c 128,-1,27
 234.565429688 476.353515625 234.565429688 476.353515625 223.0234375 486.455078125 c 128,-1,28
 211.48046875 496.556640625 211.48046875 496.556640625 205.924804688 498.819335938 c 0,29,30
 199.442382812 501.4609375 199.442382812 501.4609375 194.759765625 495.270507812 c 128,-1,31
 190.078125 489.079101562 190.078125 489.079101562 193.953125 485.340820312 c 0,16,17
456.504882812 411.383789062 m 0,32,33
 465.44921875 420.328125 465.44921875 420.328125 480.654296875 432.850585938 c 128,-1,34
 495.860351562 445.372070312 495.860351562 445.372070312 509.5 457 c 128,-1,35
 523.139648438 468.627929688 523.139648438 468.627929688 531.860351562 478.2421875 c 128,-1,36
 540.581054688 487.857421875 540.581054688 487.857421875 536.556640625 490.98828125 c 0,37,38
 535.21484375 492.77734375 535.21484375 492.77734375 530.7421875 495.012695312 c 128,-1,39
 526.270507812 497.249023438 526.270507812 497.249023438 521.3515625 494.119140625 c 0,40,41
 517.7734375 491.435546875 517.7734375 491.435546875 505.921875 482.267578125 c 128,-1,42
 494.071289062 473.099609375 494.071289062 473.099609375 481.325195312 462.142578125 c 128,-1,43
 468.580078125 451.186523438 468.580078125 451.186523438 457.623046875 440.453125 c 128,-1,44
 446.666015625 429.719726562 446.666015625 429.719726562 443.983398438 424.353515625 c 0,45,46
 440.852539062 418.092773438 440.852539062 418.092773438 446.666015625 412.94921875 c 128,-1,47
 452.48046875 407.806640625 452.48046875 407.806640625 456.504882812 411.383789062 c 0,32,33
182.504882812 123.383789062 m 0,48,49
 191.44921875 132.328125 191.44921875 132.328125 206.654296875 144.850585938 c 128,-1,50
 221.860351562 157.372070312 221.860351562 157.372070312 235.5 169 c 128,-1,51
 249.139648438 180.627929688 249.139648438 180.627929688 257.860351562 190.2421875 c 128,-1,52
 266.581054688 199.857421875 266.581054688 199.857421875 262.556640625 202.98828125 c 0,53,54
 261.21484375 204.77734375 261.21484375 204.77734375 256.7421875 207.012695312 c 128,-1,55
 252.270507812 209.249023438 252.270507812 209.249023438 247.3515625 206.119140625 c 0,56,57
 243.7734375 203.435546875 243.7734375 203.435546875 231.921875 194.267578125 c 128,-1,58
 220.071289062 185.099609375 220.071289062 185.099609375 207.325195312 174.142578125 c 128,-1,59
 194.580078125 163.186523438 194.580078125 163.186523438 183.623046875 152.453125 c 128,-1,60
 172.666015625 141.719726562 172.666015625 141.719726562 169.983398438 136.353515625 c 0,61,62
 166.852539062 130.092773438 166.852539062 130.092773438 172.666015625 124.94921875 c 128,-1,63
 178.48046875 119.806640625 178.48046875 119.806640625 182.504882812 123.383789062 c 0,48,49
182.504882812 123.383789062 m 0,64,65
 191.44921875 132.328125 191.44921875 132.328125 206.654296875 144.850585938 c 128,-1,66
 221.860351562 157.372070312 221.860351562 157.372070312 235.5 169 c 128,-1,67
 249.139648438 180.627929688 249.139648438 180.627929688 257.860351562 190.2421875 c 128,-1,68
 266.581054688 199.857421875 266.581054688 199.857421875 262.556640625 202.98828125 c 0,69,70
 261.21484375 204.77734375 261.21484375 204.77734375 256.7421875 207.012695312 c 128,-1,71
 252.270507812 209.249023438 252.270507812 209.249023438 247.3515625 206.119140625 c 0,72,73
 243.7734375 203.435546875 243.7734375 203.435546875 231.921875 194.267578125 c 128,-1,74
 220.071289062 185.099609375 220.071289062 185.099609375 207.325195312 174.142578125 c 128,-1,75
 194.580078125 163.186523438 194.580078125 163.186523438 183.623046875 152.453125 c 128,-1,76
 172.666015625 141.719726562 172.666015625 141.719726562 169.983398438 136.353515625 c 0,77,78
 166.852539062 130.092773438 166.852539062 130.092773438 172.666015625 124.94921875 c 128,-1,79
 178.48046875 119.806640625 178.48046875 119.806640625 182.504882812 123.383789062 c 0,64,65
203.5 71 m 1,80,-1
 134.5 140 l 1,81,-1
 295.5 301 l 1,82,-1
 134.5 462 l 1,83,-1
 203.5 531 l 1,84,-1
 364.5 370 l 1,85,-1
 525.5 531 l 1,86,-1
 594.5 462 l 1,87,-1
 433.5 301 l 1,88,-1
 594.5 140 l 1,89,-1
 525.5 71 l 1,90,-1
 364.5 232 l 1,91,-1
 203.5 71 l 1,80,-1
EndSplineSet
EndChar

StartChar: Y
Encoding: 89 89 64
Width: 729
VWidth: 1000
GlyphClass: 2
Flags: W
LayerCount: 2
Fore
SplineSet
364.86328125 0 m 0,0,1
 338.86328125 0 338.86328125 0 325.36328125 16.5 c 128,-1,2
 311.86328125 33 311.86328125 33 311.86328125 52 c 2,3,-1
 311.86328125 191 l 2,4,5
 311.86328125 204 311.86328125 204 310.36328125 214.5 c 128,-1,6
 308.86328125 225 308.86328125 225 305.36328125 236 c 128,-1,7
 301.86328125 247 301.86328125 247 295.86328125 260.5 c 128,-1,8
 289.86328125 274 289.86328125 274 280.86328125 294 c 2,9,-1
 161.86328125 556 l 2,10,11
 158.86328125 563 158.86328125 563 161.36328125 573.5 c 128,-1,12
 163.86328125 584 163.86328125 584 171.36328125 593.5 c 128,-1,13
 178.86328125 603 178.86328125 603 190.86328125 609.5 c 128,-1,14
 202.86328125 616 202.86328125 616 218.86328125 616 c 0,15,16
 227.86328125 616 227.86328125 616 236.36328125 611.5 c 128,-1,17
 244.86328125 607 244.86328125 607 249.86328125 595 c 2,18,-1
 342.86328125 377 l 2,19,20
 347.86328125 366 347.86328125 366 354.36328125 354 c 128,-1,21
 360.86328125 342 360.86328125 342 366.86328125 342 c 256,22,23
 372.86328125 342 372.86328125 342 378.86328125 351.5 c 128,-1,24
 384.86328125 361 384.86328125 361 391.86328125 377 c 2,25,-1
 491.86328125 600 l 2,26,27
 496.86328125 611 496.86328125 611 506.86328125 613.5 c 128,-1,28
 516.86328125 616 516.86328125 616 523.86328125 616 c 0,29,30
 536.86328125 616 536.86328125 616 546.36328125 609 c 128,-1,31
 555.86328125 602 555.86328125 602 561.36328125 592 c 128,-1,32
 566.86328125 582 566.86328125 582 568.36328125 571 c 128,-1,33
 569.86328125 560 569.86328125 560 565.86328125 552 c 2,34,-1
 440.86328125 281 l 2,35,36
 433.86328125 266 433.86328125 266 429.86328125 255.5 c 128,-1,37
 425.86328125 245 425.86328125 245 424.36328125 234 c 128,-1,38
 422.86328125 223 422.86328125 223 422.36328125 209.5 c 128,-1,39
 421.86328125 196 421.86328125 196 421.86328125 174 c 2,40,-1
 421.86328125 52 l 2,41,42
 421.86328125 37 421.86328125 37 416.36328125 27 c 128,-1,43
 410.86328125 17 410.86328125 17 402.36328125 11 c 128,-1,44
 393.86328125 5 393.86328125 5 383.86328125 2.5 c 128,-1,45
 373.86328125 0 373.86328125 0 364.86328125 0 c 0,0,1
192.86328125 551 m 0,46,47
 190.86328125 559 190.86328125 559 191.36328125 564.5 c 128,-1,48
 191.86328125 570 191.86328125 570 190.86328125 575 c 256,49,50
 189.86328125 580 189.86328125 580 187.86328125 584 c 128,-1,51
 185.86328125 588 185.86328125 588 183.86328125 587 c 0,52,53
 172.86328125 582 172.86328125 582 174.36328125 568 c 128,-1,54
 175.86328125 554 175.86328125 554 178.86328125 546 c 0,55,56
 183.86328125 535 183.86328125 535 190.86328125 537 c 0,57,58
 194.86328125 539 194.86328125 539 194.86328125 543 c 128,-1,59
 194.86328125 547 194.86328125 547 192.86328125 551 c 0,46,47
348.86328125 33 m 0,60,61
 346.86328125 37 346.86328125 37 343.36328125 47 c 128,-1,62
 339.86328125 57 339.86328125 57 337.86328125 74 c 0,63,64
 336.86328125 97 336.86328125 97 332.86328125 97 c 0,65,66
 331.86328125 97 331.86328125 97 329.86328125 93.5 c 128,-1,67
 327.86328125 90 327.86328125 90 326.86328125 81 c 0,68,69
 324.86328125 49 324.86328125 49 332.36328125 35 c 128,-1,70
 339.86328125 21 339.86328125 21 348.86328125 21 c 0,71,72
 352.86328125 21 352.86328125 21 351.86328125 24.5 c 128,-1,73
 350.86328125 28 350.86328125 28 348.86328125 33 c 0,60,61
EndSplineSet

EndChar

StartChar: Z
Encoding: 90 90 65
Width: 729
VWidth: 1000
GlyphClass: 2
Flags: W
LayerCount: 2
Fore
SplineSet
264 0 m 2,0,1
 253 0 253 0 240.5 2.5 c 128,-1,2
 228 5 228 5 218 11.5 c 128,-1,3
 208 18 208 18 201.5 28.5 c 128,-1,4
 195 39 195 39 195 55 c 0,5,6
 195 65 195 65 196.5 76 c 128,-1,7
 198 87 198 87 206 102 c 2,8,-1
 287 262 l 1,9,-1
 263 262 l 2,10,11
 248 262 248 262 240 273 c 128,-1,12
 232 284 232 284 232 301 c 256,13,14
 232 318 232 318 238.5 328 c 128,-1,15
 245 338 245 338 263 338 c 2,16,-1
 325 338 l 1,17,-1
 414 513 l 2,18,19
 417 519 417 519 417 525 c 0,20,21
 416 531 416 531 406 531 c 2,22,-1
 228 533 l 2,23,24
 215 533 215 533 206.5 543.5 c 128,-1,25
 198 554 198 554 198 569 c 0,26,27
 198 598 198 598 212.5 608 c 128,-1,28
 227 618 227 618 246 618 c 2,29,-1
 492 616 l 2,30,31
 504 616 504 616 512 609.5 c 128,-1,32
 520 603 520 603 524.5 593.5 c 128,-1,33
 529 584 529 584 531 572 c 128,-1,34
 533 560 533 560 533 548 c 0,35,36
 533 518 533 518 518 488 c 2,37,-1
 439 338 l 1,38,-1
 469 338 l 2,39,40
 487 338 487 338 494.5 329.5 c 128,-1,41
 502 321 502 321 502 307 c 0,42,43
 502 287 502 287 495.5 274.5 c 128,-1,44
 489 262 489 262 473 262 c 2,45,-1
 399 262 l 1,46,-1
 344 158 l 2,47,48
 332 135 332 135 325.5 121.5 c 128,-1,49
 319 108 319 108 319 100 c 0,50,51
 319 87 319 87 347 87 c 2,52,-1
 495 86 l 2,53,54
 515 86 515 86 524.5 72 c 128,-1,55
 534 58 534 58 534 35 c 0,56,57
 534 21 534 21 524.5 10.5 c 128,-1,58
 515 0 515 0 507 0 c 2,59,-1
 264 0 l 2,0,1
228 574 m 0,60,61
 230 578 230 578 234 585 c 128,-1,62
 238 592 238 592 237 595 c 0,63,64
 237 597 237 597 233.5 599.5 c 128,-1,65
 230 602 230 602 228 602 c 0,66,67
 217 600 217 600 214 586 c 128,-1,68
 211 572 211 572 213 560 c 0,69,70
 213 558 213 558 215 555 c 128,-1,71
 217 552 217 552 219 552 c 0,72,73
 223 553 223 553 225 562.5 c 128,-1,74
 227 572 227 572 228 574 c 0,60,61
255 306 m 0,75,76
 255 311 255 311 258 318.5 c 128,-1,77
 261 326 261 326 256 326 c 256,78,79
 251 326 251 326 246 318.5 c 128,-1,80
 241 311 241 311 241 300 c 0,81,82
 241 293 241 293 243.5 285.5 c 128,-1,83
 246 278 246 278 251 278 c 256,84,85
 256 278 256 278 255.5 287.5 c 128,-1,86
 255 297 255 297 255 306 c 0,75,76
221 49 m 0,87,88
 225 49 225 49 229 57.5 c 128,-1,89
 233 66 233 66 237 77.5 c 128,-1,90
 241 89 241 89 243.5 100.5 c 128,-1,91
 246 112 246 112 246 117 c 0,92,93
 246 121 246 121 242 121 c 0,94,95
 237 121 237 121 232 114 c 128,-1,96
 227 107 227 107 222.5 99 c 128,-1,97
 218 91 218 91 215 82.5 c 128,-1,98
 212 74 212 74 212 71 c 0,99,100
 211 63 211 63 213.5 56 c 128,-1,101
 216 49 216 49 221 49 c 0,87,88
236 27 m 0,102,103
 236 34 236 34 231 34 c 0,104,105
 222 34 222 34 222 25 c 0,106,107
 222 19 222 19 227 19 c 0,108,109
 230 19 230 19 233 21.5 c 128,-1,110
 236 24 236 24 236 27 c 0,102,103
EndSplineSet
EndChar

StartChar: a
Encoding: 97 97 66
Width: 729
VWidth: 1000
GlyphClass: 2
Flags: W
LayerCount: 2
Fore
SplineSet
370.5 621 m 0,0,1
 402.5 621 402.5 621 423.5 611 c 128,-1,2
 444.5 601 444.5 601 452.5 587 c 0,3,4
 458.5 575 458.5 575 470 534 c 128,-1,5
 481.5 493 481.5 493 495 437 c 128,-1,6
 508.5 381 508.5 381 523 318 c 128,-1,7
 537.5 255 537.5 255 549.5 199 c 128,-1,8
 561.5 143 561.5 143 569 101.5 c 128,-1,9
 576.5 60 576.5 60 576.5 48 c 0,10,11
 576.5 28 576.5 28 555.5 12.5 c 128,-1,12
 534.5 -3 534.5 -3 510.5 -3 c 256,13,14
 486.5 -3 486.5 -3 477.5 11 c 0,15,16
 473.5 17 473.5 17 467.5 32 c 128,-1,17
 461.5 47 461.5 47 455.5 67 c 128,-1,18
 449.5 87 449.5 87 444 109 c 128,-1,19
 438.5 131 438.5 131 434.5 152 c 0,20,21
 430.5 172 430.5 172 423 176.5 c 128,-1,22
 415.5 181 415.5 181 405.5 181 c 0,23,24
 376.5 181 376.5 181 354.5 181.5 c 128,-1,25
 332.5 182 332.5 182 321.5 182 c 0,26,27
 301.5 182 301.5 182 292 177.5 c 128,-1,28
 282.5 173 282.5 173 279.5 162 c 2,29,-1
 253.5 62 l 2,30,31
 245.5 33 245.5 33 228 15.5 c 128,-1,32
 210.5 -2 210.5 -2 188.5 -2 c 0,33,34
 152.5 -2 152.5 -2 152.5 48 c 0,35,36
 152.5 65 152.5 65 156.5 95.5 c 128,-1,37
 160.5 126 160.5 126 167 164.5 c 128,-1,38
 173.5 203 173.5 203 183 246.5 c 128,-1,39
 192.5 290 192.5 290 203 334.5 c 128,-1,40
 213.5 379 213.5 379 224.5 421 c 128,-1,41
 235.5 463 235.5 463 246.5 497 c 0,42,43
 258.5 535 258.5 535 271 559 c 128,-1,44
 283.5 583 283.5 583 297.5 597 c 128,-1,45
 311.5 611 311.5 611 329 616 c 128,-1,46
 346.5 621 346.5 621 370.5 621 c 0,0,1
309.5 561 m 0,47,48
 320.5 574 320.5 574 329.5 585.5 c 128,-1,49
 338.5 597 338.5 597 331.5 598 c 0,50,51
 315.5 601 315.5 601 299.5 579 c 0,52,53
 288.5 562 288.5 562 283.5 543 c 128,-1,54
 278.5 524 278.5 524 286.5 522 c 0,55,56
 288.5 522 288.5 522 290.5 525.5 c 128,-1,57
 292.5 529 292.5 529 294.5 535 c 128,-1,58
 296.5 541 296.5 541 300 548 c 128,-1,59
 303.5 555 303.5 555 309.5 561 c 0,47,48
325.5 377 m 0,60,61
 314.5 320 314.5 320 311 298.5 c 128,-1,62
 307.5 277 307.5 277 316.5 277 c 2,63,-1
 404.5 277 l 2,64,65
 412.5 277 412.5 277 408.5 296.5 c 128,-1,66
 404.5 316 404.5 316 396.5 357 c 0,67,68
 394.5 368 394.5 368 391.5 393.5 c 128,-1,69
 388.5 419 388.5 419 384 445 c 128,-1,70
 379.5 471 379.5 471 374.5 491.5 c 128,-1,71
 369.5 512 369.5 512 363.5 512 c 0,72,73
 358.5 512 358.5 512 352.5 494 c 128,-1,74
 346.5 476 346.5 476 341 452.5 c 128,-1,75
 335.5 429 335.5 429 331.5 407 c 128,-1,76
 327.5 385 327.5 385 325.5 377 c 0,60,61
184.5 63 m 0,77,78
 186.5 75 186.5 75 184.5 82 c 128,-1,79
 182.5 89 182.5 89 178.5 90 c 0,80,81
 176.5 90 176.5 90 174 87.5 c 128,-1,82
 171.5 85 171.5 85 169.5 77 c 0,83,84
 165.5 57 165.5 57 168.5 38.5 c 128,-1,85
 171.5 20 171.5 20 179.5 18 c 0,86,87
 189.5 16 189.5 16 183.5 33 c 0,88,89
 181.5 39 181.5 39 182 46.5 c 128,-1,90
 182.5 54 182.5 54 184.5 63 c 0,77,78
489.5 64 m 0,91,92
 482.5 78 482.5 78 480.5 83 c 128,-1,93
 478.5 88 478.5 88 476.5 88 c 0,94,95
 473.5 88 473.5 88 471.5 78 c 0,96,97
 471.5 74 471.5 74 474 63.5 c 128,-1,98
 476.5 53 476.5 53 480.5 42.5 c 128,-1,99
 484.5 32 484.5 32 490 24 c 128,-1,100
 495.5 16 495.5 16 500.5 16 c 0,101,102
 503.5 16 503.5 16 503.5 21 c 128,-1,103
 503.5 26 503.5 26 501 34 c 128,-1,104
 498.5 42 498.5 42 495.5 50 c 128,-1,105
 492.5 58 492.5 58 489.5 64 c 0,91,92
EndSplineSet
EndChar

StartChar: ampersand
Encoding: 38 38 67
Width: 729
GlyphClass: 1
Flags: W
LayerCount: 2
Fore
SplineSet
326.5 -6 m 0,0,1
 227.5 -6 227.5 -6 174 47.5 c 128,-1,2
 120.5 101 120.5 101 120.5 198 c 0,3,4
 120.5 260 120.5 260 140 298 c 128,-1,5
 159.5 336 159.5 336 182.5 357.5 c 128,-1,6
 205.5 379 205.5 379 224.5 388 c 128,-1,7
 243.5 397 243.5 397 243.5 402 c 0,8,9
 243.5 406 243.5 406 238 416.5 c 128,-1,10
 232.5 427 232.5 427 227 441 c 128,-1,11
 221.5 455 221.5 455 216.5 471.5 c 128,-1,12
 211.5 488 211.5 488 211.5 507 c 0,13,14
 211.5 565 211.5 565 251 601 c 128,-1,15
 290.5 637 290.5 637 354.5 637 c 0,16,17
 397.5 637 397.5 637 429.5 619 c 128,-1,18
 461.5 601 461.5 601 471.5 581 c 0,19,20
 474.5 576 474.5 576 473 565.5 c 128,-1,21
 471.5 555 471.5 555 467 545.5 c 128,-1,22
 462.5 536 462.5 536 454 528 c 128,-1,23
 445.5 520 445.5 520 433.5 520 c 256,24,25
 421.5 520 421.5 520 413 524.5 c 128,-1,26
 404.5 529 404.5 529 397.5 535 c 128,-1,27
 390.5 541 390.5 541 383 545.5 c 128,-1,28
 375.5 550 375.5 550 366.5 550 c 0,29,30
 347.5 550 347.5 550 334 536 c 128,-1,31
 320.5 522 320.5 522 320.5 493 c 0,32,33
 320.5 475 320.5 475 335.5 445 c 128,-1,34
 350.5 415 350.5 415 374.5 378 c 128,-1,35
 398.5 341 398.5 341 428.5 300 c 128,-1,36
 458.5 259 458.5 259 487.5 219 c 1,37,38
 499.5 244 499.5 244 509.5 271 c 0,39,40
 514.5 288 514.5 288 527 297 c 128,-1,41
 539.5 306 539.5 306 552.5 306 c 256,42,43
 565.5 306 565.5 306 576 296.5 c 128,-1,44
 586.5 287 586.5 287 586.5 266 c 0,45,46
 586.5 254 586.5 254 581 238 c 128,-1,47
 575.5 222 575.5 222 568 205.5 c 128,-1,48
 560.5 189 560.5 189 552.5 174 c 128,-1,49
 544.5 159 544.5 159 538.5 150 c 1,50,51
 569.5 107 569.5 107 589 73.5 c 128,-1,52
 608.5 40 608.5 40 608.5 24 c 0,53,54
 608.5 14 608.5 14 603 6.5 c 128,-1,55
 597.5 -1 597.5 -1 589.5 -5 c 128,-1,56
 581.5 -9 581.5 -9 571 -10.5 c 128,-1,57
 560.5 -12 560.5 -12 552.5 -12 c 0,58,59
 543.5 -12 543.5 -12 523 11 c 128,-1,60
 502.5 34 502.5 34 475.5 69 c 1,61,62
 442.5 36 442.5 36 405.5 15 c 128,-1,63
 368.5 -6 368.5 -6 326.5 -6 c 0,0,1
246.5 511 m 0,64,65
 253.5 511 253.5 511 257 521.5 c 128,-1,66
 260.5 532 260.5 532 262.5 538 c 0,67,68
 267.5 550 267.5 550 273.5 561.5 c 128,-1,69
 279.5 573 279.5 573 289.5 584 c 0,70,71
 290.5 586 290.5 586 297.5 593 c 128,-1,72
 304.5 600 304.5 600 304.5 602 c 256,73,74
 304.5 604 304.5 604 303.5 604 c 0,75,76
 293.5 604 293.5 604 282 594 c 128,-1,77
 270.5 584 270.5 584 262 569.5 c 128,-1,78
 253.5 555 253.5 555 248 541 c 128,-1,79
 242.5 527 242.5 527 242.5 519 c 0,80,81
 242.5 517 242.5 517 243.5 514 c 128,-1,82
 244.5 511 244.5 511 246.5 511 c 0,64,65
256.5 483 m 256,83,84
 256.5 485 256.5 485 256 488.5 c 128,-1,85
 255.5 492 255.5 492 250.5 492 c 0,86,87
 246.5 492 246.5 492 244.5 488.5 c 128,-1,88
 242.5 485 242.5 485 242.5 483 c 0,89,90
 242.5 475 242.5 475 249.5 475 c 0,91,92
 253.5 475 253.5 475 255 478 c 128,-1,93
 256.5 481 256.5 481 256.5 483 c 256,83,84
425.5 137 m 1,94,95
 401.5 170 401.5 170 378 203 c 128,-1,96
 354.5 236 354.5 236 335.5 261.5 c 128,-1,97
 316.5 287 316.5 287 303 302.5 c 128,-1,98
 289.5 318 289.5 318 284.5 318 c 0,99,100
 271.5 318 271.5 318 258.5 308 c 128,-1,101
 245.5 298 245.5 298 236 282 c 128,-1,102
 226.5 266 226.5 266 221 246.5 c 128,-1,103
 215.5 227 215.5 227 215.5 209 c 0,104,105
 215.5 187 215.5 187 223.5 166 c 128,-1,106
 231.5 145 231.5 145 246.5 129 c 128,-1,107
 261.5 113 261.5 113 283 103 c 128,-1,108
 304.5 93 304.5 93 330.5 93 c 0,109,110
 376.5 93 376.5 93 425.5 137 c 1,94,95
165.5 129 m 0,111,112
 170.5 133 170.5 133 168 144 c 128,-1,113
 165.5 155 165.5 155 163.5 160 c 0,114,115
 159.5 173 159.5 173 157.5 188 c 128,-1,116
 155.5 203 155.5 203 161.5 223 c 0,117,118
 166.5 237 166.5 237 163.5 241.5 c 128,-1,119
 160.5 246 160.5 246 158.5 244 c 0,120,121
 149.5 238 149.5 238 145.5 223 c 128,-1,122
 141.5 208 141.5 208 141.5 191 c 128,-1,123
 141.5 174 141.5 174 145.5 158 c 128,-1,124
 149.5 142 149.5 142 157.5 133 c 0,125,126
 158.5 131 158.5 131 161 129 c 128,-1,127
 163.5 127 163.5 127 165.5 129 c 0,111,112
EndSplineSet

EndChar

StartChar: at
Encoding: 64 64 68
Width: 729
GlyphClass: 1
Flags: W
LayerCount: 2
Fore
SplineSet
346 1 m 0,0,1
 289 1 289 1 241 20.5 c 128,-1,2
 193 40 193 40 158.5 75.5 c 128,-1,3
 124 111 124 111 105 161.5 c 128,-1,4
 86 212 86 212 86 273 c 0,5,6
 86 343 86 343 108 402.5 c 128,-1,7
 130 462 130 462 169.5 506.5 c 128,-1,8
 209 551 209 551 262.5 576 c 128,-1,9
 316 601 316 601 378 601 c 256,10,11
 440 601 440 601 489.5 580 c 128,-1,12
 539 559 539 559 573 522 c 128,-1,13
 607 485 607 485 625 436.5 c 128,-1,14
 643 388 643 388 643 333 c 0,15,16
 643 293 643 293 632.5 258.5 c 128,-1,17
 622 224 622 224 603.5 198 c 128,-1,18
 585 172 585 172 560.5 157 c 128,-1,19
 536 142 536 142 508 142 c 0,20,21
 486 142 486 142 473 150.5 c 128,-1,22
 460 159 460 159 452.5 169 c 128,-1,23
 445 179 445 179 440 187.5 c 128,-1,24
 435 196 435 196 431 196 c 256,25,26
 427 196 427 196 418 187 c 128,-1,27
 409 178 409 178 395.5 168.5 c 128,-1,28
 382 159 382 159 364.5 150 c 128,-1,29
 347 141 347 141 326 141 c 256,30,31
 304 141 304 141 285.5 151 c 128,-1,32
 267 161 267 161 254 178.5 c 128,-1,33
 241 196 241 196 233 219 c 128,-1,34
 225 242 225 242 225 269 c 0,35,36
 225 304 225 304 237 336.5 c 128,-1,37
 249 369 249 369 268 394 c 128,-1,38
 287 419 287 419 312 434 c 128,-1,39
 337 449 337 449 364 449 c 0,40,41
 377 449 377 449 385 445 c 128,-1,42
 393 441 393 441 398.5 437 c 128,-1,43
 404 433 404 433 407 429.5 c 128,-1,44
 410 426 410 426 413 426 c 256,45,46
 416 426 416 426 419 430.5 c 128,-1,47
 422 435 422 435 426 440 c 128,-1,48
 430 445 430 445 436.5 450 c 128,-1,49
 443 455 443 455 453 455 c 0,50,51
 475 455 475 455 483 435.5 c 128,-1,52
 491 416 491 416 492.5 390 c 128,-1,53
 494 364 494 364 492 337.5 c 128,-1,54
 490 311 490 311 490 299 c 0,55,56
 490 286 490 286 493 272 c 128,-1,57
 496 258 496 258 501 246 c 128,-1,58
 506 234 506 234 512 227 c 128,-1,59
 518 220 518 220 525 220 c 0,60,61
 537 220 537 220 547.5 244.5 c 128,-1,62
 558 269 558 269 558 310 c 0,63,64
 558 359 558 359 549 398 c 128,-1,65
 540 437 540 437 520 464.5 c 128,-1,66
 500 492 500 492 467 506.5 c 128,-1,67
 434 521 434 521 387 521 c 256,68,69
 340 521 340 521 300.5 503 c 128,-1,70
 261 485 261 485 232.5 453.5 c 128,-1,71
 204 422 204 422 188 379 c 128,-1,72
 172 336 172 336 172 286 c 0,73,74
 172 241 172 241 186 203 c 128,-1,75
 200 165 200 165 224.5 137.5 c 128,-1,76
 249 110 249 110 282 94.5 c 128,-1,77
 315 79 315 79 352 79 c 0,78,79
 379 79 379 79 406 85.5 c 128,-1,80
 433 92 433 92 457.5 100.5 c 128,-1,81
 482 109 482 109 504 115.5 c 128,-1,82
 526 122 526 122 543 122 c 0,83,84
 572 122 572 122 572 100 c 0,85,86
 572 83 572 83 552 65 c 128,-1,87
 532 47 532 47 499.5 32.5 c 128,-1,88
 467 18 467 18 426.5 9.5 c 128,-1,89
 386 1 386 1 346 1 c 0,0,1
262 324 m 0,90,91
 266 324 266 324 271 334.5 c 128,-1,92
 276 345 276 345 278 347 c 0,93,94
 286 361 286 361 296.5 373.5 c 128,-1,95
 307 386 307 386 319 397 c 0,96,97
 324 402 324 402 318 402 c 0,98,99
 311 402 311 402 300 393.5 c 128,-1,100
 289 385 289 385 279.5 373.5 c 128,-1,101
 270 362 270 362 263.5 350 c 128,-1,102
 257 338 257 338 257 331 c 0,103,104
 257 329 257 329 258.5 326.5 c 128,-1,105
 260 324 260 324 262 324 c 0,90,91
350 225 m 0,106,107
 360 225 360 225 371 234.5 c 128,-1,108
 382 244 382 244 391.5 258 c 128,-1,109
 401 272 401 272 406.5 290.5 c 128,-1,110
 412 309 412 309 412 328 c 0,111,112
 412 371 412 371 379 371 c 0,113,114
 366 371 366 371 352.5 363.5 c 128,-1,115
 339 356 339 356 328.5 344 c 128,-1,116
 318 332 318 332 311.5 316.5 c 128,-1,117
 305 301 305 301 305 285 c 0,118,119
 305 259 305 259 315.5 242 c 128,-1,120
 326 225 326 225 350 225 c 0,106,107
260 298 m 0,121,122
 260 305 260 305 255 307 c 0,123,124
 252 308 252 308 248.5 304.5 c 128,-1,125
 245 301 245 301 245 298 c 0,126,127
 245 294 245 294 247.5 290.5 c 128,-1,128
 250 287 250 287 253 287 c 256,129,130
 256 287 256 287 258 291 c 128,-1,131
 260 295 260 295 260 298 c 0,121,122
EndSplineSet
EndChar

StartChar: b
Encoding: 98 98 69
Width: 729
GlyphClass: 2
Flags: W
LayerCount: 2
Fore
SplineSet
615 564 m 1,0,-1
 565 564 l 1,1,-1
 565 0 l 1,2,-1
 482 0 l 1,3,-1
 482 202 l 1,4,-1
 507 176 l 1,5,6
 472 146 472 146 429 131 c 128,-1,7
 386 116 386 116 327 116 c 0,8,9
 231 116 231 116 174.5 165 c 128,-1,10
 118 214 118 214 118 295 c 0,11,12
 118 389 118 389 180.5 434 c 128,-1,13
 243 479 243 479 341 479 c 0,14,15
 372 479 372 479 397.5 476.5 c 128,-1,16
 423 474 423 474 446 469 c 1,17,-1
 440 398 l 1,18,19
 417 403 417 403 394 406 c 128,-1,20
 371 409 371 409 347 409 c 0,21,22
 278 409 278 409 239.5 381 c 128,-1,23
 201 353 201 353 201 295 c 0,24,25
 201 240 201 240 237 212.5 c 128,-1,26
 273 185 273 185 330 185 c 0,27,28
 366 185 366 185 397 196.5 c 128,-1,29
 428 208 428 208 453.5 227 c 128,-1,30
 479 246 479 246 495 266 c 1,31,-1
 482 221 l 1,32,-1
 482 564 l 1,33,-1
 114 564 l 5,34,-1
 114 637 l 5,35,-1
 615 637 l 1,36,-1
 615 564 l 1,0,-1
281 434 m 1,37,-1
 457 210 l 1,38,-1
 410 167 l 1,39,-1
 217 411 l 1,40,-1
 281 434 l 1,37,-1
EndSplineSet
EndChar

StartChar: c
Encoding: 99 99 70
Width: 729
VWidth: 1000
GlyphClass: 2
Flags: W
LayerCount: 2
Fore
SplineSet
473.5 17 m 0,0,1
 355.5 17 355.5 17 290.5 84 c 128,-1,2
 225.5 151 225.5 151 225.5 272 c 0,3,4
 225.5 352 225.5 352 254.5 407.5 c 128,-1,5
 283.5 463 283.5 463 337.5 492 c 1,6,-1
 109.5 492 l 1,7,-1
 109.5 564 l 1,8,-1
 619.5 564 l 1,9,-1
 619.5 492 l 1,10,-1
 517.5 492 l 2,11,12
 423.5 492 423.5 492 370 438.5 c 128,-1,13
 316.5 385 316.5 385 316.5 279 c 0,14,15
 316.5 192 316.5 192 359.5 141.5 c 128,-1,16
 402.5 91 402.5 91 482.5 91 c 0,17,18
 519.5 91 519.5 91 553.5 100.5 c 128,-1,19
 587.5 110 587.5 110 619.5 126 c 1,20,-1
 619.5 48 l 1,21,22
 590.5 32 590.5 32 555.5 24.5 c 128,-1,23
 520.5 17 520.5 17 473.5 17 c 0,0,1
EndSplineSet

EndChar

StartChar: d
Encoding: 100 100 71
Width: 729
GlyphClass: 2
Flags: W
LayerCount: 2
Fore
SplineSet
424 227 m 0,0,1
 393 227 393 227 362 221 c 128,-1,2
 331 215 331 215 307 204 c 1,3,4
 264 232 264 232 229.5 269 c 128,-1,5
 195 306 195 306 195 356 c 0,6,7
 195 415 195 415 234 445 c 128,-1,8
 273 475 273 475 354 475 c 2,9,-1
 475 475 l 1,10,-1
 475 564 l 1,11,-1
 140 564 l 1,12,-1
 140 637 l 1,13,-1
 608 637 l 1,14,-1
 608 564 l 1,15,-1
 558 564 l 1,16,-1
 558 403 l 1,17,-1
 355 403 l 2,18,19
 314 403 314 403 295.5 390 c 128,-1,20
 277 377 277 377 277 350 c 0,21,22
 277 331 277 331 290 313 c 128,-1,23
 303 295 303 295 320 283 c 1,24,25
 345 291 345 291 373.5 296 c 128,-1,26
 402 301 402 301 432 301 c 0,27,28
 515 301 515 301 558.5 262.5 c 128,-1,29
 602 224 602 224 602 158 c 0,30,31
 602 113 602 113 581 77 c 128,-1,32
 560 41 560 41 516 20.5 c 128,-1,33
 472 0 472 0 402 0 c 0,34,35
 314 0 314 0 245 34.5 c 128,-1,36
 176 69 176 69 121 122 c 1,37,-1
 173 189 l 1,38,39
 227 133 227 133 282.5 104.5 c 128,-1,40
 338 76 338 76 400 76 c 0,41,42
 460 76 460 76 489.5 96.5 c 128,-1,43
 519 117 519 117 519 155 c 0,44,45
 519 189 519 189 497 208 c 128,-1,46
 475 227 475 227 424 227 c 0,0,1
EndSplineSet
EndChar

StartChar: dollar
Encoding: 36 36 72
Width: 729
GlyphClass: 1
Flags: W
LayerCount: 2
Fore
SplineSet
355.5 -42 m 256,0,1
 344.5 -42 344.5 -42 338.5 -33.5 c 128,-1,2
 332.5 -25 332.5 -25 329.5 -12.5 c 128,-1,3
 326.5 0 326.5 0 326.5 14 c 128,-1,4
 326.5 28 326.5 28 326.5 38 c 2,5,-1
 326.5 97 l 1,6,7
 281.5 97 281.5 97 251 117 c 128,-1,8
 220.5 137 220.5 137 220.5 167 c 0,9,10
 220.5 185 220.5 185 231 192 c 128,-1,11
 241.5 199 241.5 199 253.5 199 c 0,12,13
 276.5 199 276.5 199 298.5 190.5 c 128,-1,14
 320.5 182 320.5 182 351.5 182 c 0,15,16
 360.5 182 360.5 182 372.5 185 c 128,-1,17
 384.5 188 384.5 188 394.5 194.5 c 128,-1,18
 404.5 201 404.5 201 412 209.5 c 128,-1,19
 419.5 218 419.5 218 419.5 230 c 0,20,21
 419.5 254 419.5 254 400 266.5 c 128,-1,22
 380.5 279 380.5 279 349.5 279 c 0,23,24
 288.5 279 288.5 279 253 311 c 128,-1,25
 217.5 343 217.5 343 217.5 411 c 0,26,27
 217.5 471 217.5 471 247.5 509 c 128,-1,28
 277.5 547 277.5 547 326.5 555 c 1,29,-1
 326.5 601 l 2,30,31
 326.5 608 326.5 608 326 623 c 128,-1,32
 325.5 638 325.5 638 328 653 c 128,-1,33
 330.5 668 330.5 668 337 679 c 128,-1,34
 343.5 690 343.5 690 356.5 690 c 256,35,36
 369.5 690 369.5 690 376 662.5 c 128,-1,37
 382.5 635 382.5 635 382.5 586 c 0,38,39
 382.5 566 382.5 566 384.5 560.5 c 128,-1,40
 386.5 555 386.5 555 398.5 555 c 256,41,42
 410.5 555 410.5 555 423.5 551 c 128,-1,43
 436.5 547 436.5 547 447.5 539 c 128,-1,44
 458.5 531 458.5 531 465 520.5 c 128,-1,45
 471.5 510 471.5 510 471.5 497 c 256,46,47
 471.5 484 471.5 484 465.5 479 c 128,-1,48
 459.5 474 459.5 474 448.5 473 c 128,-1,49
 437.5 472 437.5 472 422 473.5 c 128,-1,50
 406.5 475 406.5 475 388.5 475 c 0,51,52
 349.5 475 349.5 475 335 458 c 128,-1,53
 320.5 441 320.5 441 320.5 414 c 0,54,55
 320.5 401 320.5 401 327 392 c 128,-1,56
 333.5 383 333.5 383 342.5 378.5 c 128,-1,57
 351.5 374 351.5 374 361.5 371.5 c 128,-1,58
 371.5 369 371.5 369 378.5 368 c 0,59,60
 408.5 364 408.5 364 433 355 c 128,-1,61
 457.5 346 457.5 346 474.5 330.5 c 128,-1,62
 491.5 315 491.5 315 501.5 291.5 c 128,-1,63
 511.5 268 511.5 268 511.5 236 c 0,64,65
 511.5 177 511.5 177 475.5 140.5 c 128,-1,66
 439.5 104 439.5 104 382.5 99 c 1,67,-1
 382.5 38 l 2,68,69
 382.5 29 382.5 29 382.5 15 c 128,-1,70
 382.5 1 382.5 1 380.5 -12 c 128,-1,71
 378.5 -25 378.5 -25 372.5 -33.5 c 128,-1,72
 366.5 -42 366.5 -42 355.5 -42 c 256,0,1
281.5 487 m 0,73,74
 287.5 496 287.5 496 297 501.5 c 128,-1,75
 306.5 507 306.5 507 306.5 515 c 0,76,77
 306.5 521 306.5 521 299.5 521 c 0,78,79
 291.5 521 291.5 521 283 515 c 128,-1,80
 274.5 509 274.5 509 268.5 500.5 c 128,-1,81
 262.5 492 262.5 492 258.5 482 c 128,-1,82
 254.5 472 254.5 472 254.5 464 c 0,83,84
 254.5 457 254.5 457 258.5 457 c 0,85,86
 265.5 457 265.5 457 271 468 c 128,-1,87
 276.5 479 276.5 479 281.5 487 c 0,73,74
263.5 435 m 0,88,89
 263.5 444 263.5 444 254.5 444 c 0,90,91
 249.5 444 249.5 444 248 439.5 c 128,-1,92
 246.5 435 246.5 435 248.5 429 c 256,93,94
 250.5 423 250.5 423 255.5 423 c 256,95,96
 260.5 423 260.5 423 262 426.5 c 128,-1,97
 263.5 430 263.5 430 263.5 435 c 0,88,89
EndSplineSet
EndChar

StartChar: e
Encoding: 101 101 73
Width: 729
VWidth: 1000
GlyphClass: 2
Flags: W
LayerCount: 2
Fore
SplineSet
381.33984375 -10 m 0,0,1
 336.33984375 -10 336.33984375 -10 299.83984375 11.5 c 128,-1,2
 263.33984375 33 263.33984375 33 237.33984375 73 c 128,-1,3
 211.33984375 113 211.33984375 113 196.83984375 168.5 c 128,-1,4
 182.33984375 224 182.33984375 224 182.33984375 292 c 0,5,6
 182.33984375 364 182.33984375 364 198.33984375 424.5 c 128,-1,7
 214.33984375 485 214.33984375 485 242.83984375 529.5 c 128,-1,8
 271.33984375 574 271.33984375 574 310.83984375 598.5 c 128,-1,9
 350.33984375 623 350.33984375 623 396.33984375 623 c 0,10,11
 430.33984375 623 430.33984375 623 458.83984375 610 c 128,-1,12
 487.33984375 597 487.33984375 597 507.33984375 573.5 c 128,-1,13
 527.33984375 550 527.33984375 550 537.83984375 518.5 c 128,-1,14
 548.33984375 487 548.33984375 487 546.33984375 450 c 0,15,16
 544.33984375 407 544.33984375 407 526.33984375 366.5 c 128,-1,17
 508.33984375 326 508.33984375 326 478.33984375 295 c 128,-1,18
 448.33984375 264 448.33984375 264 408.83984375 245.5 c 128,-1,19
 369.33984375 227 369.33984375 227 324.33984375 227 c 0,20,21
 307.33984375 227 307.33984375 227 307.33984375 213 c 0,22,23
 307.33984375 149 307.33984375 149 329.83984375 118.5 c 128,-1,24
 352.33984375 88 352.33984375 88 387.33984375 88 c 0,25,26
 413.33984375 88 413.33984375 88 430.83984375 107 c 128,-1,27
 448.33984375 126 448.33984375 126 448.33984375 155 c 0,28,29
 448.33984375 179 448.33984375 179 461.33984375 193.5 c 128,-1,30
 474.33984375 208 474.33984375 208 494.33984375 208 c 0,31,32
 517.33984375 208 517.33984375 208 530.83984375 189.5 c 128,-1,33
 544.33984375 171 544.33984375 171 544.33984375 139 c 0,34,35
 544.33984375 109 544.33984375 109 531.33984375 81.5 c 128,-1,36
 518.33984375 54 518.33984375 54 496.33984375 34 c 128,-1,37
 474.33984375 14 474.33984375 14 444.33984375 2 c 128,-1,38
 414.33984375 -10 414.33984375 -10 381.33984375 -10 c 0,0,1
251.33984375 477 m 0,39,40
 254.33984375 477 254.33984375 477 263.83984375 491.5 c 128,-1,41
 273.33984375 506 273.33984375 506 286.33984375 523.5 c 128,-1,42
 299.33984375 541 299.33984375 541 314.33984375 556.5 c 128,-1,43
 329.33984375 572 329.33984375 572 344.33984375 573 c 0,44,45
 349.33984375 574 349.33984375 574 353.83984375 576.5 c 128,-1,46
 358.33984375 579 358.33984375 579 357.33984375 582 c 0,47,48
 357.33984375 592 357.33984375 592 344.33984375 590 c 0,49,50
 327.33984375 589 327.33984375 589 309.83984375 576 c 128,-1,51
 292.33984375 563 292.33984375 563 277.83984375 545.5 c 128,-1,52
 263.33984375 528 263.33984375 528 254.33984375 510 c 128,-1,53
 245.33984375 492 245.33984375 492 246.33984375 481 c 0,54,55
 248.33984375 474 248.33984375 474 251.33984375 477 c 0,39,40
304.33984375 315 m 0,56,57
 307.33984375 311 307.33984375 311 318.33984375 311 c 0,58,59
 344.33984375 311 344.33984375 311 368.33984375 324 c 128,-1,60
 392.33984375 337 392.33984375 337 410.33984375 357 c 128,-1,61
 428.33984375 377 428.33984375 377 439.33984375 403 c 128,-1,62
 450.33984375 429 450.33984375 429 450.33984375 454 c 0,63,64
 450.33984375 486 450.33984375 486 434.83984375 507 c 128,-1,65
 419.33984375 528 419.33984375 528 396.33984375 528 c 0,66,67
 379.33984375 528 379.33984375 528 364.83984375 513.5 c 128,-1,68
 350.33984375 499 350.33984375 499 338.83984375 477.5 c 128,-1,69
 327.33984375 456 327.33984375 456 319.33984375 429.5 c 128,-1,70
 311.33984375 403 311.33984375 403 306.83984375 379.5 c 128,-1,71
 302.33984375 356 302.33984375 356 301.33984375 338 c 128,-1,72
 300.33984375 320 300.33984375 320 304.33984375 315 c 0,56,57
238.33984375 467 m 0,73,74
 233.33984375 466 233.33984375 466 230.33984375 459.5 c 128,-1,75
 227.33984375 453 227.33984375 453 228.33984375 445 c 0,76,77
 230.33984375 436 230.33984375 436 232.33984375 437 c 0,78,79
 237.33984375 437 237.33984375 437 241.33984375 446 c 128,-1,80
 245.33984375 455 245.33984375 455 243.33984375 462 c 0,81,82
 241.33984375 468 241.33984375 468 238.33984375 467 c 0,73,74
EndSplineSet
EndChar

StartChar: f
Encoding: 102 102 74
Width: 729
GlyphClass: 2
Flags: W
LayerCount: 2
Fore
SplineSet
444.5 564 m 1,0,-1
 444.5 321 l 1,1,-1
 426.5 349 l 1,2,3
 455.5 379 455.5 379 488.5 394 c 128,-1,4
 521.5 409 521.5 409 562.5 409 c 0,5,6
 635.5 409 635.5 409 677 366.5 c 128,-1,7
 718.5 324 718.5 324 718.5 245 c 0,8,9
 718.5 191 718.5 191 697.5 141.5 c 128,-1,10
 676.5 92 676.5 92 631.5 42 c 1,11,-1
 561.5 87 l 1,12,13
 595.5 123 595.5 123 616.5 162.5 c 128,-1,14
 637.5 202 637.5 202 637.5 245 c 0,15,16
 637.5 291 637.5 291 616.5 314.5 c 128,-1,17
 595.5 338 595.5 338 558.5 338 c 0,18,19
 520.5 338 520.5 338 490.5 317.5 c 128,-1,20
 460.5 297 460.5 297 438.5 263 c 1,21,-1
 444.5 300 l 1,22,-1
 444.5 0 l 1,23,-1
 361.5 0 l 1,24,-1
 361.5 244 l 1,25,-1
 377.5 220 l 1,26,27
 352.5 194 352.5 194 315 179 c 128,-1,28
 277.5 164 277.5 164 232.5 164 c 0,29,30
 169.5 164 169.5 164 130 188.5 c 128,-1,31
 90.5 213 90.5 213 72.5 258.5 c 128,-1,32
 54.5 304 54.5 304 54.5 369 c 2,33,-1
 54.5 564 l 1,34,-1
 10.5 564 l 1,35,-1
 10.5 637 l 1,36,-1
 706.5 637 l 1,37,-1
 706.5 564 l 1,38,-1
 444.5 564 l 1,0,-1
137.5 564 m 1,39,-1
 137.5 371 l 2,40,41
 137.5 320 137.5 320 148.5 290.5 c 128,-1,42
 159.5 261 159.5 261 181.5 249 c 128,-1,43
 203.5 237 203.5 237 235.5 237 c 0,44,45
 275.5 237 275.5 237 314 259.5 c 128,-1,46
 352.5 282 352.5 282 380.5 313 c 1,47,-1
 361.5 258 l 1,48,-1
 361.5 564 l 1,49,-1
 137.5 564 l 1,39,-1
EndSplineSet
EndChar

StartChar: g
Encoding: 103 103 75
Width: 729
VWidth: 1000
GlyphClass: 2
Flags: W
LayerCount: 2
Fore
SplineSet
384 -5 m 0,0,1
 317 -5 317 -5 273 28 c 128,-1,2
 229 61 229 61 203 111 c 128,-1,3
 177 161 177 161 167 219 c 128,-1,4
 157 277 157 277 157 328 c 0,5,6
 157 384 157 384 168.5 437.5 c 128,-1,7
 180 491 180 491 207 532.5 c 128,-1,8
 234 574 234 574 277.5 599.5 c 128,-1,9
 321 625 321 625 385 625 c 0,10,11
 416 625 416 625 444.5 616.5 c 128,-1,12
 473 608 473 608 495 589.5 c 128,-1,13
 517 571 517 571 530 540.5 c 128,-1,14
 543 510 543 510 543 466 c 0,15,16
 543 450 543 450 536.5 440.5 c 128,-1,17
 530 431 530 431 520.5 425.5 c 128,-1,18
 511 420 511 420 501 418.5 c 128,-1,19
 491 417 491 417 485 417 c 0,20,21
 471 417 471 417 458.5 427 c 128,-1,22
 446 437 446 437 446 466 c 0,23,24
 446 511 446 511 425.5 529 c 128,-1,25
 405 547 405 547 376 547 c 0,26,27
 356 547 356 547 337.5 530.5 c 128,-1,28
 319 514 319 514 305 483.5 c 128,-1,29
 291 453 291 453 283 410 c 128,-1,30
 275 367 275 367 275 314 c 0,31,32
 275 285 275 285 278.5 245 c 128,-1,33
 282 205 282 205 294 169 c 128,-1,34
 306 133 306 133 328 107.5 c 128,-1,35
 350 82 350 82 386 82 c 0,36,37
 415 82 415 82 431.5 96.5 c 128,-1,38
 448 111 448 111 455.5 132 c 128,-1,39
 463 153 463 153 464.5 175.5 c 128,-1,40
 466 198 466 198 465 214 c 256,41,42
 464 230 464 230 451.5 231.5 c 128,-1,43
 439 233 439 233 416 233 c 2,44,-1
 365 233 l 2,45,46
 359 233 359 233 354 239 c 128,-1,47
 349 245 349 245 346 253.5 c 128,-1,48
 343 262 343 262 341 271 c 128,-1,49
 339 280 339 280 339 286 c 0,50,51
 339 302 339 302 349.5 314.5 c 128,-1,52
 360 327 360 327 383 327 c 2,53,-1
 491 326 l 2,54,55
 522 326 522 326 547 306 c 128,-1,56
 572 286 572 286 572 249 c 0,57,58
 572 206 572 206 562.5 161 c 128,-1,59
 553 116 553 116 531 79 c 128,-1,60
 509 42 509 42 473 18.5 c 128,-1,61
 437 -5 437 -5 384 -5 c 0,0,1
289 58 m 0,62,63
 289 62 289 62 269 84 c 0,64,65
 260 93 260 93 251 106.5 c 128,-1,66
 242 120 242 120 234.5 133 c 128,-1,67
 227 146 227 146 222.5 157.5 c 128,-1,68
 218 169 218 169 218 173 c 0,69,70
 218 178 218 178 215 179.5 c 128,-1,71
 212 181 212 181 211 181 c 0,72,73
 203 181 203 181 203 170 c 256,74,75
 203 159 203 159 212 139 c 128,-1,76
 221 119 221 119 233.5 99.5 c 128,-1,77
 246 80 246 80 259.5 66 c 128,-1,78
 273 52 273 52 283 52 c 0,79,80
 289 52 289 52 289 58 c 0,62,63
312 45 m 0,81,82
 312 52 312 52 305 52 c 0,83,84
 301 52 301 52 299.5 49 c 128,-1,85
 298 46 298 46 298 44 c 0,86,87
 298 39 298 39 300.5 38 c 128,-1,88
 303 37 303 37 305 37 c 0,89,90
 312 37 312 37 312 45 c 0,81,82
EndSplineSet
EndChar

StartChar: grave
Encoding: 96 96 76
Width: 729
GlyphClass: 1
Flags: W
LayerCount: 2
Fore
SplineSet
368.5 784 m 1,0,1
 379.5 761 379.5 761 397 733.5 c 128,-1,2
 414.5 706 414.5 706 433 679 c 128,-1,3
 451.5 652 451.5 652 467.5 633 c 1,4,-1
 467.5 621 l 1,5,-1
 406.5 621 l 1,6,7
 389.5 635 389.5 635 368 655 c 128,-1,8
 346.5 675 346.5 675 325.5 697 c 128,-1,9
 304.5 719 304.5 719 287.5 739.5 c 128,-1,10
 270.5 760 270.5 760 261.5 774 c 1,11,-1
 261.5 784 l 1,12,-1
 368.5 784 l 1,0,1
EndSplineSet
EndChar

StartChar: h
Encoding: 104 104 77
Width: 729
VWidth: 1000
GlyphClass: 2
Flags: W
LayerCount: 2
Fore
SplineSet
237.009765625 0 m 0,0,1
 212.009765625 0 212.009765625 0 202.009765625 14.5 c 128,-1,2
 192.009765625 29 192.009765625 29 192.009765625 65 c 2,3,-1
 192.009765625 343 l 2,4,5
 192.009765625 434 192.009765625 434 190.009765625 518 c 0,6,7
 189.009765625 616 189.009765625 616 240.009765625 616 c 0,8,9
 259.009765625 616 259.009765625 616 277.009765625 606.5 c 128,-1,10
 295.009765625 597 295.009765625 597 295.009765625 571 c 2,11,-1
 295.009765625 358 l 2,12,13
 295.009765625 318 295.009765625 318 299.009765625 318 c 256,14,15
 303.009765625 318 303.009765625 318 308.009765625 334 c 128,-1,16
 313.009765625 350 313.009765625 350 325.009765625 369.5 c 128,-1,17
 337.009765625 389 337.009765625 389 359.009765625 405 c 128,-1,18
 381.009765625 421 381.009765625 421 417.009765625 421 c 0,19,20
 481.009765625 421 481.009765625 421 510.009765625 358 c 128,-1,21
 539.009765625 295 539.009765625 295 539.009765625 157 c 2,22,-1
 539.009765625 31 l 2,23,24
 539.009765625 0 539.009765625 0 483.009765625 0 c 0,25,26
 456.009765625 0 456.009765625 0 444.009765625 11.5 c 128,-1,27
 432.009765625 23 432.009765625 23 432.009765625 34 c 2,28,-1
 432.009765625 148 l 2,29,30
 432.009765625 200 432.009765625 200 429.009765625 232 c 128,-1,31
 426.009765625 264 426.009765625 264 420.009765625 282 c 128,-1,32
 414.009765625 300 414.009765625 300 404.509765625 306.5 c 128,-1,33
 395.009765625 313 395.009765625 313 381.009765625 313 c 0,34,35
 360.009765625 313 360.009765625 313 344.509765625 293.5 c 128,-1,36
 329.009765625 274 329.009765625 274 319.009765625 241 c 128,-1,37
 309.009765625 208 309.009765625 208 304.509765625 163.5 c 0,38,39
 300.009765625 123 300.009765625 123 300.009765625 121 c 2,40,-1
 300.009765625 45 l 2,41,42
 300.009765625 30 300.009765625 30 292.509765625 21 c 128,-1,43
 285.009765625 12 285.009765625 12 275.009765625 7.5 c 128,-1,44
 265.009765625 3 265.009765625 3 254.509765625 1.5 c 128,-1,45
 244.009765625 0 244.009765625 0 237.009765625 0 c 0,0,1
212.009765625 316 m 0,46,47
 215.009765625 316 215.009765625 316 217.009765625 328 c 128,-1,48
 219.009765625 340 219.009765625 340 221.009765625 355 c 128,-1,49
 223.009765625 370 223.009765625 370 224.009765625 482 c 128,-1,50
 225.009765625 594 225.009765625 594 225.009765625 595 c 0,51,52
 225.009765625 597 225.009765625 597 224.509765625 600 c 128,-1,53
 224.009765625 603 224.009765625 603 222.009765625 603 c 0,54,55
 217.009765625 603 217.009765625 603 213.509765625 595.5 c 128,-1,56
 210.009765625 588 210.009765625 588 208.009765625 479 c 128,-1,57
 206.009765625 370 206.009765625 370 205.009765625 360.5 c 128,-1,58
 204.009765625 351 204.009765625 351 204.009765625 348 c 0,59,60
 204.009765625 340 204.009765625 340 206.009765625 328 c 128,-1,61
 208.009765625 316 208.009765625 316 212.009765625 316 c 0,46,47
469.009765625 29 m 0,62,63
 469.009765625 35 469.009765625 35 467.009765625 38 c 128,-1,64
 465.009765625 41 465.009765625 41 462.509765625 43 c 128,-1,65
 460.009765625 45 460.009765625 45 458.009765625 49 c 128,-1,66
 456.009765625 53 456.009765625 53 456.009765625 60 c 0,67,68
 456.009765625 76 456.009765625 76 454.509765625 80 c 128,-1,69
 453.009765625 84 453.009765625 84 448.009765625 84 c 256,70,71
 443.009765625 84 443.009765625 84 441.509765625 76.5 c 128,-1,72
 440.009765625 69 440.009765625 69 440.009765625 59 c 0,73,74
 440.009765625 39 440.009765625 39 446.009765625 27 c 128,-1,75
 452.009765625 15 452.009765625 15 460.009765625 15 c 0,76,77
 463.009765625 15 463.009765625 15 466.009765625 18.5 c 128,-1,78
 469.009765625 22 469.009765625 22 469.009765625 29 c 0,62,63
236.009765625 26 m 0,79,80
 236.009765625 31 236.009765625 31 233.509765625 33.5 c 128,-1,81
 231.009765625 36 231.009765625 36 228.009765625 38.5 c 128,-1,82
 225.009765625 41 225.009765625 41 222.509765625 45 c 128,-1,83
 220.009765625 49 220.009765625 49 220.009765625 56 c 0,84,85
 220.009765625 77 220.009765625 77 213.009765625 77 c 0,86,87
 211.009765625 77 211.009765625 77 209.009765625 69.5 c 128,-1,88
 207.009765625 62 207.009765625 62 207.009765625 51 c 0,89,90
 207.009765625 36 207.009765625 36 213.509765625 24 c 128,-1,91
 220.009765625 12 220.009765625 12 228.009765625 12 c 0,92,93
 230.009765625 12 230.009765625 12 233.009765625 16 c 128,-1,94
 236.009765625 20 236.009765625 20 236.009765625 26 c 0,79,80
EndSplineSet
EndChar

StartChar: i
Encoding: 105 105 78
Width: 729
VWidth: 1000
GlyphClass: 2
Flags: W
LayerCount: 2
Fore
SplineSet
356.174804688 -4 m 256,0,1
 332.174804688 -4 332.174804688 -4 319.174804688 6.5 c 128,-1,2
 306.174804688 17 306.174804688 17 306.174804688 32 c 2,3,-1
 306.174804688 387 l 2,4,5
 306.174804688 396 306.174804688 396 308.674804688 408 c 128,-1,6
 311.174804688 420 311.174804688 420 316.674804688 430 c 128,-1,7
 322.174804688 440 322.174804688 440 331.674804688 447 c 128,-1,8
 341.174804688 454 341.174804688 454 356.174804688 454 c 256,9,10
 371.174804688 454 371.174804688 454 381.674804688 448 c 128,-1,11
 392.174804688 442 392.174804688 442 398.674804688 433 c 128,-1,12
 405.174804688 424 405.174804688 424 408.674804688 413 c 128,-1,13
 412.174804688 402 412.174804688 402 412.174804688 392 c 2,14,-1
 412.174804688 32 l 2,15,16
 412.174804688 16 412.174804688 16 396.174804688 6 c 128,-1,17
 380.174804688 -4 380.174804688 -4 356.174804688 -4 c 256,0,1
324.174804688 357 m 0,18,19
 327.174804688 357 327.174804688 357 328.174804688 363 c 128,-1,20
 329.174804688 369 329.174804688 369 329.174804688 377.5 c 128,-1,21
 329.174804688 386 329.174804688 386 329.674804688 395.5 c 128,-1,22
 330.174804688 405 330.174804688 405 332.174804688 411 c 0,23,24
 333.174804688 415 333.174804688 415 335.174804688 422 c 128,-1,25
 337.174804688 429 337.174804688 429 334.174804688 429 c 0,26,27
 329.174804688 429 329.174804688 429 325.674804688 423.5 c 128,-1,28
 322.174804688 418 322.174804688 418 319.674804688 410.5 c 128,-1,29
 317.174804688 403 317.174804688 403 316.174804688 395.5 c 128,-1,30
 315.174804688 388 315.174804688 388 315.174804688 383 c 0,31,32
 315.174804688 374 315.174804688 374 317.174804688 365.5 c 128,-1,33
 319.174804688 357 319.174804688 357 324.174804688 357 c 0,18,19
359.641601562 523.2265625 m 4,34,35
 324.174804688 523 324.174804688 523 299.176757812 552.055664062 c 132,-1,36
 274.174804688 581 274.174804688 581 274.01953125 626.186523438 c 4,37,38
 274.174804688 651 274.174804688 651 281.522460938 673.033203125 c 4,39,40
 289.174804688 695 289.174804688 695 302.265625 711.12890625 c 4,41,42
 315.174804688 727 315.174804688 727 334.04296875 736.868164062 c 4,43,44
 352.174804688 747 352.174804688 747 374.647460938 746.649414062 c 4,45,46
 392.174804688 747 392.174804688 747 407.306640625 737.8984375 c 4,47,48
 422.174804688 729 422.174804688 729 432.90625 713.702148438 c 4,49,50
 443.174804688 698 443.174804688 698 449.235351562 678.696289062 c 4,51,52
 455.174804688 659 455.174804688 659 454.973632812 637.51171875 c 4,53,54
 455.174804688 610 455.174804688 610 447.469726562 588.606445312 c 4,55,56
 440.174804688 567 440.174804688 567 426.7265625 553.083984375 c 132,-1,57
 413.174804688 539 413.174804688 539 396.2734375 530.948242188 c 4,58,59
 378.174804688 523 378.174804688 523 359.641601562 523.2265625 c 4,34,35
326.981445312 701.34765625 m 4,60,61
 333.174804688 709 333.174804688 709 334.484375 713.702148438 c 4,62,63
 336.174804688 719 336.174804688 719 334.04296875 718.850585938 c 4,64,65
 327.174804688 719 327.174804688 719 319.037109375 711.12890625 c 4,66,67
 311.174804688 703 311.174804688 703 304.47265625 692.595703125 c 4,68,69
 298.174804688 682 298.174804688 682 293.439453125 669.4296875 c 4,70,71
 288.174804688 654 288.174804688 654 289.025390625 646.778320312 c 4,72,73
 289.174804688 645 289.174804688 645 290.348632812 638.541015625 c 4,74,75
 291.174804688 632 291.174804688 632 294.322265625 632.36328125 c 4,76,77
 298.174804688 633 298.174804688 633 303.1484375 655.015625 c 4,78,79
 306.174804688 669 306.174804688 669 312.858398438 681.26953125 c 4,80,81
 319.174804688 693 319.174804688 693 326.981445312 701.34765625 c 4,60,61
363.171875 581.913085938 m 4,82,83
 374.174804688 582 374.174804688 582 388.329101562 596.328125 c 4,84,85
 403.174804688 611 403.174804688 611 402.893554688 637.51171875 c 4,86,87
 403.174804688 658 403.174804688 658 393.625976562 672.002929688 c 132,-1,88
 384.174804688 686 384.174804688 686 369.350585938 685.903320312 c 260,89,90
 354.174804688 686 354.174804688 686 341.987304688 672.002929688 c 4,91,92
 329.174804688 657 329.174804688 657 329.62890625 633.393554688 c 260,93,94
 330.174804688 609 330.174804688 609 339.338867188 595.298828125 c 4,95,96
 349.174804688 582 349.174804688 582 363.171875 581.913085938 c 4,82,83
EndSplineSet
EndChar

StartChar: j
Encoding: 106 106 79
Width: 729
VWidth: 1000
GlyphClass: 2
Flags: W
LayerCount: 2
Fore
SplineSet
400.5 559 m 256,0,1
 374.5 559 374.5 559 358.5 574.5 c 128,-1,2
 342.5 590 342.5 590 342.5 616 c 0,3,4
 342.5 643 342.5 643 359 660 c 128,-1,5
 375.5 677 375.5 677 402.5 677 c 256,6,7
 429.5 677 429.5 677 446.5 661.5 c 128,-1,8
 463.5 646 463.5 646 463.5 621 c 0,9,10
 463.5 595 463.5 595 445 577 c 128,-1,11
 426.5 559 426.5 559 400.5 559 c 256,0,1
368.5 618 m 0,12,13
 370.5 627 370.5 627 374 631.5 c 128,-1,14
 377.5 636 377.5 636 381.5 638.5 c 128,-1,15
 385.5 641 385.5 641 388.5 643.5 c 128,-1,16
 391.5 646 391.5 646 391.5 650 c 0,17,18
 391.5 660 391.5 660 381.5 660 c 0,19,20
 369.5 660 369.5 660 361.5 646.5 c 128,-1,21
 353.5 633 353.5 633 353.5 618 c 0,22,23
 353.5 611 353.5 611 355 601.5 c 128,-1,24
 356.5 592 356.5 592 362.5 592 c 0,25,26
 367.5 592 367.5 592 367.5 603.5 c 128,-1,27
 367.5 615 367.5 615 368.5 618 c 0,12,13
455.5 82 m 2,28,29
 455.5 35 455.5 35 449 -3.5 c 128,-1,30
 442.5 -42 442.5 -42 427.5 -69.5 c 128,-1,31
 412.5 -97 412.5 -97 387 -112 c 128,-1,32
 361.5 -127 361.5 -127 322.5 -127 c 0,33,34
 291.5 -127 291.5 -127 278.5 -113.5 c 128,-1,35
 265.5 -100 265.5 -100 265.5 -72 c 0,36,37
 265.5 -56 265.5 -56 270.5 -38.5 c 128,-1,38
 275.5 -21 275.5 -21 289.5 -21 c 0,39,40
 296.5 -21 296.5 -21 303 -23.5 c 128,-1,41
 309.5 -26 309.5 -26 317.5 -26 c 0,42,43
 333.5 -26 333.5 -26 341.5 -3 c 128,-1,44
 349.5 20 349.5 20 349.5 82 c 2,45,-1
 349.5 439 l 2,46,47
 349.5 448 349.5 448 352 460 c 128,-1,48
 354.5 472 354.5 472 360 482 c 128,-1,49
 365.5 492 365.5 492 375 499 c 128,-1,50
 384.5 506 384.5 506 399.5 506 c 256,51,52
 414.5 506 414.5 506 425 500 c 128,-1,53
 435.5 494 435.5 494 442 485 c 128,-1,54
 448.5 476 448.5 476 452 465 c 128,-1,55
 455.5 454 455.5 454 455.5 444 c 2,56,-1
 455.5 82 l 2,28,29
367.5 409 m 0,57,58
 370.5 409 370.5 409 371.5 415 c 128,-1,59
 372.5 421 372.5 421 372.5 429.5 c 128,-1,60
 372.5 438 372.5 438 373 447.5 c 128,-1,61
 373.5 457 373.5 457 375.5 463 c 0,62,63
 376.5 467 376.5 467 378.5 474 c 128,-1,64
 380.5 481 380.5 481 377.5 481 c 0,65,66
 372.5 481 372.5 481 369 475.5 c 128,-1,67
 365.5 470 365.5 470 363 462.5 c 128,-1,68
 360.5 455 360.5 455 359.5 447.5 c 128,-1,69
 358.5 440 358.5 440 358.5 435 c 0,70,71
 358.5 426 358.5 426 360.5 417.5 c 128,-1,72
 362.5 409 362.5 409 367.5 409 c 0,57,58
309.5 -103 m 0,73,74
 309.5 -91 309.5 -91 301 -83 c 128,-1,75
 292.5 -75 292.5 -75 292.5 -66 c 0,76,77
 292.5 -52 292.5 -52 290 -47.5 c 128,-1,78
 287.5 -43 287.5 -43 283.5 -43 c 0,79,80
 280.5 -43 280.5 -43 279 -49.5 c 128,-1,81
 277.5 -56 277.5 -56 277.5 -64 c 0,82,83
 277.5 -83 277.5 -83 284.5 -97 c 128,-1,84
 291.5 -111 291.5 -111 299.5 -111 c 0,85,86
 302.5 -111 302.5 -111 306 -109.5 c 128,-1,87
 309.5 -108 309.5 -108 309.5 -103 c 0,73,74
EndSplineSet
EndChar

StartChar: k
Encoding: 107 107 80
Width: 729
GlyphClass: 2
Flags: W
LayerCount: 2
Fore
SplineSet
683.5 564 m 1,0,-1
 438.5 564 l 1,1,-1
 438.5 341 l 1,2,-1
 424.5 351 l 1,3,4
 444.5 377 444.5 377 479.5 393.5 c 128,-1,5
 514.5 410 514.5 410 558.5 410 c 0,6,7
 631.5 410 631.5 410 672 366 c 128,-1,8
 712.5 322 712.5 322 712.5 246 c 0,9,10
 712.5 193 712.5 193 692 143 c 128,-1,11
 671.5 93 671.5 93 626.5 43 c 1,12,-1
 555.5 88 l 1,13,14
 589.5 123 589.5 123 610.5 161.5 c 128,-1,15
 631.5 200 631.5 200 631.5 247 c 0,16,17
 631.5 292 631.5 292 609.5 315 c 128,-1,18
 587.5 338 587.5 338 549.5 338 c 0,19,20
 515.5 338 515.5 338 485 316 c 128,-1,21
 454.5 294 454.5 294 435.5 256 c 1,22,-1
 438.5 294 l 1,23,-1
 438.5 0 l 1,24,-1
 355.5 0 l 1,25,-1
 355.5 215 l 1,26,-1
 369.5 187 l 1,27,28
 350.5 168 350.5 168 326.5 152.5 c 128,-1,29
 302.5 137 302.5 137 272.5 129 c 128,-1,30
 242.5 121 242.5 121 208.5 121 c 0,31,32
 156.5 121 156.5 121 112.5 141 c 128,-1,33
 68.5 161 68.5 161 42.5 200.5 c 128,-1,34
 16.5 240 16.5 240 16.5 298 c 0,35,36
 16.5 382 16.5 382 72.5 428.5 c 128,-1,37
 128.5 475 128.5 475 227.5 475 c 0,38,39
 254.5 475 254.5 475 277.5 472.5 c 128,-1,40
 300.5 470 300.5 470 319.5 465 c 1,41,-1
 312.5 390 l 1,42,43
 295.5 395 295.5 395 274.5 397.5 c 128,-1,44
 253.5 400 253.5 400 229.5 400 c 0,45,46
 167.5 400 167.5 400 133.5 373 c 128,-1,47
 99.5 346 99.5 346 99.5 295 c 0,48,49
 99.5 245 99.5 245 131 220 c 128,-1,50
 162.5 195 162.5 195 208.5 195 c 0,51,52
 257.5 195 257.5 195 297.5 220 c 128,-1,53
 337.5 245 337.5 245 359.5 280 c 1,54,-1
 355.5 229 l 1,55,-1
 355.5 564 l 1,56,-1
 25.5 564 l 1,57,-1
 25.5 637 l 1,58,-1
 683.5 637 l 1,59,-1
 683.5 564 l 1,0,-1
EndSplineSet
EndChar

StartChar: l
Encoding: 108 108 81
Width: 729
GlyphClass: 2
Flags: W
LayerCount: 2
Fore
SplineSet
64.5 564 m 5,0,-1
 64.5 637 l 5,1,-1
 670.5 637 l 1,2,-1
 670.5 564 l 1,3,-1
 615.5 564 l 1,4,-1
 615.5 0 l 1,5,-1
 532.5 0 l 1,6,-1
 532.5 388 l 1,7,-1
 577.5 355 l 1,8,9
 561.5 362 561.5 362 547 364.5 c 128,-1,10
 532.5 367 532.5 367 520.5 367 c 0,11,12
 485.5 367 485.5 367 458 351 c 128,-1,13
 430.5 335 430.5 335 411.5 298 c 128,-1,14
 392.5 261 392.5 261 381.5 198 c 1,15,-1
 299.5 222 l 1,16,17
 313.5 330 313.5 330 370.5 384 c 128,-1,18
 427.5 438 427.5 438 520.5 438 c 0,19,20
 540.5 438 540.5 438 558 435 c 128,-1,21
 575.5 432 575.5 432 587.5 428 c 1,22,-1
 591.5 406 l 1,23,-1
 532.5 425 l 1,24,-1
 532.5 564 l 1,25,-1
 64.5 564 l 5,0,-1
352.5 311 m 1,26,27
 335.5 336 335.5 336 308.5 351.5 c 128,-1,28
 281.5 367 281.5 367 244.5 367 c 0,29,30
 196.5 367 196.5 367 169 337.5 c 128,-1,31
 141.5 308 141.5 308 141.5 260 c 0,32,33
 141.5 202 141.5 202 184.5 152.5 c 128,-1,34
 227.5 103 227.5 103 321.5 49 c 1,35,-1
 273.5 -14 l 1,36,37
 173.5 45 173.5 45 116 113 c 128,-1,38
 58.5 181 58.5 181 58.5 268 c 0,39,40
 58.5 353 58.5 353 108.5 396.5 c 128,-1,41
 158.5 440 158.5 440 236.5 440 c 0,42,43
 287.5 440 287.5 440 325.5 421 c 128,-1,44
 363.5 402 363.5 402 391.5 372 c 1,45,-1
 352.5 311 l 1,26,27
EndSplineSet
EndChar

StartChar: m
Encoding: 109 109 82
Width: 729
GlyphClass: 2
Flags: W
LayerCount: 2
Fore
SplineSet
582 564 m 1,0,-1
 582 0 l 1,1,-1
 499 0 l 1,2,-1
 499 256 l 1,3,-1
 273 256 l 1,4,-1
 273 218 l 2,5,6
 273 184 273 184 258 169.5 c 128,-1,7
 243 155 243 155 224 155 c 256,8,9
 205 155 205 155 183 167.5 c 128,-1,10
 161 180 161 180 142.5 200 c 128,-1,11
 124 220 124 220 112.5 242.5 c 128,-1,12
 101 265 101 265 101 285 c 0,13,14
 101 303 101 303 115 316 c 128,-1,15
 129 329 129 329 163 329 c 2,16,-1
 190 329 l 1,17,-1
 190 564 l 1,18,-1
 72 564 l 1,19,-1
 72 637 l 1,20,-1
 657 637 l 5,21,-1
 657 564 l 5,22,-1
 582 564 l 1,0,-1
499 564 m 1,23,-1
 273 564 l 1,24,-1
 273 329 l 1,25,-1
 499 329 l 1,26,-1
 499 564 l 1,23,-1
EndSplineSet
EndChar

StartChar: n
Encoding: 110 110 83
Width: 729
GlyphClass: 2
Flags: W
LayerCount: 2
Fore
SplineSet
141.5 637 m 1,0,-1
 607.5 637 l 5,1,-1
 607.5 564 l 5,2,-1
 560.5 564 l 1,3,-1
 560.5 0 l 1,4,-1
 477.5 0 l 1,5,-1
 477.5 305 l 1,6,-1
 292.5 305 l 1,7,-1
 292.5 250 l 2,8,9
 292.5 221 292.5 221 278 207 c 128,-1,10
 263.5 193 263.5 193 240.5 193 c 0,11,12
 222.5 193 222.5 193 201 205 c 128,-1,13
 179.5 217 179.5 217 161.5 237.5 c 128,-1,14
 143.5 258 143.5 258 132.5 281 c 128,-1,15
 121.5 304 121.5 304 121.5 326 c 0,16,17
 121.5 350 121.5 350 135.5 364 c 128,-1,18
 149.5 378 149.5 378 183.5 378 c 2,19,-1
 477.5 378 l 1,20,-1
 477.5 564 l 1,21,-1
 141.5 564 l 1,22,-1
 141.5 637 l 1,0,-1
EndSplineSet
EndChar

